<svg xmlns="http://www.w3.org/2000/svg" width="102" height="102" viewBox="0 0 102 102">
  <g id="Grupo_1072056" data-name="Grupo 1072056" transform="translate(-749 -4275)">
    <circle id="Elipse_9683" data-name="Elipse 9683" cx="51" cy="51" r="51" transform="translate(749 4275)" fill="#fff"/>
    <g id="scrum" transform="translate(733.349 4278.932)">
      <g id="Grupo_1072055" data-name="Grupo 1072055" transform="translate(33.717 10.123)">
        <path id="Trazado_818049" data-name="Trazado 818049" d="M188.673,248.031a2.087,2.087,0,0,0-1.475,3.562.619.619,0,0,1,0,.876l-1.333,1.333a.619.619,0,0,1-.876,0,2.087,2.087,0,0,0-3.561,1.475.619.619,0,0,1-.619.619h-1.885a.619.619,0,0,1-.619-.619,2.086,2.086,0,0,0-3.561-1.475.619.619,0,0,1-.876,0l-1.333-1.333a.619.619,0,0,1,0-.876,2.087,2.087,0,0,0-1.475-3.562.619.619,0,0,1-.619-.619v-1.885a.619.619,0,0,1,.619-.619,2.087,2.087,0,0,0,1.475-3.561.619.619,0,0,1,0-.876l1.333-1.333a.619.619,0,0,1,.876,0,2.087,2.087,0,0,0,3.561-1.475.619.619,0,0,1,.619-.619h1.885a.619.619,0,0,1,.619.619,2.087,2.087,0,0,0,3.561,1.475.619.619,0,0,1,.876,0l1.333,1.333a.619.619,0,0,1,0,.876,2.087,2.087,0,0,0,1.475,3.561.619.619,0,0,1,.619.619v1.885a.619.619,0,0,1-.619.619Zm-8.807-6.091a4.529,4.529,0,1,0,4.529,4.529A4.529,4.529,0,0,0,179.865,241.94Z" transform="translate(-150.525 -203.386)" fill="#fdcd56" fill-rule="evenodd"/>
        <path id="Trazado_818050" data-name="Trazado 818050" d="M278.313,16A15.583,15.583,0,0,0,266.8,42.081L273.6,39.4a9.125,9.125,0,1,1,12.535-3.119l-3-1.732,1.29,4.411,1.29,4.411,4.465-1.088,4.465-1.088-2.915-1.683A15.586,15.586,0,0,0,278.313,16Z" transform="translate(-228.763 -16)" fill="#66d4f1" fill-rule="evenodd"/>
        <path id="Trazado_818051" data-name="Trazado 818051" d="M260.932,398.975H232.349v-8.126h28.583v-4.267l3.98,4.165,3.98,4.165-3.98,4.165-3.98,4.165Z" transform="translate(-203.008 -330.156)" fill="#fdcd56" fill-rule="evenodd"/>
        <path id="Trazado_818052" data-name="Trazado 818052" d="M68.991,130.727a25.675,25.675,0,0,1,0,51.35H39.65v-8.126H68.991A17.548,17.548,0,1,0,51.442,156.4a17.747,17.747,0,0,0,.124,2.1l4.176-1.119-5.986,9.845L39.65,161.7l4.012-1.075a25.692,25.692,0,0,1,25.329-29.894Z" transform="translate(-39.65 -113.258)" fill="#f76c82" fill-rule="evenodd"/>
      </g>
      <path id="Trazado_818053" data-name="Trazado 818053" d="M92.706,80.541V78.931a1.066,1.066,0,0,0-1.066-1.066H73.518a26.834,26.834,0,0,0,8.717-5.994H91.64a1.066,1.066,0,0,0,1.066-1.065V69.2l5.42,5.672ZM84.1,9.068H82.436A16.669,16.669,0,0,0,66.618,25.7c0,.354.014.709.036,1.062A26.754,26.754,0,0,0,36.536,56.691l-3.1.829a1.066,1.066,0,0,0-.236,1.965l10.107,5.533a1.067,1.067,0,0,0,1.422-.381l5.986-9.845a1.066,1.066,0,0,0-1.186-1.583L46.592,54q-.016-.37-.016-.74A16.483,16.483,0,1,1,63.058,69.739H33.717a1.066,1.066,0,0,0-1.066,1.066v8.125A1.066,1.066,0,0,0,33.717,80H90.575v3.2a1.064,1.064,0,0,0,.669.989,1.052,1.052,0,0,0,.4.077,1.067,1.067,0,0,0,.771-.329l7.96-8.33a1.066,1.066,0,0,0,0-1.472l-7.96-8.33a1.066,1.066,0,0,0-1.836.737v3.2H84.1A26.712,26.712,0,0,0,76.581,30.2a8.058,8.058,0,1,1,14.077-1.284l-2.033-1.174a1.066,1.066,0,0,0-1.556,1.222l2.58,8.822a1.067,1.067,0,0,0,1.275.737l8.929-2.177a1.066,1.066,0,0,0,.281-1.958l-2.013-1.162A16.654,16.654,0,0,0,84.1,9.068Zm-49.315,68.8H63.057A24.589,24.589,0,1,0,38.78,57.3,1.065,1.065,0,0,1,38,58.5l-1.444.387,6.882,3.767,4.076-6.7-1.608.431a1.066,1.066,0,0,1-1.334-.9,18.918,18.918,0,0,1-.132-2.227A18.614,18.614,0,1,1,63.057,71.871H34.782ZM68.749,25.7A14.517,14.517,0,1,1,95.769,33.08a1.067,1.067,0,0,0,.384,1.467l.613.354-5.358,1.305-1.548-5.293.7.4A1.065,1.065,0,0,0,92,30.943a10.19,10.19,0,1,0-18.5-2.3,26.537,26.537,0,0,0-4.686-1.5C68.775,26.663,68.749,26.179,68.749,25.7ZM63.057,49.732A3.463,3.463,0,1,1,59.594,53.2,3.467,3.467,0,0,1,63.057,49.732Zm0,9.058a5.595,5.595,0,1,1,5.6-5.595A5.6,5.6,0,0,1,63.057,58.791Zm-5.9-8.037a3.1,3.1,0,0,0-.387-3.1l.744-.744a3.157,3.157,0,0,0,5.014-2.076h1.052A3.157,3.157,0,0,0,68.6,46.911l.744.744a3.157,3.157,0,0,0,2.077,5.013v1.052a3.157,3.157,0,0,0-2.077,5.014l-.744.744a3.157,3.157,0,0,0-5.014,2.076H62.531a3.156,3.156,0,0,0-5.014-2.076l-.744-.744A3.157,3.157,0,0,0,54.7,53.722V52.669a3.093,3.093,0,0,0,2.464-1.916Zm-2.911-.185a1.021,1.021,0,0,0,.722-1.742,1.687,1.687,0,0,1,0-2.383L56.3,45.11a1.687,1.687,0,0,1,2.383,0,1.021,1.021,0,0,0,1.742-.721A1.687,1.687,0,0,1,62.115,42.7H64a1.687,1.687,0,0,1,1.685,1.685,1.021,1.021,0,0,0,1.742.721,1.687,1.687,0,0,1,2.383,0l1.333,1.333a1.687,1.687,0,0,1,0,2.383,1.021,1.021,0,0,0,.722,1.742,1.687,1.687,0,0,1,1.685,1.685v1.885a1.687,1.687,0,0,1-1.685,1.685,1.022,1.022,0,0,0-.722,1.742,1.687,1.687,0,0,1,0,2.383L69.81,61.281a1.686,1.686,0,0,1-2.383,0A1.022,1.022,0,0,0,65.685,62,1.687,1.687,0,0,1,64,63.688H62.115A1.687,1.687,0,0,1,60.43,62a1.021,1.021,0,0,0-1.742-.722,1.687,1.687,0,0,1-2.383,0l-1.333-1.333a1.687,1.687,0,0,1,0-2.383,1.022,1.022,0,0,0-.722-1.742,1.687,1.687,0,0,1-1.685-1.685V52.253A1.687,1.687,0,0,1,54.25,50.568Z" fill-rule="evenodd"/>
    </g>
  </g>
</svg>
