<svg xmlns="http://www.w3.org/2000/svg" width="102" height="102" viewBox="0 0 102 102">
  <g id="Grupo_1072054" data-name="Grupo 1072054" transform="translate(-329 -4275)">
    <circle id="Elipse_9666" data-name="Elipse 9666" cx="51" cy="51" r="51" transform="translate(329 4275)" fill="#fff"/>
    <g id="avatar" transform="translate(346.591 4287.85)">
      <path id="Trazado_135785" data-name="Trazado 135785" d="M152.289,256h19.333v19.332H152.289Zm0,0" transform="translate(-128.91 -217.413)" fill="#ecbd83"/>
      <path id="Trazado_135786" data-name="Trazado 135786" d="M66.183,348.433l-11.06-4.253L39.415,347.8,23.708,344.18l-11.06,4.253A7.25,7.25,0,0,0,8,355.2v13.145H70.83V355.2A7.25,7.25,0,0,0,66.183,348.433Zm0,0" transform="translate(-6.37 -292.302)" fill="#dbeaff"/>
      <path id="Trazado_135787" data-name="Trazado 135787" d="M152.289,263.05a19.167,19.167,0,0,0,19.333,0V256H152.289Zm0,0" transform="translate(-128.91 -217.413)" fill="#e2a975"/>
      <path id="Trazado_135788" data-name="Trazado 135788" d="M117.6,74.488a3.6,3.6,0,0,0-1.208.222v-11.1H84.978v11.1a3.625,3.625,0,1,0,0,6.806v1.43a15.707,15.707,0,0,0,31.415,0v-1.43a3.619,3.619,0,1,0,1.208-7.028Zm0,0" transform="translate(-67.64 -54.025)" fill="#f6d190"/>
      <path id="Trazado_135789" data-name="Trazado 135789" d="M116.4,63.613H84.98v11.1a3.349,3.349,0,0,0-3.169.419,3.585,3.585,0,0,0,3.169,6.387v1.43a15.605,15.605,0,0,0,18.124,15.5,15.7,15.7,0,0,1-13.291-15.5V77.379A4.727,4.727,0,0,1,90.69,74.6,13.725,13.725,0,0,0,92.2,71.9a1.2,1.2,0,0,1,1.559-.666,25.929,25.929,0,0,0,9.774,2.006,22.845,22.845,0,0,0,10.958-2.814,3.6,3.6,0,0,0,1.707-2.037C116.262,68.36,116.4,63.613,116.4,63.613Zm0,0" transform="translate(-67.642 -54.025)" fill="#ecbd83"/>
      <path id="Trazado_135790" data-name="Trazado 135790" d="M280.989,40.447a3.614,3.614,0,0,0-.974.133,3.739,3.739,0,0,1-4.107-1.727c-3.374-5.494-3.377-15.321-3.377-15.321h3.625a6.041,6.041,0,0,1,6.041,6.042v11.1A3.59,3.59,0,0,0,280.989,40.447Zm0,0" transform="translate(-231.028 -19.984)" fill="#966a5b"/>
      <path id="Trazado_135791" data-name="Trazado 135791" d="M178.565,207.9a1.215,1.215,0,0,0-1.177,1.512,6.043,6.043,0,0,0,11.7,0,1.215,1.215,0,0,0-1.177-1.512Zm0,0" transform="translate(-150.193 -176.565)" fill="#fff"/>
      <path id="Trazado_135792" data-name="Trazado 135792" d="M121.877,463.652h-8.458a1.208,1.208,0,0,1-1.208-1.208v-4.833a1.208,1.208,0,0,1,1.208-1.208h8.458a1.208,1.208,0,0,1,1.208,1.208v4.833A1.208,1.208,0,0,1,121.877,463.652Zm0,0" transform="translate(-94.873 -387.609)" fill="#ffe09f"/>
      <path id="Trazado_135793" data-name="Trazado 135793" d="M97.388,40.447a3.614,3.614,0,0,1,.974.133c1.569.44,2.88-.743,3.733-2.131,3.374-5.494,3.751-14.917,3.751-14.917h-3.625a6.041,6.041,0,0,0-6.041,6.042v11.1A3.59,3.59,0,0,1,97.388,40.447Zm0,0" transform="translate(-81.258 -19.984)" fill="#785353"/>
      <path id="Trazado_135794" data-name="Trazado 135794" d="M162.814,7.5H147.982a3.667,3.667,0,0,0-3.708,3.625l.138,2.827a6.013,6.013,0,0,0,3.842,5.3,26.111,26.111,0,0,0,23.872-2.073,2.412,2.412,0,0,0,.955-2.989A11.127,11.127,0,0,0,162.814,7.5Zm0,0" transform="translate(-122.103 -6.37)" fill="#966a5b"/>
      <path id="Trazado_135795" data-name="Trazado 135795" d="M9.228,390.59A7.232,7.232,0,0,0,8,394.614v13.145H18.874v-7.3a4.834,4.834,0,0,0-1.866-3.815Zm0,0" transform="translate(-6.37 -331.717)" fill="#c3ddff"/>
      <path id="Trazado_135796" data-name="Trazado 135796" d="M362.342,390.59a7.232,7.232,0,0,1,1.228,4.024v13.145H352.7v-7.3a4.834,4.834,0,0,1,1.866-3.815Zm0,0" transform="translate(-299.109 -331.717)" fill="#c3ddff"/>
      <path id="Trazado_135797" data-name="Trazado 135797" d="M121.877,484.078h-8.458a1.208,1.208,0,0,1-1.208-1.208v-2.416h10.874v2.416A1.208,1.208,0,0,1,121.877,484.078Zm0,0" transform="translate(-94.873 -408.035)" fill="#f6d190"/>
      <path id="Trazado_135798" data-name="Trazado 135798" d="M115.134,315.6l-2.923,3.9,7.957,7.957a2.416,2.416,0,0,0,3.417,0l4.333-4.332-11.125-7.787A1.208,1.208,0,0,0,115.134,315.6Zm0,0" transform="translate(-94.873 -267.616)" fill="#c3ddff"/>
      <path id="Trazado_135799" data-name="Trazado 135799" d="M229.206,315.6a1.208,1.208,0,0,0-1.659-.265l-11.125,7.787,4.332,4.332a2.416,2.416,0,0,0,3.417,0l7.957-7.957Zm0,0" transform="translate(-183.376 -267.616)" fill="#c3ddff"/>
      <path id="Trazado_135800" data-name="Trazado 135800" d="M161.955,155.778a1.131,1.131,0,0,0,1.13-1.13v-1.208a1.13,1.13,0,0,0-2.261,0v1.208A1.13,1.13,0,0,0,161.955,155.778Zm0,0" transform="translate(-136.159 -129.351)"/>
      <path id="Trazado_135801" data-name="Trazado 135801" d="M258.146,155.778a1.13,1.13,0,0,0,1.13-1.13v-1.208a1.13,1.13,0,0,0-2.261,0v1.208A1.131,1.131,0,0,0,258.146,155.778Zm0,0" transform="translate(-217.851 -129.351)"/>
      <path id="Trazado_135802" data-name="Trazado 135802" d="M168.84,201.533a7.172,7.172,0,1,0,14.343,0,1.13,1.13,0,0,0-1.13-1.13H169.97A1.13,1.13,0,0,0,168.84,201.533Zm11.951,1.13a4.911,4.911,0,0,1-9.559,0Zm0,0" transform="translate(-142.966 -170.196)"/>
      <path id="Trazado_135803" data-name="Trazado 135803" d="M60.219,55.076,49.462,50.939,46.734,47.3a2.326,2.326,0,0,0-2.892-.7V41.83a16.809,16.809,0,0,0,6.041-12.91v-.078h.078A4.753,4.753,0,0,0,52.3,19.95V12a12.018,12.018,0,0,0-12-12H25.8a4.757,4.757,0,0,0-4.138,2.416h-.7a7.18,7.18,0,0,0-7.171,7.172V19.95a4.753,4.753,0,0,0,2.339,8.893h.078v.078a16.809,16.809,0,0,0,6.041,12.91V46.6a2.327,2.327,0,0,0-2.892.7l-2.728,3.638L5.872,55.076A8.431,8.431,0,0,0,.5,62.9V76.043a1.13,1.13,0,1,0,2.261,0V62.9a6.057,6.057,0,0,1,.387-2.125l6.745,5.059a3.72,3.72,0,0,1,1.481,2.962v7.25a1.13,1.13,0,1,0,2.261,0v-7.25a5.992,5.992,0,0,0-2.385-4.771l-6.928-5.2a6.089,6.089,0,0,1,2.361-1.64L17.058,53.2,24.5,60.634a3.548,3.548,0,0,0,5.016,0l2.4-2.4V76.043a1.13,1.13,0,1,0,2.261,0V58.232l2.4,2.4a3.548,3.548,0,0,0,5.016,0l3.124-3.124a1.131,1.131,0,0,0-1.6-1.6L40,59.036a1.287,1.287,0,0,1-1.819,0l-3.38-3.38,10.021-7.014a.077.077,0,0,1,.107.017l2.335,3.113-.515.515a1.131,1.131,0,0,0,1.6,1.6l.688-.689,10.375,3.99a6.094,6.094,0,0,1,2.361,1.64l-6.928,5.2a5.991,5.991,0,0,0-2.386,4.77v7.25a1.13,1.13,0,1,0,2.261,0v-7.25A3.721,3.721,0,0,1,56.2,65.831l6.745-5.059A6.061,6.061,0,0,1,63.33,62.9V76.043a1.13,1.13,0,0,0,2.261,0V62.9A8.431,8.431,0,0,0,60.219,55.076Zm-32.305,3.96a1.287,1.287,0,0,1-1.819,0l-7.264-7.264,2.335-3.113a.077.077,0,0,1,.107-.017l10.021,7.014ZM41.581,48.147l-8.535,5.975L24.51,48.147V43.429a16.8,16.8,0,0,0,17.071,0ZM32.9,43.5A14.7,14.7,0,0,1,18.469,28.735V27.521a1.17,1.17,0,0,0-.224-.708,1.132,1.132,0,0,0-1.285-.387,2.462,2.462,0,0,1-.83.157,2.494,2.494,0,1,1,0-4.989,2.449,2.449,0,0,1,.83.157,1.145,1.145,0,0,0,.883-.054,10.671,10.671,0,0,0,4.774-5.118,1.13,1.13,0,1,0-2.1-.84,8.466,8.466,0,0,1-3.305,3.729,4.485,4.485,0,0,0-1.082-.135l-.078,0V9.588a4.911,4.911,0,0,1,4.911-4.911h.079c0,.026,0,.052,0,.078a1.131,1.131,0,0,0,1.238,1.126A1.157,1.157,0,0,0,23.3,4.728,2.5,2.5,0,0,1,25.8,2.261h14.5A9.744,9.744,0,0,1,50.039,12v7.329l-.078,0a4.488,4.488,0,0,0-1.162.155c-2.332-1.03-3.393-4-3.688-4.992q.255-.128.51-.264a1.161,1.161,0,0,0,.515-1.528,1.13,1.13,0,0,0-1.545-.485A18.527,18.527,0,0,1,29.8,13.48a23.28,23.28,0,0,1-6.63-3.274,1.13,1.13,0,0,0-1.387,1.785,25.054,25.054,0,0,0,7.263,3.622A22.658,22.658,0,0,0,35.867,16.7,20.369,20.369,0,0,0,43.024,15.4c.478,1.493,1.855,4.841,4.885,6.163a2.215,2.215,0,0,0,.871.18h0a2.512,2.512,0,0,0,.634-.082,2.223,2.223,0,0,1,.546-.071,2.494,2.494,0,1,1,0,4.988,2.45,2.45,0,0,1-.821-.154,1.129,1.129,0,0,0-1.517,1.062v1.43A14.593,14.593,0,0,1,32.9,43.5Zm0,0"/>
      <path id="Trazado_135804" data-name="Trazado 135804" d="M115.508,428.48h-3.1v-2.494a1.13,1.13,0,0,0-2.261,0v2.494h-3.1a2.341,2.341,0,0,0-2.339,2.339v4.833a2.341,2.341,0,0,0,2.339,2.339h8.458a2.341,2.341,0,0,0,2.339-2.339v-4.833A2.341,2.341,0,0,0,115.508,428.48Zm.078,7.172a.078.078,0,0,1-.078.078H107.05a.078.078,0,0,1-.078-.078v-4.833a.078.078,0,0,1,.078-.078h8.458a.078.078,0,0,1,.078.078Zm0,0" transform="translate(-88.503 -360.817)"/>
    </g>
  </g>
</svg>
