<svg xmlns="http://www.w3.org/2000/svg" width="112.12" height="114.272" viewBox="0 0 112.12 114.272">
  <g id="Grupo_61675" data-name="Grupo 61675" transform="translate(-152.809 -4328.769)">
    <circle id="Elipse_4256" data-name="Elipse 4256" cx="48.822" cy="48.822" r="48.822" transform="translate(160.047 4337.083)" fill="#fff"/>
    <rect id="Rectángulo_6693" data-name="Rectángulo 6693" width="112.12" height="114.272" transform="translate(152.809 4328.769)" fill="none"/>
    <g id="Grupo_61678" data-name="Grupo 61678" transform="translate(175.506 4351.606)">
      <g id="Grupo_61676" data-name="Grupo 61676" transform="translate(0 0)">
        <path id="Trazado_110991" data-name="Trazado 110991" d="M242.539,4458.863v1.713a4.021,4.021,0,0,1-4.029,4.028h-6.177a4.021,4.021,0,0,1-4.028-4.028v-1.713a4.266,4.266,0,0,0,1.746.37h10.742A4.268,4.268,0,0,0,242.539,4458.863Z" transform="translate(-201.857 -4397.015)" fill="#68d0e8"/>
        <g id="Grupo_61675-2" data-name="Grupo 61675">
          <path id="Trazado_110992" data-name="Trazado 110992" d="M238.388,4372.656a1.007,1.007,0,0,1-1.007-1.007v-6.791a1.007,1.007,0,0,1,2.015,0v6.791a1.007,1.007,0,0,1-1.008,1.007Z" transform="translate(-205.025 -4363.852)" fill="#ffe7c9"/>
          <path id="Trazado_110993" data-name="Trazado 110993" d="M208.043,4385.226a1,1,0,0,1-.712-.295l-4.8-4.8a1.007,1.007,0,0,1,1.425-1.424l4.8,4.8a1.007,1.007,0,0,1-.712,1.719Z" transform="translate(-192.757 -4368.934)" fill="#ffe7c9"/>
          <path id="Trazado_110994" data-name="Trazado 110994" d="M195.473,4415.571h-6.79a1.007,1.007,0,0,1,0-2.014h6.79a1.007,1.007,0,0,1,0,2.014Z" transform="translate(-187.676 -4381.201)" fill="#ffe7c9"/>
          <path id="Trazado_110995" data-name="Trazado 110995" d="M203.242,4448.144a1.007,1.007,0,0,1-.713-1.719l4.8-4.8a1.007,1.007,0,0,1,1.424,1.424l-4.8,4.8A1,1,0,0,1,203.242,4448.144Z" transform="translate(-192.757 -4390.895)" fill="#ffe7c9"/>
          <path id="Trazado_110996" data-name="Trazado 110996" d="M270.961,4448.144a1,1,0,0,1-.712-.294l-4.8-4.8a1.007,1.007,0,0,1,1.425-1.424l4.8,4.8a1.007,1.007,0,0,1-.712,1.719Z" transform="translate(-214.718 -4390.895)" fill="#ffe7c9"/>
          <path id="Trazado_110997" data-name="Trazado 110997" d="M284.453,4415.571h-6.79a1.007,1.007,0,0,1,0-2.014h6.79a1.007,1.007,0,0,1,0,2.014Z" transform="translate(-218.734 -4381.201)" fill="#ffe7c9"/>
          <path id="Trazado_110998" data-name="Trazado 110998" d="M266.16,4385.226a1.007,1.007,0,0,1-.713-1.72l4.8-4.8a1.007,1.007,0,0,1,1.424,1.424l-4.8,4.8A1.006,1.006,0,0,1,266.16,4385.226Z" transform="translate(-214.718 -4368.933)" fill="#ffe7c9"/>
        </g>
        <path id="Trazado_110999" data-name="Trazado 110999" d="M235.422,4457.368s-6.584,1.211-7.117.973v1.713a4.02,4.02,0,0,0,4.028,4.028h1.746a4.03,4.03,0,0,1-3.8-2.681.4.4,0,0,1,.378-.542h10.133a4.277,4.277,0,0,0,1.722-.358,4.059,4.059,0,0,0,.024-.447v-1.713C242.006,4458.58,235.422,4457.368,235.422,4457.368Z" transform="translate(-201.857 -4396.493)" fill="#02596d"/>
        <path id="Trazado_111000" data-name="Trazado 111000" d="M243.682,4448.654a4.3,4.3,0,0,1-4.3,4.3H228.643a4.3,4.3,0,0,1-4.3-4.3s-.063-6.277-.075-6.441v-.005l9.744-1.343,9.632,1.343Z" transform="translate(-200.449 -4390.733)" fill="#68d0e8"/>
        <path id="Trazado_111001" data-name="Trazado 111001" d="M232,4453.671h-3.357a4.295,4.295,0,0,1-4.3-4.3s-.063-6.276-.075-6.44v-.005h3.357v.005c.012.164.076,6.44.076,6.44a4.294,4.294,0,0,0,4.3,4.3Z" transform="translate(-200.449 -4391.453)" fill="#02596d"/>
        <path id="Trazado_111002" data-name="Trazado 111002" d="M251.714,4451.646H248.29a1.007,1.007,0,0,1,0-2.014H251.7l.005,1.007Z" transform="translate(-208.481 -4393.792)" fill="#02596d"/>
        <path id="Trazado_111003" data-name="Trazado 111003" d="M236.592,4450.639a1.007,1.007,0,0,1-1.007,1.007H224.371l-.023-2.014h11.237A1.008,1.008,0,0,1,236.592,4450.639Z" transform="translate(-200.476 -4393.792)" fill="#02596d"/>
        <path id="Trazado_111004" data-name="Trazado 111004" d="M228.816,4382.52h0c-10.37-.159-19.092,8.88-18.906,19.175a19.262,19.262,0,0,0,5.451,13.476c1.985,2.042,3.7,3.931,3.9,6.673l19.376.031c.109-2.822,1.713-4.729,3.713-6.817a19.261,19.261,0,0,0,5.342-13.362,19.034,19.034,0,0,0-18.871-19.175Z" transform="translate(-195.436 -4370.367)" fill="#fad207"/>
        <path id="Trazado_111005" data-name="Trazado 111005" d="M238.633,4421.869v0l-19.376-.031c-.191-2.742-1.91-4.631-3.9-6.673a19.264,19.264,0,0,1-5.45-13.476c-.187-10.295,8.535-19.334,18.906-19.175.524,0,1.042.023,1.555.065a19.276,19.276,0,0,0-11.653,32.585c1.986,2.042,3.705,3.931,3.9,6.673Z" transform="translate(-195.436 -4370.367)" fill="#faa515"/>
        <path id="Trazado_111006" data-name="Trazado 111006" d="M234.147,4418.684a2.216,2.216,0,0,1-1.667.855H232.4a2.22,2.22,0,0,1-1.644-.73l-6.311-6.983a2.216,2.216,0,0,1,3.288-2.971l4.538,5.021,7.241-9.326a2.216,2.216,0,1,1,3.5,2.718Z" transform="translate(-200.309 -4377.759)" fill="#faa515"/>
      </g>
      <g id="Grupo_61677" data-name="Grupo 61677" transform="translate(0 0)">
        <path id="Trazado_111007" data-name="Trazado 111007" d="M238.388,4372.656a1.007,1.007,0,0,0,1.008-1.007v-6.791a1.007,1.007,0,0,0-2.015,0v6.791a1.007,1.007,0,0,0,1.007,1.007Z" transform="translate(-205.025 -4363.852)" fill="#453d7a"/>
        <path id="Trazado_111008" data-name="Trazado 111008" d="M207.33,4384.931a1.007,1.007,0,0,0,1.424-1.424l-4.8-4.8a1.007,1.007,0,0,0-1.425,1.424Z" transform="translate(-192.757 -4368.934)" fill="#453d7a"/>
        <path id="Trazado_111009" data-name="Trazado 111009" d="M195.473,4413.557h-6.79a1.007,1.007,0,0,0,0,2.014h6.79a1.007,1.007,0,0,0,0-2.014Z" transform="translate(-187.676 -4381.201)" fill="#453d7a"/>
        <path id="Trazado_111010" data-name="Trazado 111010" d="M207.33,4441.623l-4.8,4.8a1.007,1.007,0,0,0,1.425,1.424l4.8-4.8a1.007,1.007,0,0,0-1.424-1.425Z" transform="translate(-192.757 -4390.895)" fill="#453d7a"/>
        <path id="Trazado_111011" data-name="Trazado 111011" d="M266.872,4441.623a1.007,1.007,0,0,0-1.424,1.425l4.8,4.8a1.007,1.007,0,0,0,1.424-1.424Z" transform="translate(-214.718 -4390.894)" fill="#453d7a"/>
        <path id="Trazado_111012" data-name="Trazado 111012" d="M284.453,4413.557h-6.79a1.007,1.007,0,0,0,0,2.014h6.79a1.007,1.007,0,0,0,0-2.014Z" transform="translate(-218.734 -4381.201)" fill="#453d7a"/>
        <path id="Trazado_111013" data-name="Trazado 111013" d="M270.248,4378.7l-4.8,4.8a1.007,1.007,0,0,0,1.424,1.425l4.8-4.8a1.007,1.007,0,0,0-1.424-1.424Z" transform="translate(-214.718 -4368.933)" fill="#453d7a"/>
        <path id="Trazado_111014" data-name="Trazado 111014" d="M248.156,4401.156a20.063,20.063,0,0,0-19.9-20.182,19.619,19.619,0,0,0-10.786,3.22,20.135,20.135,0,0,0-7.207,8.339,1.007,1.007,0,0,0,1.825.852,17.84,17.84,0,0,1,34.05,7.771,18.222,18.222,0,0,1-5.063,12.667c-1.881,1.965-3.483,3.843-3.9,6.474H219.6c-.519-2.731-2.383-4.647-4.057-6.368a18.21,18.21,0,0,1-5.165-12.772,18.625,18.625,0,0,1,.338-3.533,1.007,1.007,0,0,0-1.978-.384,20.625,20.625,0,0,0-.374,3.917,20.21,20.21,0,0,0,5.736,14.177c2.124,2.183,3.628,3.925,3.628,6.479v.027l.057,5.911a5.306,5.306,0,0,0,2.552,4.532v1.108a5.041,5.041,0,0,0,5.036,5.035h6.177a5.041,5.041,0,0,0,5.035-5.035v-1.108a5.3,5.3,0,0,0,2.552-4.532s-.007-6.584-.021-6.649c.191-2.334,1.606-3.993,3.418-5.885a20.23,20.23,0,0,0,5.622-14.06Zm-13.584,32.234a3.024,3.024,0,0,1-3.022,3.021h-6.177a3.024,3.024,0,0,1-3.021-3.021V4433a5.338,5.338,0,0,0,.739.053h10.742a5.345,5.345,0,0,0,.739-.053Zm-.739-2.351H223.091a3.293,3.293,0,0,1-3.29-3.29v-.068h10.205a1.007,1.007,0,0,0,0-2.014H219.8v-3.357h17.291l.031,3.357h-2.417a1.007,1.007,0,0,0,0,2.014h2.417v.068A3.293,3.293,0,0,1,233.833,4431.039Z" transform="translate(-194.897 -4369.828)" fill="#453d7a"/>
        <path id="Trazado_111015" data-name="Trazado 111015" d="M239.68,4408.679a1.007,1.007,0,0,0,1.591,1.235l1.994-2.567a3.223,3.223,0,1,0-5.091-3.953l-6.5,8.377-3.733-4.13a3.223,3.223,0,0,0-4.782,4.323l6.312,6.982a3.243,3.243,0,0,0,4.936-.185l3.986-5.133a1.007,1.007,0,1,0-1.59-1.236l-3.986,5.134a1.217,1.217,0,0,1-1.851.069l-6.311-6.983a1.209,1.209,0,0,1,1.793-1.621l4.538,5.022a1.015,1.015,0,0,0,1.543-.058l7.241-9.326a1.209,1.209,0,0,1,1.909,1.483Z" transform="translate(-199.769 -4377.218)" fill="#453d7a"/>
      </g>
    </g>
  </g>
</svg>
