<svg xmlns="http://www.w3.org/2000/svg" xmlns:xlink="http://www.w3.org/1999/xlink" width="1030" height="571.361" viewBox="0 0 1030 571.361">
  <defs>
    <linearGradient id="linear-gradient" x1="11.245" y1="-5.338" x2="10.166" y2="-4.114" gradientUnits="objectBoundingBox">
      <stop offset="0" stop-color="#f8ea43"/>
      <stop offset="0.08" stop-color="#f8eb49"/>
      <stop offset="0.37" stop-color="#f9ec59"/>
      <stop offset="0.6" stop-color="#f9ed5e"/>
      <stop offset="0.72" stop-color="#efe34b"/>
      <stop offset="0.83" stop-color="#e9dc3f"/>
    </linearGradient>
    <linearGradient id="linear-gradient-2" x1="11.422" y1="-5.386" x2="10.343" y2="-4.163" xlink:href="#linear-gradient"/>
    <linearGradient id="linear-gradient-3" x1="11.515" y1="-5.435" x2="10.436" y2="-4.211" xlink:href="#linear-gradient"/>
    <linearGradient id="linear-gradient-4" x1="11.58" y1="-5.384" x2="10.501" y2="-4.16" xlink:href="#linear-gradient"/>
    <linearGradient id="linear-gradient-5" x1="-5.321" y1="2.724" x2="-6.424" y2="3.979" gradientUnits="objectBoundingBox">
      <stop offset="0" stop-color="#68c3ef"/>
      <stop offset="0.02" stop-color="#6bc4ef"/>
      <stop offset="0.24" stop-color="#85cff2"/>
      <stop offset="0.44" stop-color="#95d5f4"/>
      <stop offset="0.6" stop-color="#9ad7f5"/>
      <stop offset="0.62" stop-color="#94d5f4"/>
      <stop offset="0.75" stop-color="#74c8f0"/>
      <stop offset="0.82" stop-color="#68c3ef"/>
    </linearGradient>
    <linearGradient id="linear-gradient-6" x1="-5.411" y1="2.631" x2="-6.514" y2="3.885" xlink:href="#linear-gradient-5"/>
    <linearGradient id="linear-gradient-7" x1="9.592" y1="-4.718" x2="8.691" y2="-3.653" xlink:href="#linear-gradient"/>
    <linearGradient id="linear-gradient-8" x1="-5.404" y1="2.723" x2="-6.507" y2="3.977" xlink:href="#linear-gradient-5"/>
    <linearGradient id="linear-gradient-9" x1="11.493" y1="-5.723" x2="10.413" y2="-4.5" xlink:href="#linear-gradient"/>
    <linearGradient id="linear-gradient-10" x1="11.218" y1="-5.972" x2="10.139" y2="-4.748" xlink:href="#linear-gradient"/>
    <linearGradient id="linear-gradient-11" x1="11.405" y1="-5.962" x2="10.326" y2="-4.738" xlink:href="#linear-gradient"/>
    <linearGradient id="linear-gradient-12" x1="-5.45" y1="2.793" x2="-6.553" y2="4.046" xlink:href="#linear-gradient-5"/>
    <linearGradient id="linear-gradient-13" x1="-5.325" y1="2.67" x2="-6.427" y2="3.924" xlink:href="#linear-gradient-5"/>
    <linearGradient id="linear-gradient-14" x1="1.324" y1="-0.254" x2="0.201" y2="1.013" gradientUnits="objectBoundingBox">
      <stop offset="0" stop-color="#e6a339"/>
      <stop offset="0.6" stop-color="#e5a138"/>
      <stop offset="0.82" stop-color="#de972c"/>
    </linearGradient>
    <linearGradient id="linear-gradient-15" x1="1.328" y1="-0.253" x2="0.205" y2="1.014" xlink:href="#linear-gradient-14"/>
    <linearGradient id="linear-gradient-16" x1="-11.783" y1="5.512" x2="-12.843" y2="6.743" gradientUnits="objectBoundingBox">
      <stop offset="0" stop-color="#4480c0"/>
      <stop offset="0.23" stop-color="#5e8cc7"/>
      <stop offset="0.44" stop-color="#6e93cb"/>
      <stop offset="0.6" stop-color="#7396cc"/>
      <stop offset="0.61" stop-color="#7095cb"/>
      <stop offset="0.75" stop-color="#5086c3"/>
      <stop offset="0.82" stop-color="#4480c0"/>
    </linearGradient>
    <linearGradient id="linear-gradient-17" x1="9.687" y1="-5.277" x2="8.599" y2="-4.043" gradientUnits="objectBoundingBox">
      <stop offset="0" stop-color="#36dbca"/>
      <stop offset="0.06" stop-color="#3edccc"/>
      <stop offset="0.26" stop-color="#58dfd1"/>
      <stop offset="0.45" stop-color="#68e0d4"/>
      <stop offset="0.6" stop-color="#6de1d5"/>
      <stop offset="0.64" stop-color="#62e0d3"/>
      <stop offset="0.76" stop-color="#42dccc"/>
      <stop offset="0.83" stop-color="#36dbca"/>
    </linearGradient>
    <linearGradient id="linear-gradient-18" x1="9.777" y1="-5.078" x2="8.688" y2="-3.844" xlink:href="#linear-gradient-17"/>
    <linearGradient id="linear-gradient-19" x1="9.921" y1="-4.847" x2="8.833" y2="-3.614" xlink:href="#linear-gradient-17"/>
    <linearGradient id="linear-gradient-20" x1="9.858" y1="-4.712" x2="8.77" y2="-3.479" xlink:href="#linear-gradient-17"/>
    <linearGradient id="linear-gradient-21" x1="11.591" y1="-5.223" x2="10.514" y2="-4.001" gradientUnits="objectBoundingBox">
      <stop offset="0" stop-color="#9ad3ea"/>
      <stop offset="0.08" stop-color="#a0d8ee"/>
      <stop offset="0.37" stop-color="#b0e4f9"/>
      <stop offset="0.6" stop-color="#b5e8fd"/>
      <stop offset="0.72" stop-color="#a1d7ed"/>
      <stop offset="0.82" stop-color="#95cce3"/>
    </linearGradient>
    <linearGradient id="linear-gradient-22" x1="11.491" y1="-5.408" x2="10.414" y2="-4.187" xlink:href="#linear-gradient-21"/>
    <linearGradient id="linear-gradient-23" x1="11.738" y1="-5.955" x2="10.661" y2="-4.732" xlink:href="#linear-gradient-21"/>
    <linearGradient id="linear-gradient-24" x1="11.849" y1="-5.19" x2="10.771" y2="-3.968" xlink:href="#linear-gradient-21"/>
    <linearGradient id="linear-gradient-25" x1="11.226" y1="-5.708" x2="10.146" y2="-4.485" xlink:href="#linear-gradient"/>
    <linearGradient id="linear-gradient-26" x1="11.481" y1="-5.526" x2="10.403" y2="-4.304" xlink:href="#linear-gradient-21"/>
    <linearGradient id="linear-gradient-27" x1="11.593" y1="-5.278" x2="10.516" y2="-4.056" xlink:href="#linear-gradient-21"/>
  </defs>
  <g id="Grupo_1072229" data-name="Grupo 1072229" transform="translate(-285 -6268.738)">
    <path id="Trazado_818297" data-name="Trazado 818297" d="M0,0H1030V571.361H0Z" transform="translate(285 6268.738)" fill="#276871"/>
    <path id="Trazado_818298" data-name="Trazado 818298" d="M9.333-5.873H3.989v3.637h6.271V0H1.206V-13.508h9.036v2.254H3.989v3.219H9.333Zm5.223-4.166V.547a3.591,3.591,0,0,1-.881,2.584,3.35,3.35,0,0,1-2.542.923A5.452,5.452,0,0,1,9.806,3.9V1.772a5.033,5.033,0,0,0,.844.083q1.215,0,1.215-1.29v-10.6Zm-2.9-2.6a1.32,1.32,0,0,1,.4-.993,1.516,1.516,0,0,1,1.1-.39,1.516,1.516,0,0,1,1.1.39,1.32,1.32,0,0,1,.4.993,1.316,1.316,0,0,1-.413,1,1.523,1.523,0,0,1-1.09.39,1.523,1.523,0,0,1-1.09-.39A1.316,1.316,0,0,1,11.652-12.636ZM21.273.186a4.928,4.928,0,0,1-3.595-1.354,4.815,4.815,0,0,1-1.387-3.609v-.26a6.064,6.064,0,0,1,.584-2.7,4.289,4.289,0,0,1,1.656-1.837,4.648,4.648,0,0,1,2.445-.645,4.166,4.166,0,0,1,3.242,1.3A5.278,5.278,0,0,1,25.4-5.242v1.095H19.009a2.491,2.491,0,0,0,.784,1.577,2.37,2.37,0,0,0,1.656.594A2.894,2.894,0,0,0,23.871-3.1l1.317,1.475A4.025,4.025,0,0,1,23.555-.292,5.357,5.357,0,0,1,21.273.186Zm-.306-8.248a1.675,1.675,0,0,0-1.294.54,2.8,2.8,0,0,0-.635,1.547h3.729v-.214a2,2,0,0,0-.482-1.384A1.729,1.729,0,0,0,20.967-8.062Zm8.47-1.976.083,1.123a3.528,3.528,0,0,1,2.885-1.308,2.677,2.677,0,0,1,2.663,1.531,3.447,3.447,0,0,1,3.015-1.531,2.994,2.994,0,0,1,2.431.951,4.371,4.371,0,0,1,.8,2.862V0h-2.69V-6.416a1.919,1.919,0,0,0-.334-1.251,1.478,1.478,0,0,0-1.178-.4,1.674,1.674,0,0,0-1.67,1.153L35.449,0H32.768V-6.407a1.9,1.9,0,0,0-.343-1.265,1.493,1.493,0,0,0-1.169-.391,1.737,1.737,0,0,0-1.651.948V0H26.923V-10.038ZM52.408-4.926a6.02,6.02,0,0,1-1.053,3.716,3.376,3.376,0,0,1-2.844,1.4A3.127,3.127,0,0,1,46.053-.872V3.859H43.372v-13.9h2.486l.093.983a3.151,3.151,0,0,1,2.542-1.169,3.4,3.4,0,0,1,2.885,1.373,6.183,6.183,0,0,1,1.03,3.785Zm-2.681-.2a3.972,3.972,0,0,0-.5-2.168,1.615,1.615,0,0,0-1.443-.763,1.755,1.755,0,0,0-1.735.968v4.122a1.785,1.785,0,0,0,1.753,1Q49.727-1.976,49.727-5.131ZM56.9,0h-2.69V-14.25H56.9Zm1.791-5.112a5.953,5.953,0,0,1,.575-2.663A4.211,4.211,0,0,1,60.92-9.583a4.831,4.831,0,0,1,2.51-.64A4.571,4.571,0,0,1,66.746-8.98,4.989,4.989,0,0,1,68.179-5.6l.019.687a5.247,5.247,0,0,1-1.29,3.706,4.482,4.482,0,0,1-3.46,1.4,4.5,4.5,0,0,1-3.465-1.392,5.339,5.339,0,0,1-1.294-3.785Zm2.681.19a3.752,3.752,0,0,0,.538,2.188,1.775,1.775,0,0,0,1.54.757,1.779,1.779,0,0,0,1.521-.748,4.106,4.106,0,0,0,.547-2.393,3.715,3.715,0,0,0-.547-2.174,1.779,1.779,0,0,0-1.54-.771,1.75,1.75,0,0,0-1.521.767A4.175,4.175,0,0,0,61.37-4.921Zm12.793-.172a6.049,6.049,0,0,1,1.053-3.739A3.417,3.417,0,0,1,78.1-10.224a3.074,3.074,0,0,1,2.421,1.095V-14.25h2.69V0H80.787l-.13-1.067A3.155,3.155,0,0,1,78.078.186a3.407,3.407,0,0,1-2.844-1.4A6.244,6.244,0,0,1,74.163-5.093Zm2.681.191a3.984,3.984,0,0,0,.492,2.171,1.6,1.6,0,0,0,1.429.755,1.793,1.793,0,0,0,1.753-1.053v-3.98a1.768,1.768,0,0,0-1.735-1.053Q76.844-8.062,76.844-4.9ZM89.907.186a4.928,4.928,0,0,1-3.595-1.354,4.815,4.815,0,0,1-1.387-3.609v-.26a6.064,6.064,0,0,1,.584-2.7,4.289,4.289,0,0,1,1.656-1.837,4.648,4.648,0,0,1,2.445-.645,4.166,4.166,0,0,1,3.242,1.3,5.278,5.278,0,0,1,1.183,3.683v1.095H87.643a2.491,2.491,0,0,0,.784,1.577,2.37,2.37,0,0,0,1.656.594A2.894,2.894,0,0,0,92.5-3.1l1.317,1.475A4.025,4.025,0,0,1,92.189-.292,5.357,5.357,0,0,1,89.907.186ZM89.6-8.062a1.675,1.675,0,0,0-1.294.54,2.8,2.8,0,0,0-.635,1.547H91.4v-.214a2,2,0,0,0-.482-1.384A1.729,1.729,0,0,0,89.6-8.062Zm13.9-4.444v2.468h1.716v1.967H103.5v5.01a1.2,1.2,0,0,0,.213.8,1.072,1.072,0,0,0,.816.241,4.276,4.276,0,0,0,.789-.065V-.056a5.52,5.52,0,0,1-1.624.241,2.56,2.56,0,0,1-2.876-2.848V-8.071H99.351v-1.967h1.466v-2.468ZM112.525,0a2.977,2.977,0,0,1-.269-.9A3.244,3.244,0,0,1,109.723.186a3.564,3.564,0,0,1-2.445-.854,2.745,2.745,0,0,1-.969-2.152,2.837,2.837,0,0,1,1.183-2.449,5.837,5.837,0,0,1,3.419-.863h1.234v-.575a1.654,1.654,0,0,0-.357-1.113,1.405,1.405,0,0,0-1.127-.417,1.6,1.6,0,0,0-1.062.325,1.1,1.1,0,0,0-.385.891h-2.681a2.693,2.693,0,0,1,.538-1.614A3.557,3.557,0,0,1,108.591-9.8a5.545,5.545,0,0,1,2.208-.422,4.381,4.381,0,0,1,2.946.932,3.262,3.262,0,0,1,1.09,2.621v4.351a4.8,4.8,0,0,0,.4,2.162V0Zm-2.217-1.865a2.309,2.309,0,0,0,1.095-.264,1.737,1.737,0,0,0,.742-.71V-4.564h-1q-2.013,0-2.143,1.392l-.009.158a1.073,1.073,0,0,0,.353.826A1.369,1.369,0,0,0,110.308-1.865ZM125.94-4.926a6.078,6.078,0,0,1-1.03,3.762,3.411,3.411,0,0,1-2.876,1.35,3.134,3.134,0,0,1-2.607-1.252L119.307,0h-2.412V-14.25h2.681v5.112a3.054,3.054,0,0,1,2.44-1.085,3.439,3.439,0,0,1,2.881,1.35,6.087,6.087,0,0,1,1.044,3.8Zm-2.681-.2a4.015,4.015,0,0,0-.482-2.229,1.63,1.63,0,0,0-1.438-.7,1.768,1.768,0,0,0-1.763,1.052v3.974a1.792,1.792,0,0,0,1.781,1.061,1.656,1.656,0,0,0,1.707-1.284A6.644,6.644,0,0,0,123.259-5.131ZM130.421,0h-2.69V-14.25h2.69Zm6.828.186a4.928,4.928,0,0,1-3.595-1.354,4.815,4.815,0,0,1-1.387-3.609v-.26a6.064,6.064,0,0,1,.584-2.7,4.289,4.289,0,0,1,1.656-1.837,4.648,4.648,0,0,1,2.445-.645,4.166,4.166,0,0,1,3.242,1.3,5.278,5.278,0,0,1,1.183,3.683v1.095h-6.392a2.491,2.491,0,0,0,.784,1.577,2.37,2.37,0,0,0,1.656.594A2.894,2.894,0,0,0,139.847-3.1l1.317,1.475a4.025,4.025,0,0,1-1.633,1.331A5.357,5.357,0,0,1,137.249.186Zm-.306-8.248a1.675,1.675,0,0,0-1.294.54,2.8,2.8,0,0,0-.635,1.547h3.729v-.214a2,2,0,0,0-.482-1.384A1.729,1.729,0,0,0,136.943-8.062Zm11.6.538a7.284,7.284,0,0,0-.965-.074,1.964,1.964,0,0,0-1.995,1.03V0H142.9V-10.038h2.533l.074,1.2a2.484,2.484,0,0,1,2.236-1.382,2.809,2.809,0,0,1,.835.121Zm.158,2.412a5.953,5.953,0,0,1,.575-2.663,4.211,4.211,0,0,1,1.656-1.809,4.831,4.831,0,0,1,2.51-.64,4.571,4.571,0,0,1,3.317,1.243A4.989,4.989,0,0,1,158.188-5.6l.019.687a5.247,5.247,0,0,1-1.29,3.706,4.482,4.482,0,0,1-3.46,1.4,4.5,4.5,0,0,1-3.465-1.392A5.339,5.339,0,0,1,148.7-4.991Zm2.681.19a3.752,3.752,0,0,0,.538,2.188,1.775,1.775,0,0,0,1.54.757,1.779,1.779,0,0,0,1.521-.748,4.106,4.106,0,0,0,.547-2.393,3.715,3.715,0,0,0-.547-2.174,1.779,1.779,0,0,0-1.54-.771,1.75,1.75,0,0,0-1.521.767A4.175,4.175,0,0,0,151.379-4.921Zm12.793-.172a6.049,6.049,0,0,1,1.053-3.739,3.417,3.417,0,0,1,2.881-1.392,3.074,3.074,0,0,1,2.421,1.095V-14.25h2.69V0H170.8l-.13-1.067A3.155,3.155,0,0,1,168.087.186a3.407,3.407,0,0,1-2.844-1.4A6.244,6.244,0,0,1,164.172-5.093Zm2.681.191a3.984,3.984,0,0,0,.492,2.171,1.6,1.6,0,0,0,1.429.755,1.793,1.793,0,0,0,1.753-1.053v-3.98a1.768,1.768,0,0,0-1.735-1.053Q166.853-8.062,166.853-4.9ZM179.916.186a4.928,4.928,0,0,1-3.595-1.354,4.815,4.815,0,0,1-1.387-3.609v-.26a6.064,6.064,0,0,1,.584-2.7,4.289,4.289,0,0,1,1.656-1.837,4.648,4.648,0,0,1,2.445-.645,4.166,4.166,0,0,1,3.242,1.3,5.278,5.278,0,0,1,1.183,3.683v1.095h-6.392a2.491,2.491,0,0,0,.784,1.577,2.37,2.37,0,0,0,1.656.594A2.894,2.894,0,0,0,182.514-3.1l1.317,1.475A4.025,4.025,0,0,1,182.2-.292,5.357,5.357,0,0,1,179.916.186Zm-.306-8.248a1.675,1.675,0,0,0-1.294.54,2.8,2.8,0,0,0-.635,1.547h3.729v-.214a2,2,0,0,0-.482-1.384A1.729,1.729,0,0,0,179.61-8.062Zm13.9-4.444v2.468h1.716v1.967h-1.716v5.01a1.2,1.2,0,0,0,.213.8,1.072,1.072,0,0,0,.816.241,4.276,4.276,0,0,0,.789-.065V-.056A5.519,5.519,0,0,1,193.7.186a2.56,2.56,0,0,1-2.876-2.848V-8.071H189.36v-1.967h1.466v-2.468ZM202.534,0a2.977,2.977,0,0,1-.269-.9A3.244,3.244,0,0,1,199.732.186a3.564,3.564,0,0,1-2.445-.854,2.745,2.745,0,0,1-.969-2.152A2.837,2.837,0,0,1,197.5-5.27a5.837,5.837,0,0,1,3.419-.863h1.234v-.575a1.654,1.654,0,0,0-.357-1.113,1.405,1.405,0,0,0-1.127-.417,1.6,1.6,0,0,0-1.062.325,1.1,1.1,0,0,0-.385.891h-2.681a2.693,2.693,0,0,1,.538-1.614A3.557,3.557,0,0,1,198.6-9.8a5.545,5.545,0,0,1,2.208-.422,4.381,4.381,0,0,1,2.946.932,3.262,3.262,0,0,1,1.09,2.621v4.351a4.8,4.8,0,0,0,.4,2.162V0Zm-2.217-1.865a2.309,2.309,0,0,0,1.095-.264,1.737,1.737,0,0,0,.742-.71V-4.564h-1q-2.013,0-2.143,1.392L199-3.015a1.073,1.073,0,0,0,.353.826A1.369,1.369,0,0,0,200.317-1.865Zm12.228-5.659a7.284,7.284,0,0,0-.965-.074,1.964,1.964,0,0,0-1.995,1.03V0H206.9V-10.038h2.533l.074,1.2a2.484,2.484,0,0,1,2.236-1.382,2.809,2.809,0,0,1,.835.121ZM218.088.186a4.928,4.928,0,0,1-3.595-1.354,4.815,4.815,0,0,1-1.387-3.609v-.26a6.064,6.064,0,0,1,.584-2.7,4.289,4.289,0,0,1,1.656-1.837,4.648,4.648,0,0,1,2.445-.645,4.166,4.166,0,0,1,3.242,1.3,5.278,5.278,0,0,1,1.183,3.683v1.095h-6.392a2.491,2.491,0,0,0,.784,1.577,2.37,2.37,0,0,0,1.656.594A2.894,2.894,0,0,0,220.685-3.1L222-1.624A4.025,4.025,0,0,1,220.37-.292,5.357,5.357,0,0,1,218.088.186Zm-.306-8.248a1.675,1.675,0,0,0-1.294.54,2.8,2.8,0,0,0-.635,1.547h3.729v-.214a2,2,0,0,0-.482-1.384A1.729,1.729,0,0,0,217.782-8.062ZM229.555,0a2.977,2.977,0,0,1-.269-.9A3.244,3.244,0,0,1,226.753.186a3.564,3.564,0,0,1-2.445-.854,2.745,2.745,0,0,1-.969-2.152,2.837,2.837,0,0,1,1.183-2.449,5.837,5.837,0,0,1,3.419-.863h1.234v-.575a1.654,1.654,0,0,0-.357-1.113,1.405,1.405,0,0,0-1.127-.417,1.6,1.6,0,0,0-1.062.325,1.1,1.1,0,0,0-.385.891h-2.681a2.693,2.693,0,0,1,.538-1.614A3.557,3.557,0,0,1,225.621-9.8a5.545,5.545,0,0,1,2.208-.422,4.381,4.381,0,0,1,2.946.932,3.262,3.262,0,0,1,1.09,2.621v4.351a4.8,4.8,0,0,0,.4,2.162V0Zm-2.217-1.865a2.309,2.309,0,0,0,1.095-.264,1.737,1.737,0,0,0,.742-.71V-4.564h-1q-2.013,0-2.143,1.392l-.009.158a1.073,1.073,0,0,0,.353.826A1.369,1.369,0,0,0,227.337-1.865Zm12.023-.909a.864.864,0,0,0-.487-.775,5.533,5.533,0,0,0-1.563-.506q-3.581-.751-3.581-3.043a2.758,2.758,0,0,1,1.109-2.231,4.472,4.472,0,0,1,2.9-.9,4.813,4.813,0,0,1,3.057.9,2.836,2.836,0,0,1,1.146,2.338h-2.681a1.3,1.3,0,0,0-.371-.951,1.57,1.57,0,0,0-1.16-.376,1.6,1.6,0,0,0-1.048.306.966.966,0,0,0-.371.779.826.826,0,0,0,.422.719,4.343,4.343,0,0,0,1.424.473,11.632,11.632,0,0,1,1.688.45,2.774,2.774,0,0,1,2.125,2.7,2.618,2.618,0,0,1-1.178,2.222,5.083,5.083,0,0,1-3.043.849,5.309,5.309,0,0,1-2.24-.45A3.759,3.759,0,0,1,233.971-1.5a2.867,2.867,0,0,1-.557-1.693h2.542a1.4,1.4,0,0,0,.529,1.095,2.1,2.1,0,0,0,1.317.38,1.941,1.941,0,0,0,1.164-.292A.909.909,0,0,0,239.361-2.774Zm8.646-2.319a6.049,6.049,0,0,1,1.053-3.739,3.417,3.417,0,0,1,2.881-1.392,3.074,3.074,0,0,1,2.421,1.095V-14.25h2.69V0h-2.421l-.13-1.067A3.155,3.155,0,0,1,251.922.186a3.407,3.407,0,0,1-2.844-1.4A6.244,6.244,0,0,1,248.007-5.093Zm2.681.191a3.984,3.984,0,0,0,.492,2.171,1.6,1.6,0,0,0,1.429.755,1.793,1.793,0,0,0,1.753-1.053v-3.98a1.768,1.768,0,0,0-1.735-1.053Q250.688-8.062,250.688-4.9ZM263.751.186a4.928,4.928,0,0,1-3.595-1.354,4.815,4.815,0,0,1-1.387-3.609v-.26a6.064,6.064,0,0,1,.584-2.7,4.289,4.289,0,0,1,1.656-1.837,4.648,4.648,0,0,1,2.445-.645,4.166,4.166,0,0,1,3.242,1.3,5.278,5.278,0,0,1,1.183,3.683v1.095h-6.392a2.491,2.491,0,0,0,.784,1.577,2.37,2.37,0,0,0,1.656.594A2.894,2.894,0,0,0,266.348-3.1l1.317,1.475a4.025,4.025,0,0,1-1.633,1.331A5.357,5.357,0,0,1,263.751.186Zm-.306-8.248a1.675,1.675,0,0,0-1.294.54,2.8,2.8,0,0,0-.635,1.547h3.729v-.214a2,2,0,0,0-.482-1.384A1.729,1.729,0,0,0,263.445-8.062Zm17.868,4.518a1.428,1.428,0,0,0-.557-1.211,7.3,7.3,0,0,0-2-.891,14.206,14.206,0,0,1-2.292-.923,3.744,3.744,0,0,1-2.3-3.349,3.262,3.262,0,0,1,.617-1.953,4.024,4.024,0,0,1,1.772-1.341,6.67,6.67,0,0,1,2.593-.482,6.071,6.071,0,0,1,2.579.524,4.107,4.107,0,0,1,1.758,1.48,3.872,3.872,0,0,1,.626,2.171h-2.783a1.821,1.821,0,0,0-.584-1.443,2.4,2.4,0,0,0-1.642-.515,2.567,2.567,0,0,0-1.586.431,1.361,1.361,0,0,0-.566,1.136,1.3,1.3,0,0,0,.663,1.1,7.494,7.494,0,0,0,1.953.835A8.438,8.438,0,0,1,283.02-6.2a3.529,3.529,0,0,1,1.085,2.635,3.251,3.251,0,0,1-1.327,2.751,5.808,5.808,0,0,1-3.572,1,6.9,6.9,0,0,1-2.839-.571,4.492,4.492,0,0,1-1.953-1.563,4,4,0,0,1-.673-2.3h2.792q0,2.236,2.672,2.236a2.6,2.6,0,0,0,1.549-.4A1.313,1.313,0,0,0,281.313-3.544Zm8.674,1.568a1.759,1.759,0,0,0,1.206-.408,1.43,1.43,0,0,0,.482-1.085h2.514a3.439,3.439,0,0,1-.557,1.869,3.673,3.673,0,0,1-1.5,1.317,4.689,4.689,0,0,1-2.1.469,4.358,4.358,0,0,1-3.4-1.368,5.415,5.415,0,0,1-1.243-3.781V-5.14a5.353,5.353,0,0,1,1.234-3.7,4.307,4.307,0,0,1,3.386-1.382,4.222,4.222,0,0,1,3.02,1.072A3.794,3.794,0,0,1,294.19-6.3h-2.514a1.842,1.842,0,0,0-.482-1.273,1.608,1.608,0,0,0-1.225-.49,1.615,1.615,0,0,0-1.415.683,3.958,3.958,0,0,0-.478,2.216v.279a4.008,4.008,0,0,0,.473,2.23A1.635,1.635,0,0,0,289.987-1.976Zm11.374-5.548A7.284,7.284,0,0,0,300.4-7.6a1.964,1.964,0,0,0-1.995,1.03V0h-2.681V-10.038h2.533l.074,1.2a2.484,2.484,0,0,1,2.236-1.382,2.809,2.809,0,0,1,.835.121Zm7.3,6.5A3.362,3.362,0,0,1,305.916.186a3.171,3.171,0,0,1-2.463-.928,3.96,3.96,0,0,1-.867-2.718v-6.578h2.681v6.492q0,1.57,1.429,1.57a1.936,1.936,0,0,0,1.874-.947v-7.115h2.69V0h-2.523Zm7.134-9.018.083,1.123a3.528,3.528,0,0,1,2.885-1.308,2.677,2.677,0,0,1,2.663,1.531,3.447,3.447,0,0,1,3.015-1.531,2.994,2.994,0,0,1,2.431.951,4.371,4.371,0,0,1,.8,2.862V0h-2.69V-6.416a1.919,1.919,0,0,0-.334-1.251,1.478,1.478,0,0,0-1.178-.4,1.674,1.674,0,0,0-1.67,1.153L321.808,0h-2.681V-6.407a1.9,1.9,0,0,0-.343-1.265,1.493,1.493,0,0,0-1.169-.391,1.737,1.737,0,0,0-1.651.948V0h-2.681V-10.038Z" transform="translate(604.965 6300.999)" fill="#fff"/>
    <path id="Trazado_818299" data-name="Trazado 818299" d="M7.859-4.945h-4.5v3.063H8.641V0H1.016V-11.375H8.625v1.9H3.359v2.711h4.5Zm4.086-3.508.07.977a2.951,2.951,0,0,1,2.43-1.133,2.453,2.453,0,0,1,2,.789,3.682,3.682,0,0,1,.672,2.359V0H14.859V-5.419a1.47,1.47,0,0,0-.312-1.045,1.4,1.4,0,0,0-1.039-.325,1.553,1.553,0,0,0-1.43.814V0H9.82V-8.453Zm18.477,4.3a5.07,5.07,0,0,1-.887,3.129A2.843,2.843,0,0,1,27.141.156a2.633,2.633,0,0,1-2.07-.891V3.25H22.813v-11.7h2.094l.078.828a2.654,2.654,0,0,1,2.141-.984,2.862,2.862,0,0,1,2.43,1.156,5.207,5.207,0,0,1,.867,3.188Zm-2.258-.172a3.345,3.345,0,0,0-.418-1.826,1.36,1.36,0,0,0-1.215-.643,1.478,1.478,0,0,0-1.461.815V-2.5a1.5,1.5,0,0,0,1.477.839Q28.164-1.664,28.164-4.321ZM36.57-6.336a6.134,6.134,0,0,0-.812-.062,1.654,1.654,0,0,0-1.68.867V0H31.82V-8.453h2.133l.063,1.008A2.092,2.092,0,0,1,35.9-8.609a2.366,2.366,0,0,1,.7.1ZM37.023-4.3a5.013,5.013,0,0,1,.484-2.242A3.546,3.546,0,0,1,38.9-8.07a4.069,4.069,0,0,1,2.113-.539,3.849,3.849,0,0,1,2.793,1.047,4.2,4.2,0,0,1,1.207,2.844l.016.578A4.418,4.418,0,0,1,43.945-1.02,3.775,3.775,0,0,1,41.031.156a3.793,3.793,0,0,1-2.918-1.172A4.5,4.5,0,0,1,37.023-4.2Zm2.258.16A3.16,3.16,0,0,0,39.734-2.3a1.5,1.5,0,0,0,1.3.638,1.5,1.5,0,0,0,1.281-.63,3.457,3.457,0,0,0,.461-2.015,3.128,3.128,0,0,0-.461-1.831,1.5,1.5,0,0,0-1.3-.649,1.474,1.474,0,0,0-1.281.646A3.516,3.516,0,0,0,39.281-4.144Zm6.813-.145a4.954,4.954,0,0,1,.926-3.133,3,3,0,0,1,2.5-1.187,2.631,2.631,0,0,1,2.164.953l.094-.8H53.82V-.281a3.613,3.613,0,0,1-.5,1.93A3.236,3.236,0,0,1,51.9,2.9a4.985,4.985,0,0,1-2.141.43,4.635,4.635,0,0,1-1.812-.371A3.217,3.217,0,0,1,46.609,2l1-1.375a2.645,2.645,0,0,0,2.047.945,1.936,1.936,0,0,0,1.4-.48,1.8,1.8,0,0,0,.5-1.363V-.727A2.612,2.612,0,0,1,49.5.156a2.992,2.992,0,0,1-2.465-1.191,4.953,4.953,0,0,1-.941-3.16Zm2.258.161a3.1,3.1,0,0,0,.461,1.809,1.465,1.465,0,0,0,1.266.655,1.567,1.567,0,0,0,1.477-.777V-6.012a1.563,1.563,0,0,0-1.461-.777,1.474,1.474,0,0,0-1.277.667A3.5,3.5,0,0,0,48.352-4.128ZM60.3-6.336a6.134,6.134,0,0,0-.812-.062,1.654,1.654,0,0,0-1.68.867V0H55.555V-8.453h2.133l.063,1.008a2.092,2.092,0,0,1,1.883-1.164,2.366,2.366,0,0,1,.7.1ZM65.133.156A4.15,4.15,0,0,1,62.105-.984a4.054,4.054,0,0,1-1.168-3.039v-.219A5.106,5.106,0,0,1,61.43-6.52a3.612,3.612,0,0,1,1.395-1.547,3.914,3.914,0,0,1,2.059-.543,3.508,3.508,0,0,1,2.73,1.094,4.444,4.444,0,0,1,1,3.1v.922H63.227a2.1,2.1,0,0,0,.66,1.328,2,2,0,0,0,1.395.5,2.437,2.437,0,0,0,2.039-.945L68.43-1.367A3.389,3.389,0,0,1,67.055-.246,4.511,4.511,0,0,1,65.133.156Zm-.258-6.945a1.411,1.411,0,0,0-1.09.455,2.357,2.357,0,0,0-.535,1.3h3.141v-.181a1.681,1.681,0,0,0-.406-1.165A1.456,1.456,0,0,0,64.875-6.789Zm9.594,4.453a.727.727,0,0,0-.41-.652,4.659,4.659,0,0,0-1.316-.426q-3.016-.633-3.016-2.562a2.323,2.323,0,0,1,.934-1.879A3.766,3.766,0,0,1,73.1-8.609a4.053,4.053,0,0,1,2.574.758,2.388,2.388,0,0,1,.965,1.969H74.383a1.092,1.092,0,0,0-.312-.8A1.322,1.322,0,0,0,73.094-7a1.351,1.351,0,0,0-.883.258.814.814,0,0,0-.312.656.7.7,0,0,0,.355.605,3.657,3.657,0,0,0,1.2.4,9.8,9.8,0,0,1,1.422.379A2.336,2.336,0,0,1,76.664-2.43a2.2,2.2,0,0,1-.992,1.871,4.28,4.28,0,0,1-2.562.715,4.47,4.47,0,0,1-1.887-.379A3.166,3.166,0,0,1,69.93-1.262a2.414,2.414,0,0,1-.469-1.426H71.6a1.179,1.179,0,0,0,.445.922,1.766,1.766,0,0,0,1.109.32,1.635,1.635,0,0,0,.98-.246A.766.766,0,0,0,74.469-2.336Zm3.3-1.969a5.013,5.013,0,0,1,.484-2.242A3.546,3.546,0,0,1,79.645-8.07a4.069,4.069,0,0,1,2.113-.539,3.849,3.849,0,0,1,2.793,1.047,4.2,4.2,0,0,1,1.207,2.844l.016.578A4.418,4.418,0,0,1,84.688-1.02,3.775,3.775,0,0,1,81.773.156a3.793,3.793,0,0,1-2.918-1.172A4.5,4.5,0,0,1,77.766-4.2Zm2.258.16A3.16,3.16,0,0,0,80.477-2.3a1.5,1.5,0,0,0,1.3.638,1.5,1.5,0,0,0,1.281-.63,3.457,3.457,0,0,0,.461-2.015,3.128,3.128,0,0,0-.461-1.831,1.5,1.5,0,0,0-1.3-.649,1.474,1.474,0,0,0-1.281.646A3.516,3.516,0,0,0,80.023-4.144Z" transform="translate(660.29 6353.806)" fill="#fff"/>
    <path id="Trazado_818300" data-name="Trazado 818300" d="M5.227-4.164H3.359V0H1.016V-11.375H5.242a4.778,4.778,0,0,1,3.109.9A3.1,3.1,0,0,1,9.445-7.937,3.5,3.5,0,0,1,8.941-6,3.437,3.437,0,0,1,7.414-4.758L9.875-.109V0H7.359Zm-1.867-1.9H5.25a1.936,1.936,0,0,0,1.367-.449A1.606,1.606,0,0,0,7.1-7.75a1.719,1.719,0,0,0-.457-1.266,1.9,1.9,0,0,0-1.4-.461H3.359ZM14.969.156A4.15,4.15,0,0,1,11.941-.984a4.054,4.054,0,0,1-1.168-3.039v-.219a5.106,5.106,0,0,1,.492-2.277A3.612,3.612,0,0,1,12.66-8.066a3.914,3.914,0,0,1,2.059-.543,3.508,3.508,0,0,1,2.73,1.094,4.444,4.444,0,0,1,1,3.1v.922H13.063a2.1,2.1,0,0,0,.66,1.328,2,2,0,0,0,1.395.5,2.437,2.437,0,0,0,2.039-.945l1.109,1.242A3.389,3.389,0,0,1,16.891-.246,4.511,4.511,0,0,1,14.969.156Zm-.258-6.945a1.411,1.411,0,0,0-1.09.455,2.357,2.357,0,0,0-.535,1.3h3.141v-.181a1.681,1.681,0,0,0-.406-1.165A1.456,1.456,0,0,0,14.711-6.789Zm8.078,4.031,1.57-5.7h2.359L23.867,0H21.711L18.859-8.453h2.359ZM30.094,0H27.828V-8.453h2.266ZM27.7-10.641a1.112,1.112,0,0,1,.34-.836,1.277,1.277,0,0,1,.926-.328,1.28,1.28,0,0,1,.922.328,1.105,1.105,0,0,1,.344.836,1.108,1.108,0,0,1-.348.844,1.283,1.283,0,0,1-.918.328,1.283,1.283,0,0,1-.918-.328A1.108,1.108,0,0,1,27.7-10.641Zm8.836,8.3a.727.727,0,0,0-.41-.652A4.659,4.659,0,0,0,34.8-3.414q-3.016-.633-3.016-2.562a2.323,2.323,0,0,1,.934-1.879,3.766,3.766,0,0,1,2.441-.754,4.053,4.053,0,0,1,2.574.758A2.388,2.388,0,0,1,38.7-5.883H36.445a1.092,1.092,0,0,0-.312-.8A1.322,1.322,0,0,0,35.156-7a1.351,1.351,0,0,0-.883.258.814.814,0,0,0-.312.656.7.7,0,0,0,.355.605,3.657,3.657,0,0,0,1.2.4,9.8,9.8,0,0,1,1.422.379A2.336,2.336,0,0,1,38.727-2.43a2.2,2.2,0,0,1-.992,1.871,4.28,4.28,0,0,1-2.562.715,4.47,4.47,0,0,1-1.887-.379,3.166,3.166,0,0,1-1.293-1.039,2.414,2.414,0,0,1-.469-1.426h2.141a1.179,1.179,0,0,0,.445.922,1.766,1.766,0,0,0,1.109.32,1.635,1.635,0,0,0,.98-.246A.766.766,0,0,0,36.531-2.336ZM42.563,0H40.3V-8.453h2.266Zm-2.4-10.641a1.112,1.112,0,0,1,.34-.836,1.277,1.277,0,0,1,.926-.328,1.28,1.28,0,0,1,.922.328,1.105,1.105,0,0,1,.344.836,1.108,1.108,0,0,1-.348.844,1.283,1.283,0,0,1-.918.328,1.283,1.283,0,0,1-.918-.328A1.108,1.108,0,0,1,40.164-10.641ZM44.07-4.3a5.013,5.013,0,0,1,.484-2.242A3.546,3.546,0,0,1,45.949-8.07a4.069,4.069,0,0,1,2.113-.539,3.849,3.849,0,0,1,2.793,1.047,4.2,4.2,0,0,1,1.207,2.844l.016.578A4.418,4.418,0,0,1,50.992-1.02,3.775,3.775,0,0,1,48.078.156,3.793,3.793,0,0,1,45.16-1.016,4.5,4.5,0,0,1,44.07-4.2Zm2.258.16A3.16,3.16,0,0,0,46.781-2.3a1.5,1.5,0,0,0,1.3.638,1.5,1.5,0,0,0,1.281-.63,3.457,3.457,0,0,0,.461-2.015,3.128,3.128,0,0,0-.461-1.831,1.5,1.5,0,0,0-1.3-.649,1.474,1.474,0,0,0-1.281.646A3.516,3.516,0,0,0,46.328-4.144ZM48.508-12h2.461L48.8-9.578H46.969Zm7.039,3.547.07.977a2.951,2.951,0,0,1,2.43-1.133,2.453,2.453,0,0,1,2,.789,3.682,3.682,0,0,1,.672,2.359V0H58.461V-5.419a1.47,1.47,0,0,0-.312-1.045,1.4,1.4,0,0,0-1.039-.325,1.553,1.553,0,0,0-1.43.814V0H53.422V-8.453Zm-47.07,23.3A5.07,5.07,0,0,1,7.59,17.98,2.843,2.843,0,0,1,5.2,19.156a2.633,2.633,0,0,1-2.07-.891V22.25H.867v-11.7H2.961l.078.828a2.654,2.654,0,0,1,2.141-.984,2.862,2.862,0,0,1,2.43,1.156,5.207,5.207,0,0,1,.867,3.188Zm-2.258-.172A3.345,3.345,0,0,0,5.8,12.854a1.36,1.36,0,0,0-1.215-.643,1.478,1.478,0,0,0-1.461.815V16.5a1.5,1.5,0,0,0,1.477.839Q6.219,17.336,6.219,14.679Zm3.3.016a5.013,5.013,0,0,1,.484-2.242A3.546,3.546,0,0,1,11.4,10.93a4.069,4.069,0,0,1,2.113-.539,3.849,3.849,0,0,1,2.793,1.047,4.2,4.2,0,0,1,1.207,2.844l.016.578a4.418,4.418,0,0,1-1.086,3.121,3.775,3.775,0,0,1-2.914,1.176,3.793,3.793,0,0,1-2.918-1.172A4.5,4.5,0,0,1,9.523,14.8Zm2.258.16a3.16,3.16,0,0,0,.453,1.843,1.628,1.628,0,0,0,2.578.008,3.457,3.457,0,0,0,.461-2.015,3.128,3.128,0,0,0-.461-1.831,1.5,1.5,0,0,0-1.3-.649,1.474,1.474,0,0,0-1.281.646A3.516,3.516,0,0,0,11.781,14.856Zm11.891-2.192a6.134,6.134,0,0,0-.812-.062,1.654,1.654,0,0,0-1.68.867V19H18.922V10.547h2.133l.063,1.008A2.092,2.092,0,0,1,23,10.391a2.366,2.366,0,0,1,.7.1Zm12.68,2.188a5.07,5.07,0,0,1-.887,3.129,2.843,2.843,0,0,1-2.395,1.176A2.633,2.633,0,0,1,31,18.266V22.25H28.742v-11.7h2.094l.078.828a2.654,2.654,0,0,1,2.141-.984,2.862,2.862,0,0,1,2.43,1.156,5.207,5.207,0,0,1,.867,3.188Zm-2.258-.172a3.345,3.345,0,0,0-.418-1.826,1.36,1.36,0,0,0-1.215-.643A1.478,1.478,0,0,0,31,13.026V16.5a1.5,1.5,0,0,0,1.477.839Q34.094,17.336,34.094,14.679ZM42.648,19a2.507,2.507,0,0,1-.227-.758,2.732,2.732,0,0,1-2.133.914,3,3,0,0,1-2.059-.719,2.312,2.312,0,0,1-.816-1.812,2.389,2.389,0,0,1,1-2.062,4.915,4.915,0,0,1,2.879-.727h1.039v-.484a1.393,1.393,0,0,0-.3-.937,1.183,1.183,0,0,0-.949-.352,1.345,1.345,0,0,0-.895.273.929.929,0,0,0-.324.75H37.6a2.268,2.268,0,0,1,.453-1.359,3,3,0,0,1,1.281-.98,4.669,4.669,0,0,1,1.859-.355,3.689,3.689,0,0,1,2.48.785,2.747,2.747,0,0,1,.918,2.207v3.664a4.041,4.041,0,0,0,.336,1.82V19Zm-1.867-1.57a1.945,1.945,0,0,0,.922-.223,1.462,1.462,0,0,0,.625-.6V15.156h-.844q-1.7,0-1.8,1.172l-.008.133a.9.9,0,0,0,.3.7A1.153,1.153,0,0,0,40.781,17.43Zm10.3-4.766a6.134,6.134,0,0,0-.812-.062,1.654,1.654,0,0,0-1.68.867V19H46.328V10.547h2.133l.063,1.008a2.092,2.092,0,0,1,1.883-1.164,2.366,2.366,0,0,1,.7.1Zm4.828,6.492a4.15,4.15,0,0,1-3.027-1.141,4.054,4.054,0,0,1-1.168-3.039v-.219A5.106,5.106,0,0,1,52.2,12.48,3.612,3.612,0,0,1,53.6,10.934a3.914,3.914,0,0,1,2.059-.543,3.508,3.508,0,0,1,2.73,1.094,4.444,4.444,0,0,1,1,3.1v.922H54a2.1,2.1,0,0,0,.66,1.328,2,2,0,0,0,1.395.5,2.437,2.437,0,0,0,2.039-.945L59.2,17.633a3.389,3.389,0,0,1-1.375,1.121A4.511,4.511,0,0,1,55.906,19.156Zm-.258-6.945a1.411,1.411,0,0,0-1.09.455,2.357,2.357,0,0,0-.535,1.3h3.141v-.181a1.681,1.681,0,0,0-.406-1.165A1.456,1.456,0,0,0,55.648,12.211Zm9.594,4.453a.727.727,0,0,0-.41-.652,4.659,4.659,0,0,0-1.316-.426Q60.5,14.953,60.5,13.023a2.323,2.323,0,0,1,.934-1.879,3.766,3.766,0,0,1,2.441-.754,4.053,4.053,0,0,1,2.574.758,2.388,2.388,0,0,1,.965,1.969H65.156a1.092,1.092,0,0,0-.312-.8A1.322,1.322,0,0,0,63.867,12a1.351,1.351,0,0,0-.883.258.814.814,0,0,0-.312.656.7.7,0,0,0,.355.605,3.657,3.657,0,0,0,1.2.4,9.8,9.8,0,0,1,1.422.379,2.336,2.336,0,0,1,1.789,2.273,2.2,2.2,0,0,1-.992,1.871,4.28,4.28,0,0,1-2.562.715A4.47,4.47,0,0,1,62,18.777,3.166,3.166,0,0,1,60.7,17.738a2.414,2.414,0,0,1-.469-1.426h2.141a1.179,1.179,0,0,0,.445.922,1.766,1.766,0,0,0,1.109.32,1.635,1.635,0,0,0,.98-.246A.766.766,0,0,0,65.242,16.664Z" transform="translate(807.565 6352.806)" fill="#fff"/>
    <path id="Trazado_818301" data-name="Trazado 818301" d="M7.859-4.945h-4.5v3.063H8.641V0H1.016V-11.375H8.625v1.9H3.359v2.711h4.5Zm4.086-3.508.07.977a2.951,2.951,0,0,1,2.43-1.133,2.453,2.453,0,0,1,2,.789,3.682,3.682,0,0,1,.672,2.359V0H14.859V-5.419a1.47,1.47,0,0,0-.312-1.045,1.4,1.4,0,0,0-1.039-.325,1.553,1.553,0,0,0-1.43.814V0H9.82V-8.453Zm18.477,4.3a5.07,5.07,0,0,1-.887,3.129A2.843,2.843,0,0,1,27.141.156a2.633,2.633,0,0,1-2.07-.891V3.25H22.813v-11.7h2.094l.078.828a2.654,2.654,0,0,1,2.141-.984,2.862,2.862,0,0,1,2.43,1.156,5.207,5.207,0,0,1,.867,3.188Zm-2.258-.172a3.345,3.345,0,0,0-.418-1.826,1.36,1.36,0,0,0-1.215-.643,1.478,1.478,0,0,0-1.461.815V-2.5a1.5,1.5,0,0,0,1.477.839Q28.164-1.664,28.164-4.321ZM36.57-6.336a6.134,6.134,0,0,0-.812-.062,1.654,1.654,0,0,0-1.68.867V0H31.82V-8.453h2.133l.063,1.008A2.092,2.092,0,0,1,35.9-8.609a2.366,2.366,0,0,1,.7.1ZM42.719-.859A2.831,2.831,0,0,1,40.406.156a2.67,2.67,0,0,1-2.074-.781,3.335,3.335,0,0,1-.73-2.289V-8.453h2.258v5.467q0,1.322,1.2,1.322a1.63,1.63,0,0,0,1.578-.8V-8.453h2.266V0H42.781ZM50.5.156A4.15,4.15,0,0,1,47.473-.984,4.054,4.054,0,0,1,46.3-4.023v-.219A5.106,5.106,0,0,1,46.8-6.52a3.612,3.612,0,0,1,1.395-1.547,3.914,3.914,0,0,1,2.059-.543,3.508,3.508,0,0,1,2.73,1.094,4.444,4.444,0,0,1,1,3.1v.922H48.594a2.1,2.1,0,0,0,.66,1.328,2,2,0,0,0,1.395.5,2.437,2.437,0,0,0,2.039-.945L53.8-1.367A3.389,3.389,0,0,1,52.422-.246,4.511,4.511,0,0,1,50.5.156Zm-.258-6.945a1.411,1.411,0,0,0-1.09.455,2.357,2.357,0,0,0-.535,1.3h3.141v-.181a1.681,1.681,0,0,0-.406-1.165A1.456,1.456,0,0,0,50.242-6.789ZM62.875-4.148A5.119,5.119,0,0,1,62.008-.98,2.872,2.872,0,0,1,59.586.156,2.639,2.639,0,0,1,57.391-.9l-.1.9H55.258V-12h2.258v4.3a2.571,2.571,0,0,1,2.055-.914A2.9,2.9,0,0,1,62-7.473a5.126,5.126,0,0,1,.879,3.2Zm-2.258-.172A3.381,3.381,0,0,0,60.211-6.2,1.372,1.372,0,0,0,59-6.789a1.489,1.489,0,0,0-1.484.885v3.346a1.509,1.509,0,0,0,1.5.893,1.4,1.4,0,0,0,1.438-1.081A5.6,5.6,0,0,0,60.617-4.321ZM69.164,0a2.507,2.507,0,0,1-.227-.758A2.732,2.732,0,0,1,66.8.156a3,3,0,0,1-2.059-.719,2.312,2.312,0,0,1-.816-1.812,2.389,2.389,0,0,1,1-2.062A4.915,4.915,0,0,1,67.8-5.164h1.039v-.484a1.393,1.393,0,0,0-.3-.937,1.183,1.183,0,0,0-.949-.352,1.345,1.345,0,0,0-.895.273.929.929,0,0,0-.324.75H64.117a2.268,2.268,0,0,1,.453-1.359,3,3,0,0,1,1.281-.98,4.669,4.669,0,0,1,1.859-.355,3.689,3.689,0,0,1,2.48.785,2.747,2.747,0,0,1,.918,2.207v3.664a4.041,4.041,0,0,0,.336,1.82V0ZM67.3-1.57a1.945,1.945,0,0,0,.922-.223,1.462,1.462,0,0,0,.625-.6V-3.844H68q-1.7,0-1.8,1.172l-.008.133a.9.9,0,0,0,.3.7A1.153,1.153,0,0,0,67.3-1.57Zm10.125-.766a.727.727,0,0,0-.41-.652A4.659,4.659,0,0,0,75.7-3.414Q72.68-4.047,72.68-5.977a2.323,2.323,0,0,1,.934-1.879,3.766,3.766,0,0,1,2.441-.754,4.053,4.053,0,0,1,2.574.758,2.388,2.388,0,0,1,.965,1.969H77.336a1.092,1.092,0,0,0-.312-.8A1.322,1.322,0,0,0,76.047-7a1.351,1.351,0,0,0-.883.258.814.814,0,0,0-.312.656.7.7,0,0,0,.355.605,3.657,3.657,0,0,0,1.2.4,9.8,9.8,0,0,1,1.422.379A2.336,2.336,0,0,1,79.617-2.43a2.2,2.2,0,0,1-.992,1.871,4.28,4.28,0,0,1-2.562.715,4.47,4.47,0,0,1-1.887-.379,3.166,3.166,0,0,1-1.293-1.039,2.414,2.414,0,0,1-.469-1.426h2.141A1.179,1.179,0,0,0,75-1.766a1.766,1.766,0,0,0,1.109.32,1.635,1.635,0,0,0,.98-.246A.766.766,0,0,0,77.422-2.336Z" transform="translate(928.019 6356.446)" fill="#fff"/>
    <path id="Trazado_818302" data-name="Trazado 818302" d="M10.273,0H7.93V-4.875H3.359V0H1.016V-11.375H3.359v4.609H7.93v-4.609h2.344Zm5.789.156A4.15,4.15,0,0,1,13.035-.984a4.054,4.054,0,0,1-1.168-3.039v-.219a5.106,5.106,0,0,1,.492-2.277,3.612,3.612,0,0,1,1.395-1.547,3.914,3.914,0,0,1,2.059-.543,3.508,3.508,0,0,1,2.73,1.094,4.444,4.444,0,0,1,1,3.1v.922H14.156a2.1,2.1,0,0,0,.66,1.328,2,2,0,0,0,1.395.5,2.437,2.437,0,0,0,2.039-.945l1.109,1.242A3.389,3.389,0,0,1,17.984-.246,4.511,4.511,0,0,1,16.063.156ZM15.8-6.789a1.411,1.411,0,0,0-1.09.455,2.357,2.357,0,0,0-.535,1.3H17.32v-.181a1.681,1.681,0,0,0-.406-1.165A1.456,1.456,0,0,0,15.8-6.789Zm8.531,5.125a1.481,1.481,0,0,0,1.016-.344,1.2,1.2,0,0,0,.406-.914h2.117a2.9,2.9,0,0,1-.469,1.574A3.093,3.093,0,0,1,26.145-.238a3.949,3.949,0,0,1-1.77.395A3.67,3.67,0,0,1,21.516-1,4.56,4.56,0,0,1,20.469-4.18v-.148a4.508,4.508,0,0,1,1.039-3.117,3.627,3.627,0,0,1,2.852-1.164,3.555,3.555,0,0,1,2.543.9,3.2,3.2,0,0,1,.973,2.4H25.758a1.551,1.551,0,0,0-.406-1.072,1.354,1.354,0,0,0-1.031-.412,1.36,1.36,0,0,0-1.191.575,3.333,3.333,0,0,0-.4,1.866v.235a3.375,3.375,0,0,0,.4,1.878A1.377,1.377,0,0,0,24.336-1.664Zm7.031-5.867a2.818,2.818,0,0,1,2.258-1.078q2.75,0,2.789,3.2V0H34.156V-5.364a1.577,1.577,0,0,0-.312-1.077A1.338,1.338,0,0,0,32.8-6.789a1.536,1.536,0,0,0-1.437.767V0H29.109V-12h2.258Zm6.4,3.227a5.013,5.013,0,0,1,.484-2.242A3.546,3.546,0,0,1,39.645-8.07a4.069,4.069,0,0,1,2.113-.539,3.849,3.849,0,0,1,2.793,1.047,4.2,4.2,0,0,1,1.207,2.844l.016.578A4.418,4.418,0,0,1,44.688-1.02,3.775,3.775,0,0,1,41.773.156a3.793,3.793,0,0,1-2.918-1.172A4.5,4.5,0,0,1,37.766-4.2Zm2.258.16A3.16,3.16,0,0,0,40.477-2.3a1.5,1.5,0,0,0,1.3.638,1.5,1.5,0,0,0,1.281-.63,3.457,3.457,0,0,0,.461-2.015,3.128,3.128,0,0,0-.461-1.831,1.5,1.5,0,0,0-1.3-.649,1.474,1.474,0,0,0-1.281.646A3.516,3.516,0,0,0,40.023-4.144Z" transform="translate(1072.01 6353.806)" fill="#fff"/>
    <path id="Trazado_818303" data-name="Trazado 818303" d="M1.016,0V-11.375H5a5.232,5.232,0,0,1,3.141.793,2.712,2.712,0,0,1,1.07,2.324,2.57,2.57,0,0,1-.43,1.473,2.482,2.482,0,0,1-1.2.934,2.4,2.4,0,0,1,1.379.883,2.61,2.61,0,0,1,.5,1.625A3,3,0,0,1,8.422-.859,4.713,4.713,0,0,1,5.438,0ZM3.359-4.953v3.07H5.367A1.938,1.938,0,0,0,6.66-2.277a1.353,1.353,0,0,0,.465-1.09A1.428,1.428,0,0,0,5.508-4.953Zm0-1.656H5.094q1.773-.031,1.773-1.414a1.307,1.307,0,0,0-.449-1.113A2.363,2.363,0,0,0,5-9.477H3.359ZM13.461,0H11.2V-12h2.266Zm1.508-4.3a5.013,5.013,0,0,1,.484-2.242A3.546,3.546,0,0,1,16.848-8.07a4.069,4.069,0,0,1,2.113-.539,3.849,3.849,0,0,1,2.793,1.047,4.2,4.2,0,0,1,1.207,2.844l.016.578A4.418,4.418,0,0,1,21.891-1.02,3.775,3.775,0,0,1,18.977.156a3.793,3.793,0,0,1-2.918-1.172A4.5,4.5,0,0,1,14.969-4.2Zm2.258.16A3.16,3.16,0,0,0,17.68-2.3a1.5,1.5,0,0,0,1.3.638,1.5,1.5,0,0,0,1.281-.63,3.457,3.457,0,0,0,.461-2.015,3.128,3.128,0,0,0-.461-1.831,1.5,1.5,0,0,0-1.3-.649,1.474,1.474,0,0,0-1.281.646A3.516,3.516,0,0,0,17.227-4.144Zm6.789-.16A5.053,5.053,0,0,1,24.9-7.453a2.9,2.9,0,0,1,2.434-1.156A2.6,2.6,0,0,1,29.5-7.57l.148-.883h1.984V3.25H29.367V-.727A2.6,2.6,0,0,1,27.32.156a2.878,2.878,0,0,1-2.406-1.172A5.3,5.3,0,0,1,24.016-4.3Zm2.258.16A3.315,3.315,0,0,0,26.7-2.3a1.363,1.363,0,0,0,1.2.634,1.518,1.518,0,0,0,1.469-.829v-3.5a1.506,1.506,0,0,0-1.453-.8,1.38,1.38,0,0,0-1.211.634A3.661,3.661,0,0,0,26.273-4.144Zm12.2,3.285A2.831,2.831,0,0,1,36.156.156a2.67,2.67,0,0,1-2.074-.781,3.335,3.335,0,0,1-.73-2.289V-8.453h2.258v5.467q0,1.322,1.2,1.322a1.63,1.63,0,0,0,1.578-.8V-8.453h2.266V0H38.531ZM46.25.156A4.15,4.15,0,0,1,43.223-.984a4.054,4.054,0,0,1-1.168-3.039v-.219a5.106,5.106,0,0,1,.492-2.277,3.612,3.612,0,0,1,1.395-1.547A3.914,3.914,0,0,1,46-8.609a3.508,3.508,0,0,1,2.73,1.094,4.444,4.444,0,0,1,1,3.1v.922H44.344A2.1,2.1,0,0,0,45-2.164a2,2,0,0,0,1.395.5,2.437,2.437,0,0,0,2.039-.945l1.109,1.242A3.389,3.389,0,0,1,48.172-.246,4.511,4.511,0,0,1,46.25.156Zm-.258-6.945a1.411,1.411,0,0,0-1.09.455,2.357,2.357,0,0,0-.535,1.3h3.141v-.181A1.681,1.681,0,0,0,47.1-6.377,1.456,1.456,0,0,0,45.992-6.789ZM55.906,0a2.507,2.507,0,0,1-.227-.758,2.732,2.732,0,0,1-2.133.914,3,3,0,0,1-2.059-.719,2.312,2.312,0,0,1-.816-1.812,2.389,2.389,0,0,1,1-2.062,4.915,4.915,0,0,1,2.879-.727h1.039v-.484a1.393,1.393,0,0,0-.3-.937,1.183,1.183,0,0,0-.949-.352,1.345,1.345,0,0,0-.895.273.929.929,0,0,0-.324.75H50.859a2.268,2.268,0,0,1,.453-1.359,3,3,0,0,1,1.281-.98,4.669,4.669,0,0,1,1.859-.355,3.689,3.689,0,0,1,2.48.785,2.747,2.747,0,0,1,.918,2.207v3.664a4.041,4.041,0,0,0,.336,1.82V0ZM54.039-1.57a1.945,1.945,0,0,0,.922-.223,1.462,1.462,0,0,0,.625-.6V-3.844h-.844q-1.7,0-1.8,1.172l-.008.133a.9.9,0,0,0,.3.7A1.153,1.153,0,0,0,54.039-1.57Zm5.2-2.719a5.094,5.094,0,0,1,.887-3.148,2.877,2.877,0,0,1,2.426-1.172,2.589,2.589,0,0,1,2.039.922V-12h2.266V0H64.813L64.7-.9A2.657,2.657,0,0,1,62.531.156,2.869,2.869,0,0,1,60.137-1.02,5.258,5.258,0,0,1,59.234-4.289Zm2.258.161A3.355,3.355,0,0,0,61.906-2.3a1.348,1.348,0,0,0,1.2.636,1.51,1.51,0,0,0,1.477-.887V-5.9a1.489,1.489,0,0,0-1.461-.887Q61.492-6.789,61.492-4.128ZM68.25-4.3a5.013,5.013,0,0,1,.484-2.242A3.546,3.546,0,0,1,70.129-8.07a4.069,4.069,0,0,1,2.113-.539,3.849,3.849,0,0,1,2.793,1.047,4.2,4.2,0,0,1,1.207,2.844l.016.578A4.418,4.418,0,0,1,75.172-1.02,3.775,3.775,0,0,1,72.258.156,3.793,3.793,0,0,1,69.34-1.016,4.5,4.5,0,0,1,68.25-4.2Zm2.258.16A3.16,3.16,0,0,0,70.961-2.3a1.5,1.5,0,0,0,1.3.638,1.5,1.5,0,0,0,1.281-.63A3.457,3.457,0,0,0,74-4.309a3.128,3.128,0,0,0-.461-1.831,1.5,1.5,0,0,0-1.3-.649,1.474,1.474,0,0,0-1.281.646A3.516,3.516,0,0,0,70.508-4.144ZM82.227-2.336a.727.727,0,0,0-.41-.652A4.659,4.659,0,0,0,80.5-3.414q-3.016-.633-3.016-2.562a2.323,2.323,0,0,1,.934-1.879,3.766,3.766,0,0,1,2.441-.754,4.053,4.053,0,0,1,2.574.758A2.388,2.388,0,0,1,84.4-5.883H82.141a1.092,1.092,0,0,0-.312-.8A1.322,1.322,0,0,0,80.852-7a1.351,1.351,0,0,0-.883.258.814.814,0,0,0-.312.656.7.7,0,0,0,.355.605,3.657,3.657,0,0,0,1.2.4,9.8,9.8,0,0,1,1.422.379A2.336,2.336,0,0,1,84.422-2.43,2.2,2.2,0,0,1,83.43-.559a4.28,4.28,0,0,1-2.562.715A4.47,4.47,0,0,1,78.98-.223a3.166,3.166,0,0,1-1.293-1.039,2.414,2.414,0,0,1-.469-1.426h2.141a1.179,1.179,0,0,0,.445.922,1.766,1.766,0,0,0,1.109.32,1.635,1.635,0,0,0,.98-.246A.766.766,0,0,0,82.227-2.336Z" transform="translate(1183.139 6353.806)" fill="#fff"/>
    <path id="Trazado_818304" data-name="Trazado 818304" d="M0,0H1029.99" transform="translate(285 6315.706)" fill="none" stroke="#3a8f9c" stroke-width="1"/>
    <path id="Trazado_818305" data-name="Trazado 818305" d="M0,0H1029.99" transform="translate(285 6403.101)" fill="none" stroke="#3a8f9c" stroke-width="1"/>
    <path id="Trazado_818306" data-name="Trazado 818306" d="M0,0H840.987" transform="translate(474.004 6490.506)" fill="none" stroke="#3a8f9c" stroke-width="1"/>
    <path id="Trazado_818307" data-name="Trazado 818307" d="M0,0H840.987" transform="translate(474.004 6577.902)" fill="none" stroke="#3a8f9c" stroke-width="1"/>
    <path id="Trazado_818308" data-name="Trazado 818308" d="M0,0H840.987" transform="translate(474.004 6665.298)" fill="none" stroke="#3a8f9c" stroke-width="1"/>
    <path id="Trazado_818309" data-name="Trazado 818309" d="M0,0H840.987" transform="translate(474.004 6752.693)" fill="none" stroke="#3a8f9c" stroke-width="1"/>
    <path id="Trazado_818310" data-name="Trazado 818310" d="M0,0V524.393" transform="translate(474.004 6315.706)" fill="none" stroke="#3a8f9c" stroke-width="1"/>
    <path id="Trazado_818311" data-name="Trazado 818311" d="M0,0V524.393" transform="translate(634.69 6315.706)" fill="none" stroke="#3a8f9c" stroke-width="1"/>
    <path id="Trazado_818312" data-name="Trazado 818312" d="M0,0V524.393" transform="translate(784.282 6315.706)" fill="none" stroke="#3a8f9c" stroke-width="1"/>
    <path id="Trazado_818313" data-name="Trazado 818313" d="M0,0V524.393" transform="translate(904.736 6315.706)" fill="none" stroke="#3a8f9c" stroke-width="1"/>
    <path id="Trazado_818314" data-name="Trazado 818314" d="M0,0V524.393" transform="translate(1025.199 6315.706)" fill="none" stroke="#3a8f9c" stroke-width="1"/>
    <path id="Trazado_818315" data-name="Trazado 818315" d="M0,0V524.393" transform="translate(1153.336 6315.706)" fill="none" stroke="#3a8f9c" stroke-width="1"/>
    <path id="Trazado_133029" data-name="Trazado 133029" d="M100.627,206.19l50.7,2.747s-1.955,46.7-2.287,52.588c0,0-17.116-.225-23.772-.528S97.45,256.97,97.45,256.97Z" transform="translate(206.493 6222.442)" fill="url(#linear-gradient)"/>
    <path id="Trazado_133030" data-name="Trazado 133030" d="M148.827,388.3l50.711,2.776s-1.955,46.694-2.3,52.588c0,0-17.106-.225-23.762-.528s-27.829-4.027-27.829-4.027Z" transform="translate(205.407 6218.34)" fill="url(#linear-gradient-2)"/>
    <path id="Trazado_133031" data-name="Trazado 133031" d="M195.657,481l50.7,2.766s-1.955,46.7-2.287,52.588c0,0-17.115-.225-23.772-.528s-27.819-4-27.819-4Z" transform="translate(204.352 6216.251)" fill="url(#linear-gradient-3)"/>
    <path id="Trazado_133032" data-name="Trazado 133032" d="M140.927,546.24l50.711,2.766s-1.955,46.7-2.3,52.588c0,0-17.106-.215-23.762-.518s-27.829-4.037-27.829-4.037Z" transform="translate(205.585 6214.782)" fill="url(#linear-gradient-4)"/>
    <path id="Trazado_133033" data-name="Trazado 133033" d="M303.35,198.449l50.828-1.329s1.828,46.762,1.955,52.656c0,0-17.1,1.163-23.762,1.4s-28.092-1.779-28.092-1.779Z" transform="translate(201.854 6222.647)" fill="url(#linear-gradient-5)"/>
    <path id="Trazado_133034" data-name="Trazado 133034" d="M106.45,390.289l50.828-1.329s1.828,46.762,1.955,52.656c0,0-17.1,1.163-23.762,1.4s-28.093-1.779-28.093-1.779Z" transform="translate(206.291 6218.325)" fill="url(#linear-gradient-6)"/>
    <path id="Trazado_133035" data-name="Trazado 133035" d="M349.83,379.978l48.561-14.848s14.242,44.524,15.933,50.174c0,0-16.138,5.679-22.482,7.683s-27.516,5.787-27.516,5.787Z" transform="translate(200.807 6218.862)" fill="url(#linear-gradient-7)"/>
    <path id="Trazado_133036" data-name="Trazado 133036" d="M303.35,372.17l50.828-1.32s1.828,46.752,1.955,52.656c0,0-17.1,1.163-23.762,1.4s-28.092-1.779-28.092-1.779Z" transform="translate(201.854 6218.733)" fill="url(#linear-gradient-8)"/>
    <path id="Trazado_133037" data-name="Trazado 133037" d="M495.157,464.7l50.711,2.766s-1.955,46.7-2.3,52.588c0,0-17.106-.215-23.762-.518S492,515.5,492,515.5Z" transform="translate(197.604 6216.619)" fill="url(#linear-gradient-9)"/>
    <path id="Trazado_133038" data-name="Trazado 133038" d="M761.427,196.46l50.7,2.776s-1.955,46.694-2.287,52.588c0,0-17.116-.225-23.772-.528s-27.819-4.027-27.819-4.027Z" transform="translate(191.606 6222.662)" fill="url(#linear-gradient-10)"/>
    <path id="Trazado_133039" data-name="Trazado 133039" d="M744.717,385l50.7,2.766s-1.955,46.7-2.287,52.588c0,0-17.116-.215-23.762-.518s-27.829-4.008-27.829-4.008Z" transform="translate(191.982 6218.414)" fill="url(#linear-gradient-11)"/>
    <path id="Trazado_133040" data-name="Trazado 133040" d="M452.78,466.68l50.828-1.32s1.838,46.752,1.955,52.656c0,0-17.086,1.163-23.753,1.4s-28.092-1.779-28.092-1.779Z" transform="translate(198.488 6216.604)" fill="url(#linear-gradient-12)"/>
    <path id="Trazado_133041" data-name="Trazado 133041" d="M186.35,208.169l50.828-1.329s1.828,46.762,1.955,52.666c0,0-17.1,1.153-23.762,1.388s-28.093-1.779-28.093-1.779Z" transform="translate(204.49 6222.428)" fill="url(#linear-gradient-13)"/>
    <path id="Trazado_133042" data-name="Trazado 133042" d="M133.989,214.85l50.731.088s.528,46.694.479,52.588c0,0-17.076.674-23.733.733S133.49,265.7,133.49,265.7Z" transform="translate(205.681 6222.248)" fill="url(#linear-gradient-14)"/>
    <path id="Trazado_133043" data-name="Trazado 133043" d="M99.059,300l50.731.088s.518,46.694.479,52.588c0,0-17.086.684-23.733.733s-27.975-2.581-27.975-2.581Z" transform="translate(206.468 6220.329)" fill="url(#linear-gradient-15)"/>
    <path id="Trazado_133044" data-name="Trazado 133044" d="M97,477.98l50.613-3.45s3.793,46.537,4.164,52.422c0,0-17,1.867-23.625,2.385s-28.083-.6-28.083-.6Z" transform="translate(206.503 6216.397)" fill="url(#linear-gradient-16)"/>
    <path id="Trazado_133045" data-name="Trazado 133045" d="M871.418,283.32l50.74,2.307s-1.505,46.723-1.808,52.617c0,0-17.116-.059-23.772-.3s-27.868-3.773-27.868-3.773Z" transform="translate(189.117 6220.705)" fill="url(#linear-gradient-17)"/>
    <path id="Trazado_133046" data-name="Trazado 133046" d="M622.678,380.16l50.74,2.3s-1.505,46.733-1.808,52.627c0,0-17.116-.059-23.772-.3S620,431.008,620,431.008Z" transform="translate(194.721 6218.523)" fill="url(#linear-gradient-18)"/>
    <path id="Trazado_133047" data-name="Trazado 133047" d="M337.468,554.77l50.75,2.3S386.7,603.8,386.41,609.733c0,0-17.116-.059-23.782-.293s-27.868-3.783-27.868-3.783Z" transform="translate(201.147 6214.589)" fill="url(#linear-gradient-19)"/>
    <path id="Trazado_133048" data-name="Trazado 133048" d="M168.066,474.54l50.7,2.3s-1.505,46.733-1.808,52.627c0,0-17.116-.068-23.772-.3s-27.877-3.783-27.877-3.783Z" transform="translate(204.964 6216.397)" fill="url(#linear-gradient-20)"/>
    <path id="Trazado_133049" data-name="Trazado 133049" d="M148.855,297.18l50.741,2.864s-2.023,46.733-2.395,52.617c0,0-17.116-.254-23.782-.567s-27.838-4.086-27.838-4.086Z" transform="translate(205.409 6220.393)" fill="url(#linear-gradient-21)"/>
    <path id="Trazado_133050" data-name="Trazado 133050" d="M337.745,203.38l50.741,2.864s-2.023,46.723-2.395,52.617c0,0-17.116-.254-23.772-.567s-27.838-4.086-27.838-4.086Z" transform="translate(201.153 6222.506)" fill="url(#linear-gradient-22)"/>
    <path id="Trazado_133051" data-name="Trazado 133051" d="M876.515,460.27l50.74,2.864s-2.023,46.723-2.395,52.588c0,0-17.115-.254-23.772-.567s-27.838-4.086-27.838-4.086Z" transform="translate(189.015 6216.718)" fill="url(#linear-gradient-23)"/>
    <path id="Trazado_133052" data-name="Trazado 133052" d="M109.085,546.18l50.741,2.864s-2.023,46.723-2.395,52.617c0,0-17.116-.254-23.772-.567s-27.838-4.086-27.838-4.086Z" transform="translate(206.305 6214.783)" fill="url(#linear-gradient-24)"/>
    <path id="Trazado_133053" data-name="Trazado 133053" d="M487.927,196.46l50.7,2.776s-1.955,46.694-2.287,52.588c0,0-17.116-.225-23.772-.528s-27.819-4.027-27.819-4.027Z" transform="translate(197.768 6222.662)" fill="url(#linear-gradient-25)"/>
    <path id="Trazado_133054" data-name="Trazado 133054" d="M456.055,196.4l50.731,2.864s-2.023,46.723-2.385,52.617c0,0-17.125-.254-23.782-.567s-27.838-4.086-27.838-4.086Z" transform="translate(198.488 6222.663)" fill="url(#linear-gradient-26)"/>
    <path id="Trazado_133055" data-name="Trazado 133055" d="M204.044,298.92l50.711,2.864s-2.023,46.723-2.395,52.617c0,0-17.115-.254-23.782-.567s-27.829-4.086-27.829-4.086Z" transform="translate(204.166 6220.354)" fill="url(#linear-gradient-27)"/>
    <path id="Trazado_818316" data-name="Trazado 818316" d="M3.156-4.008,2.453,0H.164L2.141-11.375l3.984.008a3.986,3.986,0,0,1,2.9,1.023,3.174,3.174,0,0,1,.922,2.672A3.592,3.592,0,0,1,8.551-5,5.075,5.075,0,0,1,5.313-4Zm.32-1.9,1.906.016a2.41,2.41,0,0,0,1.531-.477,1.918,1.918,0,0,0,.727-1.289,1.646,1.646,0,0,0-.262-1.3,1.418,1.418,0,0,0-1.121-.516L4.1-9.477ZM15.9-6.336a4.548,4.548,0,0,0-.742-.078,2.136,2.136,0,0,0-1.867.883L12.313,0h-2.2l1.469-8.453,2.07-.008-.2,1.031a2.325,2.325,0,0,1,1.969-1.2,3.214,3.214,0,0,1,.766.109Zm4.508-2.273a3.39,3.39,0,0,1,1.926.574A3.234,3.234,0,0,1,23.52-6.5a4.762,4.762,0,0,1,.27,2.176,5.143,5.143,0,0,1-1.4,3.262A3.96,3.96,0,0,1,19.367.156,3.38,3.38,0,0,1,17.461-.41a3.222,3.222,0,0,1-1.187-1.527A4.657,4.657,0,0,1,16-4.094a5.3,5.3,0,0,1,1.422-3.328A3.878,3.878,0,0,1,20.406-8.609ZM18.18-3.294a1.95,1.95,0,0,0,.352,1.182,1.168,1.168,0,0,0,.945.449A1.712,1.712,0,0,0,21.07-2.6a4.647,4.647,0,0,0,.539-2.531,2.122,2.122,0,0,0-.363-1.2,1.149,1.149,0,0,0-.949-.464,1.715,1.715,0,0,0-1.574.924A4.6,4.6,0,0,0,18.18-3.294ZM28.617-8.617a2.4,2.4,0,0,1,1.906.945L31.352-12h2.211L31.484,0H29.516l.125-.906a2.736,2.736,0,0,1-2.2,1.07A2.433,2.433,0,0,1,26.055-.25a2.607,2.607,0,0,1-.918-1.168,4.7,4.7,0,0,1-.355-1.7A6.4,6.4,0,0,1,24.8-4.07l.047-.352A6.767,6.767,0,0,1,25.574-6.7a3.766,3.766,0,0,1,1.313-1.461A3.094,3.094,0,0,1,28.617-8.617Zm-1.6,4.547a6.327,6.327,0,0,0-.039,1q.078,1.375,1.109,1.4A1.885,1.885,0,0,0,29.7-2.547l.6-3.359a1.248,1.248,0,0,0-1.219-.875,1.606,1.606,0,0,0-1.34.621A4.176,4.176,0,0,0,27.016-4.07Zm11.461,3.2A2.919,2.919,0,0,1,36.148.156,2.172,2.172,0,0,1,34.3-.719a3.2,3.2,0,0,1-.484-2.266l.914-5.469h2.2l-.93,5.5A2.175,2.175,0,0,0,36-2.47a.8.8,0,0,0,.867.806,2.014,2.014,0,0,0,1.7-.79l1.055-6h2.219L40.367,0H38.313Zm7.234-.781a1.447,1.447,0,0,0,1.016-.332,1.632,1.632,0,0,0,.531-.926l2.07-.008a3.037,3.037,0,0,1-.559,1.6A3.394,3.394,0,0,1,47.426-.211a3.847,3.847,0,0,1-1.77.375A3.123,3.123,0,0,1,43.219-.9a3.965,3.965,0,0,1-.867-2.766l.023-.43.008-.086a5.284,5.284,0,0,1,1.391-3.27,3.761,3.761,0,0,1,2.914-1.16,3.047,3.047,0,0,1,2.27.934A3.3,3.3,0,0,1,49.781-5.3H47.727a1.73,1.73,0,0,0-.3-1.07,1.128,1.128,0,0,0-.891-.422q-1.578-.047-1.914,2.3a7.782,7.782,0,0,0-.086,1.438Q44.617-1.68,45.711-1.656Zm8.938-8.875-.367,2.078h1.406L55.4-6.8H53.992l-.719,4.234a1.077,1.077,0,0,0,.063.609q.109.211.531.227.125.008.672-.039L54.383-.039a3.706,3.706,0,0,1-1.266.18A1.985,1.985,0,0,1,51.5-.539a2.456,2.456,0,0,1-.437-1.8L51.789-6.8h-1.2l.289-1.656h1.2l.359-2.078ZM59.586,0l1.977-11.375,3.547.008a4.705,4.705,0,0,1,2.969.8,2.488,2.488,0,0,1,.9,2.242A2.865,2.865,0,0,1,66.984-5.8a1.911,1.911,0,0,1,1.055.879,2.63,2.63,0,0,1,.32,1.52A3.291,3.291,0,0,1,67.1-.895,5,5,0,0,1,63.953,0Zm3.156-4.953L62.2-1.883l1.8.008a2.327,2.327,0,0,0,1.414-.418,1.658,1.658,0,0,0,.68-1.129,1.4,1.4,0,0,0-.191-1.1A1.269,1.269,0,0,0,64.9-4.945Zm.281-1.656,1.555.016A2.475,2.475,0,0,0,66-7a1.575,1.575,0,0,0,.66-1.086q.2-1.375-1.445-1.383l-1.687-.008ZM74.32,0a2.281,2.281,0,0,1-.086-.766,2.863,2.863,0,0,1-2.156.922,2.594,2.594,0,0,1-1.84-.723,2.186,2.186,0,0,1-.684-1.746,2.527,2.527,0,0,1,1.16-2.121,5.266,5.266,0,0,1,2.965-.738l1.031.016.109-.508a1.764,1.764,0,0,0,.023-.492.846.846,0,0,0-.277-.574.955.955,0,0,0-.629-.215,1.345,1.345,0,0,0-.875.254,1.231,1.231,0,0,0-.461.777l-2.211.008A2.457,2.457,0,0,1,71.5-7.871a4.312,4.312,0,0,1,2.613-.738,3.117,3.117,0,0,1,2.25.855,2.5,2.5,0,0,1,.68,2.121L76.4-1.586l-.039.5a2.412,2.412,0,0,0,.133.938L76.484,0Zm-1.7-1.555a2.017,2.017,0,0,0,1.664-.828l.273-1.461L73.8-3.852a2.139,2.139,0,0,0-1.758.742,1.292,1.292,0,0,0-.242.633.75.75,0,0,0,.176.668A.891.891,0,0,0,72.625-1.555Zm8.906-.1a1.447,1.447,0,0,0,1.016-.332,1.632,1.632,0,0,0,.531-.926l2.07-.008a3.037,3.037,0,0,1-.559,1.6A3.394,3.394,0,0,1,83.246-.211a3.847,3.847,0,0,1-1.77.375A3.123,3.123,0,0,1,79.039-.9a3.965,3.965,0,0,1-.867-2.766l.023-.43L78.2-4.18a5.284,5.284,0,0,1,1.391-3.27,3.761,3.761,0,0,1,2.914-1.16,3.047,3.047,0,0,1,2.27.934A3.3,3.3,0,0,1,85.6-5.3H83.547a1.73,1.73,0,0,0-.3-1.07,1.128,1.128,0,0,0-.891-.422q-1.578-.047-1.914,2.3a7.782,7.782,0,0,0-.086,1.438Q80.438-1.68,81.531-1.656Zm8.125-1.711-1.023.891L88.2,0H86l2.078-12h2.211L89.148-5.484l.43-.461,2.508-2.508h2.828l-3.7,3.633L93.57,0H91.156ZM96.7,0H94.477l2.086-12h2.211Zm6.7-8.609a3.39,3.39,0,0,1,1.926.574A3.234,3.234,0,0,1,106.512-6.5a4.762,4.762,0,0,1,.27,2.176,5.143,5.143,0,0,1-1.4,3.262,3.96,3.96,0,0,1-3.02,1.215,3.38,3.38,0,0,1-1.906-.566,3.222,3.222,0,0,1-1.187-1.527,4.657,4.657,0,0,1-.273-2.156,5.3,5.3,0,0,1,1.422-3.328A3.878,3.878,0,0,1,103.4-8.609Zm-2.227,5.315a1.95,1.95,0,0,0,.352,1.182,1.168,1.168,0,0,0,.945.449,1.712,1.712,0,0,0,1.594-.932,4.647,4.647,0,0,0,.539-2.531,2.122,2.122,0,0,0-.363-1.2,1.149,1.149,0,0,0-.949-.464,1.715,1.715,0,0,0-1.574.924A4.6,4.6,0,0,0,101.172-3.294Zm6.664-.94a5.849,5.849,0,0,1,1.277-3.184,3.242,3.242,0,0,1,2.629-1.2,2.37,2.37,0,0,1,2.016.977l.289-.82,2.023.008L114.688-.289a3.983,3.983,0,0,1-1.437,2.672,4.471,4.471,0,0,1-3,.953,4.168,4.168,0,0,1-1.672-.379,3.575,3.575,0,0,1-1.312-1L108.359.617a2.349,2.349,0,0,0,1.844.961,2.166,2.166,0,0,0,1.469-.449A2.4,2.4,0,0,0,112.5-.227l.125-.508a2.749,2.749,0,0,1-2.07.891,2.428,2.428,0,0,1-1.961-.918,3.947,3.947,0,0,1-.8-2.348A7.89,7.89,0,0,1,107.836-4.234ZM110-3.307a2.02,2.02,0,0,0,.309,1.178,1.08,1.08,0,0,0,.895.466,1.972,1.972,0,0,0,1.594-.767l.656-3.583a1.3,1.3,0,0,0-1.242-.767,1.728,1.728,0,0,0-1.43.681,3.561,3.561,0,0,0-.734,1.87A8.213,8.213,0,0,0,110-3.307Z" transform="translate(325.356 6354.446)" fill="#fff"/>
    <path id="Trazado_818317" data-name="Trazado 818317" d="M3.359-4.008V0H1.016V-11.375H5.453a5.134,5.134,0,0,1,2.254.469A3.454,3.454,0,0,1,9.2-9.574a3.714,3.714,0,0,1,.523,1.965A3.266,3.266,0,0,1,8.582-4.973a4.767,4.767,0,0,1-3.168.965Zm0-1.9H5.453a2.059,2.059,0,0,0,1.418-.437,1.591,1.591,0,0,0,.488-1.25,1.876,1.876,0,0,0-.492-1.352,1.839,1.839,0,0,0-1.359-.531H3.359ZM13.57,0H11.3V-8.453H13.57Zm-2.4-10.641a1.112,1.112,0,0,1,.34-.836,1.277,1.277,0,0,1,.926-.328,1.28,1.28,0,0,1,.922.328,1.105,1.105,0,0,1,.344.836,1.108,1.108,0,0,1-.348.844,1.283,1.283,0,0,1-.918.328A1.283,1.283,0,0,1,11.52-9.8,1.108,1.108,0,0,1,11.172-10.641ZM17.813,0H15.547V-12h2.266ZM24.57,0a2.507,2.507,0,0,1-.227-.758,2.732,2.732,0,0,1-2.133.914,3,3,0,0,1-2.059-.719,2.312,2.312,0,0,1-.816-1.812,2.389,2.389,0,0,1,1-2.062,4.915,4.915,0,0,1,2.879-.727H24.25v-.484a1.393,1.393,0,0,0-.3-.937A1.183,1.183,0,0,0,23-6.937a1.345,1.345,0,0,0-.895.273.929.929,0,0,0-.324.75H19.523a2.268,2.268,0,0,1,.453-1.359,3,3,0,0,1,1.281-.98,4.669,4.669,0,0,1,1.859-.355,3.689,3.689,0,0,1,2.48.785,2.747,2.747,0,0,1,.918,2.207v3.664a4.041,4.041,0,0,0,.336,1.82V0ZM22.7-1.57a1.945,1.945,0,0,0,.922-.223,1.462,1.462,0,0,0,.625-.6V-3.844h-.844q-1.7,0-1.8,1.172l-.008.133a.9.9,0,0,0,.3.7A1.153,1.153,0,0,0,22.7-1.57Zm9.18-2.719a5.094,5.094,0,0,1,.887-3.148A2.877,2.877,0,0,1,35.2-8.609a2.589,2.589,0,0,1,2.039.922V-12H39.5V0H37.461l-.109-.9A2.657,2.657,0,0,1,35.18.156,2.869,2.869,0,0,1,32.785-1.02,5.258,5.258,0,0,1,31.883-4.289Zm2.258.161A3.355,3.355,0,0,0,34.555-2.3a1.348,1.348,0,0,0,1.2.636,1.51,1.51,0,0,0,1.477-.887V-5.9a1.489,1.489,0,0,0-1.461-.887Q34.141-6.789,34.141-4.128Zm11,4.285A4.15,4.15,0,0,1,42.113-.984a4.054,4.054,0,0,1-1.168-3.039v-.219a5.106,5.106,0,0,1,.492-2.277,3.612,3.612,0,0,1,1.395-1.547,3.914,3.914,0,0,1,2.059-.543,3.508,3.508,0,0,1,2.73,1.094,4.444,4.444,0,0,1,1,3.1v.922H43.234a2.1,2.1,0,0,0,.66,1.328,2,2,0,0,0,1.395.5,2.437,2.437,0,0,0,2.039-.945l1.109,1.242A3.389,3.389,0,0,1,47.063-.246,4.511,4.511,0,0,1,45.141.156Zm-.258-6.945a1.411,1.411,0,0,0-1.09.455,2.357,2.357,0,0,0-.535,1.3H46.4v-.181a1.681,1.681,0,0,0-.406-1.165A1.456,1.456,0,0,0,44.883-6.789ZM61.492-4.148a5.07,5.07,0,0,1-.887,3.129A2.843,2.843,0,0,1,58.211.156a2.633,2.633,0,0,1-2.07-.891V3.25H53.883v-11.7h2.094l.078.828A2.654,2.654,0,0,1,58.2-8.609a2.862,2.862,0,0,1,2.43,1.156,5.207,5.207,0,0,1,.867,3.188Zm-2.258-.172a3.345,3.345,0,0,0-.418-1.826A1.36,1.36,0,0,0,57.6-6.789a1.478,1.478,0,0,0-1.461.815V-2.5a1.5,1.5,0,0,0,1.477.839Q59.234-1.664,59.234-4.321Zm8.406-2.015a6.134,6.134,0,0,0-.812-.062,1.654,1.654,0,0,0-1.68.867V0H62.891V-8.453h2.133l.063,1.008a2.092,2.092,0,0,1,1.883-1.164,2.366,2.366,0,0,1,.7.1ZM68.094-4.3a5.013,5.013,0,0,1,.484-2.242A3.546,3.546,0,0,1,69.973-8.07a4.069,4.069,0,0,1,2.113-.539,3.849,3.849,0,0,1,2.793,1.047,4.2,4.2,0,0,1,1.207,2.844l.016.578A4.418,4.418,0,0,1,75.016-1.02,3.775,3.775,0,0,1,72.1.156a3.793,3.793,0,0,1-2.918-1.172A4.5,4.5,0,0,1,68.094-4.2Zm2.258.16A3.16,3.16,0,0,0,70.8-2.3a1.5,1.5,0,0,0,1.3.638,1.5,1.5,0,0,0,1.281-.63,3.457,3.457,0,0,0,.461-2.015,3.128,3.128,0,0,0-.461-1.831,1.5,1.5,0,0,0-1.3-.649,1.474,1.474,0,0,0-1.281.646A3.516,3.516,0,0,0,70.352-4.144Zm6.789-.145a5.094,5.094,0,0,1,.887-3.148,2.877,2.877,0,0,1,2.426-1.172,2.589,2.589,0,0,1,2.039.922V-12h2.266V0H82.719l-.109-.9A2.657,2.657,0,0,1,80.438.156,2.869,2.869,0,0,1,78.043-1.02,5.258,5.258,0,0,1,77.141-4.289Zm2.258.161A3.355,3.355,0,0,0,79.813-2.3a1.348,1.348,0,0,0,1.2.636,1.51,1.51,0,0,0,1.477-.887V-5.9a1.489,1.489,0,0,0-1.461-.887Q79.4-6.789,79.4-4.128ZM91.57-.859A2.831,2.831,0,0,1,89.258.156a2.67,2.67,0,0,1-2.074-.781,3.335,3.335,0,0,1-.73-2.289V-8.453h2.258v5.467q0,1.322,1.2,1.322a1.63,1.63,0,0,0,1.578-.8V-8.453h2.266V0H91.633Zm7.406-.8a1.481,1.481,0,0,0,1.016-.344,1.2,1.2,0,0,0,.406-.914h2.117a2.9,2.9,0,0,1-.469,1.574,3.093,3.093,0,0,1-1.262,1.109,3.949,3.949,0,0,1-1.77.395A3.67,3.67,0,0,1,96.156-1,4.56,4.56,0,0,1,95.109-4.18v-.148a4.508,4.508,0,0,1,1.039-3.117A3.627,3.627,0,0,1,99-8.609a3.555,3.555,0,0,1,2.543.9,3.2,3.2,0,0,1,.973,2.4H100.4a1.551,1.551,0,0,0-.406-1.072,1.354,1.354,0,0,0-1.031-.412,1.36,1.36,0,0,0-1.191.575,3.333,3.333,0,0,0-.4,1.866v.235a3.375,3.375,0,0,0,.4,1.878A1.377,1.377,0,0,0,98.977-1.664Zm7.531-8.867v2.078h1.445V-6.8h-1.445v4.219a1.007,1.007,0,0,0,.18.672.9.9,0,0,0,.688.2,3.6,3.6,0,0,0,.664-.055V-.047a4.648,4.648,0,0,1-1.367.2,2.156,2.156,0,0,1-2.422-2.4V-6.8h-1.234V-8.453h1.234v-2.078ZM108.625-4.3a5.013,5.013,0,0,1,.484-2.242A3.546,3.546,0,0,1,110.5-8.07a4.069,4.069,0,0,1,2.113-.539,3.849,3.849,0,0,1,2.793,1.047,4.2,4.2,0,0,1,1.207,2.844l.016.578a4.418,4.418,0,0,1-1.086,3.121A3.775,3.775,0,0,1,112.633.156a3.793,3.793,0,0,1-2.918-1.172,4.5,4.5,0,0,1-1.09-3.187Zm2.258.16a3.16,3.16,0,0,0,.453,1.843,1.5,1.5,0,0,0,1.3.638,1.5,1.5,0,0,0,1.281-.63,3.457,3.457,0,0,0,.461-2.015,3.128,3.128,0,0,0-.461-1.831,1.5,1.5,0,0,0-1.3-.649,1.474,1.474,0,0,0-1.281.646A3.516,3.516,0,0,0,110.883-4.144Z" transform="translate(326.102 6372.564)" fill="#fff"/>
    <path id="Trazado_818318" data-name="Trazado 818318" d="M6.422-3.039q.164-.93-.914-1.422L4-5.062Q1.375-6.234,1.508-8.289a2.964,2.964,0,0,1,.625-1.687,3.758,3.758,0,0,1,1.6-1.152,5.67,5.67,0,0,1,2.227-.4,3.857,3.857,0,0,1,2.664.98,3.267,3.267,0,0,1,1,2.543H7.344A1.628,1.628,0,0,0,7-9.211a1.531,1.531,0,0,0-1.176-.445A2.37,2.37,0,0,0,4.469-9.3a1.458,1.458,0,0,0-.687,1.02Q3.633-7.43,4.922-6.93l1.031.391.594.273q2.3,1.141,2.156,3.2a3.09,3.09,0,0,1-.645,1.738A3.633,3.633,0,0,1,6.5-.2,5.565,5.565,0,0,1,4.32.164,4.873,4.873,0,0,1,2.164-.344,3.349,3.349,0,0,1,.727-1.711,3.54,3.54,0,0,1,.3-3.586l2.289.008Q2.477-1.727,4.406-1.7a2.392,2.392,0,0,0,1.375-.367A1.43,1.43,0,0,0,6.422-3.039ZM17.758-4.2a6.981,6.981,0,0,1-.7,2.359,3.826,3.826,0,0,1-1.32,1.531,3.058,3.058,0,0,1-1.75.477A2.44,2.44,0,0,1,12.055-.75l-.773,4h-2.2L11.1-8.453l2.031-.008-.148.852a2.7,2.7,0,0,1,2.156-1,2.4,2.4,0,0,1,1.93.9A3.922,3.922,0,0,1,17.8-5.344,9.133,9.133,0,0,1,17.758-4.2Zm-2.187-.16.047-.751A2.089,2.089,0,0,0,15.34-6.32a1,1,0,0,0-.855-.462,1.818,1.818,0,0,0-1.586.814l-.633,3.49a1.233,1.233,0,0,0,1.242.822,1.59,1.59,0,0,0,1.328-.618A4.234,4.234,0,0,0,15.57-4.364Zm8.672-1.972a4.548,4.548,0,0,0-.742-.078,2.136,2.136,0,0,0-1.867.883L20.656,0h-2.2l1.469-8.453,2.07-.008-.2,1.031a2.325,2.325,0,0,1,1.969-1.2,3.214,3.214,0,0,1,.766.109ZM26.523,0H24.3l1.469-8.453h2.219Zm-.492-10.6a1.1,1.1,0,0,1,.344-.867,1.209,1.209,0,0,1,.867-.344,1.215,1.215,0,0,1,.867.3,1.1,1.1,0,0,1,.383.828,1.132,1.132,0,0,1-.324.844,1.215,1.215,0,0,1-.887.375,1.235,1.235,0,0,1-.863-.3A1.091,1.091,0,0,1,26.031-10.6Zm5.844,2.141-.187,1a3.042,3.042,0,0,1,2.461-1.148,2.028,2.028,0,0,1,1.766.875,3.526,3.526,0,0,1,.414,2.359L35.438,0h-2.2l.906-5.4a2.528,2.528,0,0,0,.016-.555.9.9,0,0,0-1-.82,1.9,1.9,0,0,0-1.555.8L30.547,0h-2.2l1.469-8.453Zm9.758-2.07-.367,2.078h1.406L42.383-6.8H40.977l-.719,4.234a1.077,1.077,0,0,0,.063.609q.109.211.531.227.125.008.672-.039L41.367-.039A3.706,3.706,0,0,1,40.1.141a1.985,1.985,0,0,1-1.617-.68,2.456,2.456,0,0,1-.437-1.8L38.773-6.8h-1.2l.289-1.656h1.2l.359-2.078ZM46.57,0l1.977-11.375,3.547.008a4.705,4.705,0,0,1,2.969.8,2.488,2.488,0,0,1,.9,2.242A2.865,2.865,0,0,1,53.969-5.8a1.911,1.911,0,0,1,1.055.879,2.63,2.63,0,0,1,.32,1.52,3.291,3.291,0,0,1-1.262,2.5A5,5,0,0,1,50.938,0Zm3.156-4.953-.539,3.07,1.8.008a2.327,2.327,0,0,0,1.414-.418,1.658,1.658,0,0,0,.68-1.129,1.4,1.4,0,0,0-.191-1.1,1.269,1.269,0,0,0-1.012-.426Zm.281-1.656,1.555.016A2.475,2.475,0,0,0,52.98-7a1.575,1.575,0,0,0,.66-1.086q.2-1.375-1.445-1.383l-1.687-.008ZM61.3,0a2.281,2.281,0,0,1-.086-.766,2.863,2.863,0,0,1-2.156.922,2.594,2.594,0,0,1-1.84-.723,2.186,2.186,0,0,1-.684-1.746A2.527,2.527,0,0,1,57.7-4.434a5.266,5.266,0,0,1,2.965-.738l1.031.016.109-.508a1.764,1.764,0,0,0,.023-.492.846.846,0,0,0-.277-.574.955.955,0,0,0-.629-.215,1.345,1.345,0,0,0-.875.254,1.231,1.231,0,0,0-.461.777l-2.211.008a2.457,2.457,0,0,1,1.113-1.965A4.312,4.312,0,0,1,61.1-8.609a3.117,3.117,0,0,1,2.25.855,2.5,2.5,0,0,1,.68,2.121l-.648,4.047-.039.5a2.412,2.412,0,0,0,.133.938L63.469,0Zm-1.7-1.555a2.017,2.017,0,0,0,1.664-.828l.273-1.461-.766-.008a2.139,2.139,0,0,0-1.758.742,1.292,1.292,0,0,0-.242.633.75.75,0,0,0,.176.668A.891.891,0,0,0,59.609-1.555Zm8.906-.1a1.447,1.447,0,0,0,1.016-.332,1.632,1.632,0,0,0,.531-.926l2.07-.008a3.037,3.037,0,0,1-.559,1.6A3.394,3.394,0,0,1,70.23-.211a3.847,3.847,0,0,1-1.77.375A3.123,3.123,0,0,1,66.023-.9a3.965,3.965,0,0,1-.867-2.766l.023-.43.008-.086a5.284,5.284,0,0,1,1.391-3.27,3.761,3.761,0,0,1,2.914-1.16,3.047,3.047,0,0,1,2.27.934A3.3,3.3,0,0,1,72.586-5.3H70.531a1.73,1.73,0,0,0-.3-1.07,1.128,1.128,0,0,0-.891-.422q-1.578-.047-1.914,2.3a7.782,7.782,0,0,0-.086,1.438Q67.422-1.68,68.516-1.656Zm8.125-1.711-1.023.891L75.188,0h-2.2l2.078-12h2.211L76.133-5.484l.43-.461L79.07-8.453H81.9L78.2-4.82,80.555,0H78.141ZM83.68,0H81.461l2.086-12h2.211Zm6.7-8.609a3.39,3.39,0,0,1,1.926.574A3.234,3.234,0,0,1,93.5-6.5a4.762,4.762,0,0,1,.27,2.176,5.143,5.143,0,0,1-1.4,3.262A3.96,3.96,0,0,1,89.344.156,3.38,3.38,0,0,1,87.438-.41,3.222,3.222,0,0,1,86.25-1.937a4.657,4.657,0,0,1-.273-2.156A5.3,5.3,0,0,1,87.4-7.422,3.878,3.878,0,0,1,90.383-8.609ZM88.156-3.294a1.95,1.95,0,0,0,.352,1.182,1.168,1.168,0,0,0,.945.449A1.712,1.712,0,0,0,91.047-2.6a4.647,4.647,0,0,0,.539-2.531,2.122,2.122,0,0,0-.363-1.2,1.149,1.149,0,0,0-.949-.464,1.715,1.715,0,0,0-1.574.924A4.6,4.6,0,0,0,88.156-3.294Zm6.664-.94A5.849,5.849,0,0,1,96.1-7.418a3.242,3.242,0,0,1,2.629-1.2,2.37,2.37,0,0,1,2.016.977l.289-.82,2.023.008L101.672-.289a3.983,3.983,0,0,1-1.437,2.672,4.471,4.471,0,0,1-3,.953,4.168,4.168,0,0,1-1.672-.379,3.575,3.575,0,0,1-1.312-1L95.344.617a2.349,2.349,0,0,0,1.844.961,2.166,2.166,0,0,0,1.469-.449,2.4,2.4,0,0,0,.828-1.355l.125-.508a2.749,2.749,0,0,1-2.07.891,2.428,2.428,0,0,1-1.961-.918,3.947,3.947,0,0,1-.8-2.348A7.89,7.89,0,0,1,94.82-4.234Zm2.164.927a2.02,2.02,0,0,0,.309,1.178,1.08,1.08,0,0,0,.895.466,1.972,1.972,0,0,0,1.594-.767l.656-3.583A1.3,1.3,0,0,0,99.2-6.781a1.728,1.728,0,0,0-1.43.681,3.561,3.561,0,0,0-.734,1.87A8.213,8.213,0,0,0,96.984-3.307Z" transform="translate(497.365 6356.446)" fill="#fff"/>
    <path id="Trazado_818319" data-name="Trazado 818319" d="M3.359-4.008V0H1.016V-11.375H5.453a5.134,5.134,0,0,1,2.254.469A3.454,3.454,0,0,1,9.2-9.574a3.714,3.714,0,0,1,.523,1.965A3.266,3.266,0,0,1,8.582-4.973a4.767,4.767,0,0,1-3.168.965Zm0-1.9H5.453a2.059,2.059,0,0,0,1.418-.437,1.591,1.591,0,0,0,.488-1.25,1.876,1.876,0,0,0-.492-1.352,1.839,1.839,0,0,0-1.359-.531H3.359ZM13.57,0H11.3V-8.453H13.57Zm-2.4-10.641a1.112,1.112,0,0,1,.34-.836,1.277,1.277,0,0,1,.926-.328,1.28,1.28,0,0,1,.922.328,1.105,1.105,0,0,1,.344.836,1.108,1.108,0,0,1-.348.844,1.283,1.283,0,0,1-.918.328A1.283,1.283,0,0,1,11.52-9.8,1.108,1.108,0,0,1,11.172-10.641ZM17.813,0H15.547V-12h2.266ZM24.57,0a2.507,2.507,0,0,1-.227-.758,2.732,2.732,0,0,1-2.133.914,3,3,0,0,1-2.059-.719,2.312,2.312,0,0,1-.816-1.812,2.389,2.389,0,0,1,1-2.062,4.915,4.915,0,0,1,2.879-.727H24.25v-.484a1.393,1.393,0,0,0-.3-.937A1.183,1.183,0,0,0,23-6.937a1.345,1.345,0,0,0-.895.273.929.929,0,0,0-.324.75H19.523a2.268,2.268,0,0,1,.453-1.359,3,3,0,0,1,1.281-.98,4.669,4.669,0,0,1,1.859-.355,3.689,3.689,0,0,1,2.48.785,2.747,2.747,0,0,1,.918,2.207v3.664a4.041,4.041,0,0,0,.336,1.82V0ZM22.7-1.57a1.945,1.945,0,0,0,.922-.223,1.462,1.462,0,0,0,.625-.6V-3.844h-.844q-1.7,0-1.8,1.172l-.008.133a.9.9,0,0,0,.3.7A1.153,1.153,0,0,0,22.7-1.57Zm9.18-2.719a5.094,5.094,0,0,1,.887-3.148A2.877,2.877,0,0,1,35.2-8.609a2.589,2.589,0,0,1,2.039.922V-12H39.5V0H37.461l-.109-.9A2.657,2.657,0,0,1,35.18.156,2.869,2.869,0,0,1,32.785-1.02,5.258,5.258,0,0,1,31.883-4.289Zm2.258.161A3.355,3.355,0,0,0,34.555-2.3a1.348,1.348,0,0,0,1.2.636,1.51,1.51,0,0,0,1.477-.887V-5.9a1.489,1.489,0,0,0-1.461-.887Q34.141-6.789,34.141-4.128Zm11,4.285A4.15,4.15,0,0,1,42.113-.984a4.054,4.054,0,0,1-1.168-3.039v-.219a5.106,5.106,0,0,1,.492-2.277,3.612,3.612,0,0,1,1.395-1.547,3.914,3.914,0,0,1,2.059-.543,3.508,3.508,0,0,1,2.73,1.094,4.444,4.444,0,0,1,1,3.1v.922H43.234a2.1,2.1,0,0,0,.66,1.328,2,2,0,0,0,1.395.5,2.437,2.437,0,0,0,2.039-.945l1.109,1.242A3.389,3.389,0,0,1,47.063-.246,4.511,4.511,0,0,1,45.141.156Zm-.258-6.945a1.411,1.411,0,0,0-1.09.455,2.357,2.357,0,0,0-.535,1.3H46.4v-.181a1.681,1.681,0,0,0-.406-1.165A1.456,1.456,0,0,0,44.883-6.789ZM52.281,0H50.016V-12h2.266Zm9.9-2.383q.125-.625-.867-.906l-.711-.18q-2.523-.7-2.453-2.453a2.428,2.428,0,0,1,1.059-1.949,3.942,3.942,0,0,1,2.457-.738,3.536,3.536,0,0,1,2.313.758,2.5,2.5,0,0,1,.9,1.977l-2.187-.008a.963.963,0,0,0-1.078-1.1,1.552,1.552,0,0,0-.895.258,1.061,1.061,0,0,0-.465.7q-.117.625.945.883l.313.07a6.285,6.285,0,0,1,1.648.59,2.488,2.488,0,0,1,.879.824,2.04,2.04,0,0,1,.285,1.18,2.251,2.251,0,0,1-.52,1.406,3.18,3.18,0,0,1-1.359.93,4.736,4.736,0,0,1-1.816.3,3.568,3.568,0,0,1-2.344-.809A2.607,2.607,0,0,1,57.328-2.7l2.078.016a1.142,1.142,0,0,0,1.3,1.227,1.845,1.845,0,0,0,1-.25A.987.987,0,0,0,62.18-2.383ZM73.453-4.2a6.981,6.981,0,0,1-.7,2.359,3.826,3.826,0,0,1-1.32,1.531,3.058,3.058,0,0,1-1.75.477A2.44,2.44,0,0,1,67.75-.75l-.773,4h-2.2L66.8-8.453l2.031-.008-.148.852a2.7,2.7,0,0,1,2.156-1,2.4,2.4,0,0,1,1.93.9A3.922,3.922,0,0,1,73.5-5.344,9.133,9.133,0,0,1,73.453-4.2Zm-2.187-.16.047-.751a2.089,2.089,0,0,0-.277-1.205,1,1,0,0,0-.855-.462,1.818,1.818,0,0,0-1.586.814l-.633,3.49a1.233,1.233,0,0,0,1.242.822,1.59,1.59,0,0,0,1.328-.618A4.234,4.234,0,0,0,71.266-4.364Zm8.672-1.972a4.548,4.548,0,0,0-.742-.078,2.136,2.136,0,0,0-1.867.883L76.352,0h-2.2l1.469-8.453,2.07-.008-.2,1.031a2.325,2.325,0,0,1,1.969-1.2,3.214,3.214,0,0,1,.766.109ZM82.219,0H80l1.469-8.453h2.219Zm-.492-10.6a1.1,1.1,0,0,1,.344-.867,1.209,1.209,0,0,1,.867-.344,1.215,1.215,0,0,1,.867.3,1.1,1.1,0,0,1,.383.828,1.132,1.132,0,0,1-.324.844,1.215,1.215,0,0,1-.887.375,1.235,1.235,0,0,1-.863-.3A1.091,1.091,0,0,1,81.727-10.6ZM87.57-8.461l-.187,1a3.042,3.042,0,0,1,2.461-1.148,2.028,2.028,0,0,1,1.766.875,3.526,3.526,0,0,1,.414,2.359L91.133,0h-2.2l.906-5.4a2.528,2.528,0,0,0,.016-.555.9.9,0,0,0-1-.82,1.9,1.9,0,0,0-1.555.8L86.242,0h-2.2l1.469-8.453Zm9.758-2.07-.367,2.078h1.406L98.078-6.8H96.672l-.719,4.234a1.077,1.077,0,0,0,.063.609q.109.211.531.227.125.008.672-.039L97.063-.039A3.706,3.706,0,0,1,95.8.141a1.985,1.985,0,0,1-1.617-.68,2.456,2.456,0,0,1-.437-1.8L94.469-6.8h-1.2l.289-1.656h1.2l.359-2.078Z" transform="translate(502.969 6372.564)" fill="#fff"/>
  </g>
</svg>
