<svg xmlns="http://www.w3.org/2000/svg" xmlns:xlink="http://www.w3.org/1999/xlink" width="123" height="123" viewBox="0 0 123 123">
  <defs>
    <filter id="Elipse_4721" x="0" y="0" width="123" height="123" filterUnits="userSpaceOnUse">
      <feOffset dy="1" input="SourceAlpha"/>
      <feGaussianBlur stdDeviation="5.5" result="blur"/>
      <feFlood flood-color="#fff" flood-opacity="0.902"/>
      <feComposite operator="in" in2="blur"/>
      <feComposite in="SourceGraphic"/>
    </filter>
  </defs>
  <g id="Grupo_1071998" data-name="Grupo 1071998" transform="translate(-1070.833 -405.821)">
    <g transform="matrix(1, 0, 0, 1, 1070.83, 405.82)" filter="url(#Elipse_4721)">
      <g id="Elipse_4721-2" data-name="Elipse 4721" transform="translate(16.5 15.5)" fill="none" stroke="#fff" stroke-width="6">
        <circle cx="45" cy="45" r="45" stroke="none"/>
        <circle cx="45" cy="45" r="42" fill="none"/>
      </g>
    </g>
    <g id="storyboard" transform="translate(1100.333 433.822)">
      <path id="Trazado_818094" data-name="Trazado 818094" d="M461.939,55.647V93.763l-2.019,6.662a1.037,1.037,0,0,1-1.885.011l-2.086-6.673V55.647a2.995,2.995,0,0,1,5.99,0Zm0,0" transform="translate(-399.713 -45.72)" fill="#005ca0"/>
      <path id="Trazado_818095" data-name="Trazado 818095" d="M456.063,55.368c.058,0,.116-.009.175-.009a3,3,0,0,1,2.995,2.995V93.77l2.806-.007V55.647a2.994,2.994,0,0,0-5.976-.279Zm0,0" transform="translate(-399.813 -45.72)" fill="#005182"/>
      <path id="Trazado_818096" data-name="Trazado 818096" d="M455.949,375.6v1.279l2.086,6.673a1.036,1.036,0,0,0,1.885-.011l2.019-6.662V375.6Zm0,0" transform="translate(-399.713 -328.837)" fill="#ffded5"/>
      <path id="Trazado_818097" data-name="Trazado 818097" d="M29.233,95.094H8.722a1.234,1.234,0,0,1-1.233-1.233V78.921a1.234,1.234,0,0,1,1.233-1.233H29.233a1.233,1.233,0,0,1,1.233,1.233v14.94A1.234,1.234,0,0,1,29.233,95.094Zm0,0" transform="translate(-6.565 -67.667)" fill="#fad200"/>
      <path id="Trazado_818098" data-name="Trazado 818098" d="M252.6,200.66H232.093a1.233,1.233,0,0,1-1.233-1.233v-14.94a1.234,1.234,0,0,1,1.233-1.233H252.6a1.234,1.234,0,0,1,1.233,1.233v14.94A1.233,1.233,0,0,1,252.6,200.66Zm0,0" transform="translate(-202.386 -160.213)" fill="#fad200"/>
      <path id="Trazado_818099" data-name="Trazado 818099" d="M252.6,377.039H232.093a1.233,1.233,0,0,1-1.233-1.233V360.866a1.233,1.233,0,0,1,1.233-1.233H252.6a1.233,1.233,0,0,1,1.233,1.233v14.939A1.233,1.233,0,0,1,252.6,377.039Zm0,0" transform="translate(-202.386 -314.838)" fill="#ffded5"/>
      <path id="Trazado_818100" data-name="Trazado 818100" d="M252.6,377.039H232.093a1.233,1.233,0,0,1-1.233-1.233V360.866a1.233,1.233,0,0,1,1.233-1.233H252.6a1.233,1.233,0,0,1,1.233,1.233v14.939A1.233,1.233,0,0,1,252.6,377.039Zm0,0" transform="translate(-202.386 -314.838)" fill="#ff738b"/>
      <path id="Trazado_818101" data-name="Trazado 818101" d="M26.011,77.688V90.5a1.231,1.231,0,0,1-1.231,1.231H7.488v2.133A1.232,1.232,0,0,0,8.72,95.094H29.234a1.231,1.231,0,0,0,1.231-1.231V78.919a1.231,1.231,0,0,0-1.231-1.231H26.011Zm0,0" transform="translate(-6.565 -67.667)" fill="#fab700"/>
      <path id="Trazado_818102" data-name="Trazado 818102" d="M29.233,271.441H8.722a1.234,1.234,0,0,1-1.233-1.233V255.269a1.234,1.234,0,0,1,1.233-1.233H29.233a1.233,1.233,0,0,1,1.233,1.233v14.939A1.233,1.233,0,0,1,29.233,271.441Zm0,0" transform="translate(-6.565 -222.265)" fill="#ff738b"/>
      <path id="Trazado_818103" data-name="Trazado 818103" d="M26.011,254.035v12.81a1.232,1.232,0,0,1-1.231,1.232H7.488v2.133a1.232,1.232,0,0,0,1.232,1.231H29.234a1.231,1.231,0,0,0,1.231-1.231V255.267a1.232,1.232,0,0,0-1.231-1.232Zm0,0" transform="translate(-6.565 -222.265)" fill="#ee4a84"/>
      <path id="Trazado_818104" data-name="Trazado 818104" d="M249.382,183.254V197.3H230.859v2.133a1.232,1.232,0,0,0,1.232,1.232h20.514a1.232,1.232,0,0,0,1.231-1.232V184.486a1.231,1.231,0,0,0-1.231-1.231h-3.224Zm0,0" transform="translate(-202.386 -160.213)" fill="#fab700"/>
      <path id="Trazado_818105" data-name="Trazado 818105" d="M249.382,359.633v12.81a1.232,1.232,0,0,1-1.231,1.231H230.859v2.133a1.232,1.232,0,0,0,1.232,1.231h20.514a1.231,1.231,0,0,0,1.231-1.231V360.865a1.232,1.232,0,0,0-1.231-1.232Zm0,0" transform="translate(-202.386 -314.838)" fill="#ee4a84"/>
      <path id="Trazado_818106" data-name="Trazado 818106" d="M252.6,25.394H232.093a1.233,1.233,0,0,1-1.233-1.233V9.222a1.233,1.233,0,0,1,1.233-1.233H252.6a1.233,1.233,0,0,1,1.233,1.233V24.161A1.233,1.233,0,0,1,252.6,25.394Zm0,0" transform="translate(-202.386 -6.565)" fill="#fad200"/>
      <path id="Trazado_818107" data-name="Trazado 818107" d="M249.382,7.988V20.8a1.232,1.232,0,0,1-1.231,1.232H230.859v2.133a1.232,1.232,0,0,0,1.232,1.231h20.514a1.232,1.232,0,0,0,1.231-1.231V9.22a1.232,1.232,0,0,0-1.231-1.232Zm0,0" transform="translate(-202.386 -6.565)" fill="#fab700"/>
      <path id="Trazado_818108" data-name="Trazado 818108" d="M230.859,19.055v14.81a1.232,1.232,0,0,0,1.232,1.231H246.9Zm0,0" transform="translate(-202.386 -16.266)" fill="#ff738b"/>
      <path id="Trazado_818109" data-name="Trazado 818109" d="M230.859,121.836v2.133a1.232,1.232,0,0,0,1.232,1.231H246.9l-3.365-3.364Zm0,0" transform="translate(-202.386 -106.371)" fill="#ee4a84"/>
      <path id="Trazado_818110" data-name="Trazado 818110" d="M295.97,40.048a4.59,4.59,0,1,1-4.59-4.59A4.591,4.591,0,0,1,295.97,40.048Zm0,0" transform="translate(-251.417 -30.646)" fill="#ffded5"/>
      <path id="Trazado_818111" data-name="Trazado 818111" d="M253.837,192.765l-9.508-9.508H240.48l-9.621,9.62v6.554a1.232,1.232,0,0,0,1.232,1.231h20.514a1.232,1.232,0,0,0,1.231-1.231Zm0,0" transform="translate(-202.386 -160.217)" fill="#ff738b"/>
      <path id="Trazado_818112" data-name="Trazado 818112" d="M249.382,224.223v7.757a1.232,1.232,0,0,1-1.231,1.231H230.859v2.133a1.232,1.232,0,0,0,1.232,1.232h20.514a1.232,1.232,0,0,0,1.231-1.232v-6.667Zm0,0" transform="translate(-202.386 -196.129)" fill="#ee4a84"/>
      <path id="Trazado_818113" data-name="Trazado 818113" d="M308.1,392.332a2.605,2.605,0,1,1-2.605-2.605A2.605,2.605,0,0,1,308.1,392.332Zm0,0" transform="translate(-265.529 -341.22)" fill="#ffded5"/>
      <path id="Trazado_818114" data-name="Trazado 818114" d="M69.31,181.771,64.1,176.559l-5.212,5.212Zm0,0" transform="translate(-51.624 -154.344)" fill="#ee4a84"/>
      <path id="Trazado_818115" data-name="Trazado 818115" d="M89.858,179.495l-1.586-1.586a.369.369,0,0,0-.523,0l-1.586,1.586Zm0,0" transform="translate(-75.537 -155.433)" fill="#ff738b"/>
      <path id="Trazado_818116" data-name="Trazado 818116" d="M61.576,277.868a6.478,6.478,0,1,1-6.478-6.478A6.478,6.478,0,0,1,61.576,277.868Zm0,0" transform="translate(-42.624 -237.48)" fill="#ffded5"/>
      <path id="Trazado_818117" data-name="Trazado 818117" d="M481.848,384.138a1.017,1.017,0,0,0,.777-.6l2.019-6.662V375.6h-2.8Zm0,0" transform="translate(-422.418 -328.837)" fill="#f7c6ba"/>
      <path id="Trazado_818118" data-name="Trazado 818118" d="M461.855,404.859l1.358,4.343a1.036,1.036,0,0,0,1.885-.011l1.313-4.332Zm0,0" transform="translate(-404.891 -354.487)" fill="#ff738b"/>
      <path id="Trazado_818119" data-name="Trazado 818119" d="M481.848,409.788a1.017,1.017,0,0,0,.777-.6l1.313-4.332h-2.09Zm0,0" transform="translate(-422.418 -354.487)" fill="#ee4a84"/>
      <path id="Trazado_818120" data-name="Trazado 818120" d="M452.379,45.934a3.923,3.923,0,0,0-3.918,3.918V87.968a.93.93,0,0,0,.044.281l2.086,6.513a.944.944,0,0,0,.042.108A1.94,1.94,0,0,0,452.41,96h.012A1.94,1.94,0,0,0,454.2,94.85a.9.9,0,0,0,.04-.106l2.019-6.5a.926.926,0,0,0,.041-.274V49.852A3.923,3.923,0,0,0,452.379,45.934Zm-2.071,41.89v-.306h4.142v.31L454,89.279h-3.225Zm2.071-40.042a2.073,2.073,0,0,1,2.071,2.071V85.671h-4.141V49.852A2.073,2.073,0,0,1,452.379,47.781Zm.032,46.375a.109.109,0,0,1-.086-.037l-.959-2.994h2.06l-.929,2.992A.1.1,0,0,1,452.411,94.157Zm0,0" transform="translate(-393.149 -39.83)"/>
      <path id="Trazado_818121" data-name="Trazado 818121" d="M22.67,265.8H2.156A2.158,2.158,0,0,1,0,263.645V248.7a2.158,2.158,0,0,1,2.156-2.156H22.67a2.158,2.158,0,0,1,2.156,2.156v14.943A2.158,2.158,0,0,1,22.67,265.8ZM2.156,248.394a.308.308,0,0,0-.308.308v14.943a.308.308,0,0,0,.308.308H22.67a.308.308,0,0,0,.308-.308V248.7a.308.308,0,0,0-.308-.308Zm0,0" transform="translate(0 -215.7)"/>
      <path id="Trazado_818122" data-name="Trazado 818122" d="M248.2,186.2v-8.276a2.158,2.158,0,0,0-2.156-2.156H225.527a2.158,2.158,0,0,0-2.156,2.156v8.388h0v6.553a2.158,2.158,0,0,0,2.156,2.156h20.514a2.158,2.158,0,0,0,2.156-2.156V186.2Zm-22.67-8.584h6.158l-6.466,6.467v-6.159A.308.308,0,0,1,225.527,177.613Zm20.514,15.558H225.527a.308.308,0,0,1-.308-.308v-6.171l9.079-9.079h11.743a.308.308,0,0,1,.308.308v6.046l-4.18-4.18a.924.924,0,0,0-1.307,1.306l5.486,5.487v6.284A.308.308,0,0,1,246.041,193.172Zm0,0" transform="translate(-195.821 -153.649)"/>
      <path id="Trazado_818123" data-name="Trazado 818123" d="M298.927,389.3a3.529,3.529,0,1,1,3.529-3.529A3.533,3.533,0,0,1,298.927,389.3Zm0-5.211a1.681,1.681,0,1,0,1.682,1.681A1.683,1.683,0,0,0,298.927,384.086Zm0,0" transform="translate(-258.965 -334.656)"/>
      <path id="Trazado_818124" data-name="Trazado 818124" d="M22.67,70.2H2.156A2.158,2.158,0,0,0,0,72.355V87.3a2.158,2.158,0,0,0,2.156,2.156h.771a.924.924,0,1,0,0-1.848H2.156a.308.308,0,0,1-.308-.308V72.355a.308.308,0,0,1,.308-.308H22.67a.308.308,0,0,1,.308.308V87.3a.308.308,0,0,1-.308.308h-4.6l-4.68-4.68a1.293,1.293,0,0,0-1.829,0l-4.95,4.95,0,0c-.02.02-.039.041-.057.063l-.026.035c-.009.013-.019.025-.027.038s-.017.028-.026.042-.014.023-.021.036l-.021.043c-.006.013-.013.025-.018.038s-.011.029-.016.044-.01.027-.014.041-.008.03-.012.045-.008.028-.011.043-.006.035-.008.053,0,.024-.005.037a.968.968,0,0,0,0,.183c0,.013,0,.025.005.037s0,.035.008.053.007.029.011.043.007.03.012.044.01.028.014.041.01.029.016.044.012.026.018.038l.021.044L6.469,89c.008.014.016.028.026.042s.018.025.027.038.017.024.026.035.037.043.057.063l0,0,0,0c.02.02.042.04.064.058l.033.025.04.029.04.025.037.022.042.021.04.018.042.015.043.015.043.011.045.011.05.007.039.006c.031,0,.061,0,.092,0H22.67A2.158,2.158,0,0,0,24.825,87.3V72.355A2.158,2.158,0,0,0,22.67,70.2Zm-10.2,14.425,2.981,2.981H9.493Zm0,0" transform="translate(0 -61.103)"/>
      <path id="Trazado_818125" data-name="Trazado 818125" d="M246.041.5H225.527a2.158,2.158,0,0,0-2.156,2.156V17.6a2.158,2.158,0,0,0,2.156,2.156h20.514A2.158,2.158,0,0,0,248.2,17.6V2.656A2.158,2.158,0,0,0,246.041.5ZM225.527,17.906a.308.308,0,0,1-.308-.308V5.019l5.1,5.1a5.522,5.522,0,0,0,4.75,4.75l3.038,3.038Zm10.257-4.838A3.666,3.666,0,1,1,239.45,9.4,3.671,3.671,0,0,1,235.783,13.068Zm10.565,4.53a.308.308,0,0,1-.308.308h-5.322l-3.254-3.253a5.514,5.514,0,1,0-6.933-6.933l-5.25-5.251a.306.306,0,0,1,.244-.122h20.514a.308.308,0,0,1,.308.308Zm0,0" transform="translate(-195.821)"/>
      <path id="Trazado_818126" data-name="Trazado 818126" d="M48.534,278.7a7.4,7.4,0,1,1,7.4-7.4A7.41,7.41,0,0,1,48.534,278.7Zm0-12.955a5.554,5.554,0,1,0,5.554,5.554A5.56,5.56,0,0,0,48.534,265.75Zm0,0" transform="translate(-36.06 -230.915)"/>
      <path id="Trazado_818127" data-name="Trazado 818127" d="M246.041,371.4H225.527a2.158,2.158,0,0,1-2.156-2.156V354.3a2.158,2.158,0,0,1,2.156-2.156h20.514A2.158,2.158,0,0,1,248.2,354.3v14.943A2.158,2.158,0,0,1,246.041,371.4Zm-20.514-17.406a.308.308,0,0,0-.308.308v14.943a.308.308,0,0,0,.308.308h20.514a.308.308,0,0,0,.308-.308V354.3a.308.308,0,0,0-.308-.308Zm0,0" transform="translate(-195.821 -308.273)"/>
    </g>
  </g>
</svg>
