<svg xmlns="http://www.w3.org/2000/svg" width="85" height="85" viewBox="0 0 85 85">
  <g id="Grupo_1072207" data-name="Grupo 1072207" transform="translate(-285 -4025)">
    <circle id="Elipse_9699" data-name="Elipse 9699" cx="42.5" cy="42.5" r="42.5" transform="translate(285 4025)" fill="#dc40ed"/>
    <g id="idea_1_" data-name="idea (1)" transform="translate(250.532 4037)">
      <path id="Trazado_818164" data-name="Trazado 818164" d="M391.047,234.7h-.535l.808-10.97h2.9a3.7,3.7,0,0,1,3.7,3.7v.4A6.871,6.871,0,0,1,391.047,234.7Z" transform="translate(-297.353 -196.799)" fill="#f9a58e"/>
      <path id="Trazado_818165" data-name="Trazado 818165" d="M66.839,234.7h.535l-.808-10.97h-2.9a3.7,3.7,0,0,0-3.7,3.7v.4A6.871,6.871,0,0,0,66.839,234.7Z" transform="translate(-6.597 -196.799)" fill="#eaac9d"/>
      <path id="Trazado_818166" data-name="Trazado 818166" d="M152.422,424.789v-3.145c-3.083,2.109-6.488,3.317-8.795,3.317s-5.712-1.208-8.795-3.317v3.144a4.556,4.556,0,0,1-2.585,4.108l-3.717,1.784a.493.493,0,0,0,.213.938h29.768a.493.493,0,0,0,.213-.938l-3.717-1.784A4.556,4.556,0,0,1,152.422,424.789Z" transform="translate(-66.659 -370.89)" fill="#ffcbbe"/>
      <path id="Trazado_818167" data-name="Trazado 818167" d="M147.017,63.042a17.27,17.27,0,1,0-34.446,0l1.174,15.944c.619,8.406,10.982,14.232,16.049,14.232s15.43-5.826,16.049-14.232Z" transform="translate(-52.826 -39.147)" fill="#ffcbbe"/>
      <path id="Trazado_818168" data-name="Trazado 818168" d="M198.955,51.145a17.249,17.249,0,0,1,7.2,15.331l-1.174,15.944c-.619,8.406-10.982,14.232-16.049,14.232a11.8,11.8,0,0,1-3.7-.724c3.009,1.994,6.281,3.131,8.519,3.131,5.066,0,15.43-5.826,16.049-14.232l1.174-15.944A17.279,17.279,0,0,0,198.955,51.145Z" transform="translate(-116.775 -44.989)" fill="#eaac9d"/>
      <path id="Trazado_818169" data-name="Trazado 818169" d="M168.937,104.2l-1.051-.49a1.506,1.506,0,0,1-.556-2.283,14.087,14.087,0,0,0-2.5-2.571,8.772,8.772,0,0,1-4.092,5.341,1.3,1.3,0,0,0-.61.84l-.257,1.134a1.257,1.257,0,0,1-1.226.979h-4.556a1.257,1.257,0,0,1-1.226-.979l-.255-1.123a1.32,1.32,0,0,0-.619-.854,8.771,8.771,0,0,1-4.085-5.337,14.076,14.076,0,0,0-2.647,2.775c.014.026.027.052.04.079a1.5,1.5,0,0,1-.728,2l-.7.325a13.445,13.445,0,0,0-1.136,4.6,1.835,1.835,0,0,0,1.831,1.956h23.6A1.835,1.835,0,0,0,170,108.632,13.445,13.445,0,0,0,168.937,104.2Z" transform="translate(-79.403 -86.959)" fill="#9dc6fb"/>
      <path id="Trazado_818170" data-name="Trazado 818170" d="M170,108.632a13.446,13.446,0,0,0-1.063-4.43l-1.051-.49a1.506,1.506,0,0,1-.556-2.283,14.085,14.085,0,0,0-2.5-2.571,8.705,8.705,0,0,1-.994,2.322,13.431,13.431,0,0,1,1.346,5.044,1.835,1.835,0,0,1-1.831,1.956H142.778q-.022.225-.038.451a1.835,1.835,0,0,0,1.831,1.956h23.6A1.835,1.835,0,0,0,170,108.632Z" transform="translate(-79.403 -86.959)" fill="#80b4fb"/>
      <path id="Trazado_818171" data-name="Trazado 818171" d="M238.075,171.187h-5.684v-3.313a.125.125,0,0,1,.125-.125h5.435a.125.125,0,0,1,.125.125Z" transform="translate(-158.265 -147.557)" fill="#c6c1c8"/>
      <path id="Trazado_818172" data-name="Trazado 818172" d="M200.79,16.251a8.753,8.753,0,1,0-13.13,7.582,1.32,1.32,0,0,1,.619.854l.255,1.123a1.257,1.257,0,0,0,1.226.979h4.556a1.257,1.257,0,0,0,1.226-.979l.257-1.134a1.3,1.3,0,0,1,.61-.84,8.749,8.749,0,0,0,4.382-7.585Z" transform="translate(-115.07 -6.596)" fill="#f6e781"/>
      <path id="Trazado_818173" data-name="Trazado 818173" d="M229.054,8.315a8.755,8.755,0,0,1-1.76,13.833,1.3,1.3,0,0,0-.61.84l-.257,1.134a1.257,1.257,0,0,1-1.226.979h-1.33a1.369,1.369,0,0,1,.109.306l.255,1.123a1.257,1.257,0,0,0,1.226.979h4.556a1.257,1.257,0,0,0,1.226-.979l.257-1.134a1.3,1.3,0,0,1,.61-.84,8.755,8.755,0,0,0-3.055-16.24Z" transform="translate(-150.771 -7.315)" fill="#f4dd45"/>
      <path id="Trazado_818174" data-name="Trazado 818174" d="M358.777,69.426H356.5a1.5,1.5,0,1,1,0-3.009h2.273a1.5,1.5,0,0,1,0,3.009Z" transform="translate(-266.114 -58.423)" fill="#fff9e2"/>
      <path id="Trazado_818175" data-name="Trazado 818175" d="M348.64,12.367l-2.06.961a1.5,1.5,0,1,1-1.272-2.727l2.06-.961a1.5,1.5,0,1,1,1.272,2.727Z" transform="translate(-256.825 -8.355)" fill="#fff9e2"/>
      <path id="Trazado_818176" data-name="Trazado 818176" d="M348.64,116.451l-2.06-.961a1.5,1.5,0,0,0-1.272,2.727l2.06.961a1.5,1.5,0,1,0,1.272-2.727Z" transform="translate(-256.825 -101.465)" fill="#fff9e2"/>
      <path id="Trazado_818177" data-name="Trazado 818177" d="M112.279,69.426h2.273a1.5,1.5,0,0,0,0-3.009h-2.273a1.5,1.5,0,1,0,0,3.009Z" transform="translate(-51.287 -58.423)" fill="#fff9e2"/>
      <path id="Trazado_818178" data-name="Trazado 818178" d="M123.966,12.367l2.06.961A1.5,1.5,0,0,0,127.3,10.6l-2.06-.961a1.5,1.5,0,1,0-1.272,2.727Z" transform="translate(-62.127 -8.355)" fill="#fff9e2"/>
      <path id="Trazado_818179" data-name="Trazado 818179" d="M123.966,116.451l2.06-.961a1.5,1.5,0,0,1,1.272,2.727l-2.06.961a1.5,1.5,0,1,1-1.272-2.727Z" transform="translate(-62.127 -101.465)" fill="#fff9e2"/>
      <g id="Grupo_1072206" data-name="Grupo 1072206" transform="translate(52.468 -0.001)">
        <path id="Trazado_818180" data-name="Trazado 818180" d="M96.87,26.028H94.939l.152-2.067a18.1,18.1,0,0,0-3.447-12.055h1.019a2.407,2.407,0,0,0,0-4.815H90.389a2.41,2.41,0,0,0-2.133,1.291,18.25,18.25,0,0,0-2-1.379,9.659,9.659,0,0,0-9.523-7,9.5,9.5,0,0,0-4.278,1.123.9.9,0,0,0,.849,1.594,7.706,7.706,0,0,1,3.472-.911,7.851,7.851,0,0,1,4.11,14.651,2.2,2.2,0,0,0-1.039,1.421l-.257,1.134a.352.352,0,0,1-.345.276H77.73v-3.34a3.33,3.33,0,0,0,2.422-3.2.9.9,0,1,0-1.806,0,1.519,1.519,0,0,1-3.038,0,.9.9,0,1,0-1.806,0,3.33,3.33,0,0,0,2.422,3.2v3.34H74.69a.352.352,0,0,1-.345-.276L74.09,17.89a2.228,2.228,0,0,0-1.047-1.435A7.839,7.839,0,0,1,70.528,5.182a.9.9,0,1,0-1.48-1.034A9.622,9.622,0,0,0,67.685,7a18.225,18.225,0,0,0-2.21,1.548,2.411,2.411,0,0,0-2.211-1.455H60.991a2.407,2.407,0,0,0,0,4.815h1.3a18.242,18.242,0,0,0-1.854,3.159,2.437,2.437,0,0,0-.291.67,18.126,18.126,0,0,0-1.3,8.226L59,26.028H57.066a4.6,4.6,0,0,0-4.6,4.6v.4A7.783,7.783,0,0,0,59.937,38.8l.082,1.108a12.446,12.446,0,0,0,1.3,4.633.9.9,0,1,0,1.617-.8,10.651,10.651,0,0,1-1.116-3.962L60.645,23.829a16.251,16.251,0,0,1,.527-5.455,2.416,2.416,0,0,0,1.756.341,14.424,14.424,0,0,0-.491,2.9,2.74,2.74,0,0,0,2.732,2.919H82.855a.9.9,0,1,0,0-1.806H80.712v-2.2a2.157,2.157,0,0,0,.639-1.111l.257-1.134a.4.4,0,0,1,.181-.258,9.686,9.686,0,0,0,4.048-4.563,13.212,13.212,0,0,1,1.018,1.108,2.407,2.407,0,0,0,1.245,3l.733.342a12.549,12.549,0,0,1,.862,3.82.932.932,0,0,1-.93.993h-1.7a.9.9,0,1,0,0,1.806h1.7A2.74,2.74,0,0,0,91.5,21.614a14.426,14.426,0,0,0-.481-2.862,2.422,2.422,0,0,0,1.7-.55,16.252,16.252,0,0,1,.575,5.626L92.116,39.773c-.525,7.135-9.645,13.4-15.148,13.4-3.077,0-8.262-2.342-11.7-6.1a.9.9,0,0,0-1.331,1.22,21.542,21.542,0,0,0,3.337,2.942V53.9A3.672,3.672,0,0,1,65.2,57.192L61.48,58.976a1.4,1.4,0,0,0,.6,2.654H91.851a1.4,1.4,0,0,0,.6-2.654l-3.717-1.784A3.672,3.672,0,0,1,86.665,53.9V51.219c3.734-2.677,6.906-6.625,7.252-11.314L94,38.8a7.783,7.783,0,0,0,7.469-7.768v-.4A4.6,4.6,0,0,0,96.87,26.028ZM65.767,13.32a2.4,2.4,0,0,0-2.134-.163,16.392,16.392,0,0,1,3.682-3.75,9.676,9.676,0,0,0,.187,2.151,14.978,14.978,0,0,0-1.735,1.762ZM60.389,9.5a.6.6,0,0,1,.6-.6h2.273a.6.6,0,0,1,0,1.2H60.991A.6.6,0,0,1,60.389,9.5ZM54.274,31.03v-.4a2.8,2.8,0,0,1,2.792-2.792h2.064l.674,9.148A5.976,5.976,0,0,1,54.274,31.03Zm9.965-9.3a12.536,12.536,0,0,1,.928-3.983l.385-.18a2.408,2.408,0,0,0,1.323-2.749,13.2,13.2,0,0,1,1.219-1.361,9.662,9.662,0,0,0,4.044,4.556.418.418,0,0,1,.19.272l.255,1.123a2.157,2.157,0,0,0,.639,1.111v2.2H65.169A.932.932,0,0,1,64.239,21.733Zm10.79.993V21.095h3.878v1.632ZM87.957,58.82l2.093,1H63.885l2.093-1a5.487,5.487,0,0,0,3.1-4.922V52.4a17.073,17.073,0,0,0,7.892,2.571,16.935,16.935,0,0,0,7.892-2.581V53.9A5.487,5.487,0,0,0,87.957,58.82ZM90.389,8.9h2.273a.6.6,0,1,1,0,1.2H90.389a.6.6,0,0,1-.4-.153l-.057-.059a.6.6,0,0,1,.458-.992ZM91.724,16.6a.6.6,0,0,1-.8.291l-2.06-.961a.6.6,0,1,1,.509-1.091l2.06.961a.6.6,0,0,1,.291.8Zm-29.5-.8,2.06-.961a.6.6,0,1,1,.509,1.091l-2.06.961A.6.6,0,1,1,62.22,15.8Zm27.916-2.6a2.4,2.4,0,0,0-2.055.009,14.984,14.984,0,0,0-1.648-1.659,9.6,9.6,0,0,0,.188-2.15,16.4,16.4,0,0,1,3.814,3.939ZM99.662,31.03a5.976,5.976,0,0,1-5.53,5.952l.674-9.148H96.87a2.8,2.8,0,0,1,2.792,2.792Z" transform="translate(-52.468 0.001)" fill="#222221"/>
        <path id="Trazado_818181" data-name="Trazado 818181" d="M176.86,238.286h-7.194a.9.9,0,1,0,0,1.806h7.194a.9.9,0,1,0,0-1.806Z" transform="translate(-154.764 -209.603)" fill="#222221"/>
        <path id="Trazado_818182" data-name="Trazado 818182" d="M252.709,246.33v-4.737a1.5,1.5,0,0,1,1.5-1.5H259a.9.9,0,1,0,0-1.806h-4.79a3.311,3.311,0,0,0-3.307,3.307v4.737a1.5,1.5,0,0,1-1.5,1.5.9.9,0,1,0,0,1.806A3.311,3.311,0,0,0,252.709,246.33Z" transform="translate(-224.902 -209.603)" fill="#222221"/>
        <path id="Trazado_818183" data-name="Trazado 818183" d="M200.9,368.722a.9.9,0,1,0-.81,1.614l.756.379a12.4,12.4,0,0,0,11.072,0l.756-.379a.9.9,0,1,0-.81-1.614l-.756.379a10.588,10.588,0,0,1-9.453,0Z" transform="translate(-181.882 -324.253)" fill="#222221"/>
        <path id="Trazado_818184" data-name="Trazado 818184" d="M201.681,32.4a.9.9,0,0,0,.926-.879,4.891,4.891,0,0,1,4.719-4.707.9.9,0,0,0-.043-1.805,6.717,6.717,0,0,0-6.482,6.465A.9.9,0,0,0,201.681,32.4Z" transform="translate(-182.946 -22.002)" fill="#222221"/>
        <path id="Trazado_818185" data-name="Trazado 818185" d="M338.519,7.634a2.392,2.392,0,0,0,1.841-.08l2.06-.961a2.407,2.407,0,1,0-2.035-4.364l-2.06.961a2.407,2.407,0,0,0,.194,4.444Zm.258-2.468a.6.6,0,0,1,.311-.34l2.06-.961a.6.6,0,1,1,.509,1.091l-2.06.961a.6.6,0,0,1-.82-.751Z" transform="translate(-302.692 -1.762)" fill="#222221"/>
        <path id="Trazado_818186" data-name="Trazado 818186" d="M116.982,6.592l2.06.961a2.408,2.408,0,1,0,2.035-4.364l-2.06-.961a2.408,2.408,0,0,0-2.035,4.364Zm.472-2.436a.6.6,0,0,1,.8-.291l2.06.961a.6.6,0,1,1-.509,1.091l-2.06-.961a.6.6,0,0,1-.291-.8Z" transform="translate(-107.993 -1.761)" fill="#222221"/>
      </g>
    </g>
  </g>
</svg>
