<svg xmlns="http://www.w3.org/2000/svg" width="102" height="102" viewBox="0 0 102 102">
  <g id="Grupo_1072086" data-name="Grupo 1072086" transform="translate(-1169 -4275)">
    <circle id="Elipse_9684" data-name="Elipse 9684" cx="51" cy="51" r="51" transform="translate(1169 4275)" fill="#fff"/>
    <g id="gestion-de-equipos" transform="translate(1183 4288.565)">
      <g id="Grupo_1072062" data-name="Grupo 1072062" transform="translate(20.684 1.529)">
        <g id="Grupo_1072057" data-name="Grupo 1072057" transform="translate(0 0)">
          <circle id="Elipse_9685" data-name="Elipse 9685" cx="16.644" cy="16.644" r="16.644" fill="#f7e365"/>
        </g>
        <g id="Grupo_1072058" data-name="Grupo 1072058" transform="translate(3.285 3.285)">
          <path id="Trazado_818054" data-name="Trazado 818054" d="M187.674,30.468a16.645,16.645,0,0,1-23.288,23.288,16.645,16.645,0,1,0,23.288-23.288Z" transform="translate(-164.386 -30.468)" fill="#f3d332"/>
        </g>
        <g id="Grupo_1072061" data-name="Grupo 1072061" transform="translate(6.727 6.156)">
          <g id="Grupo_1072059" data-name="Grupo 1072059">
            <path id="Trazado_818055" data-name="Trazado 818055" d="M205.274,60.592l2.164-2.35a1.473,1.473,0,0,0,.192-1.734L206.356,54.3a1.473,1.473,0,0,0-1.6-.7l-3.116.7-.1-.057-.953-3.048a1.473,1.473,0,0,0-1.406-1.034h-2.548a1.473,1.473,0,0,0-1.406,1.034l-.953,3.048-.1.057-3.116-.7a1.473,1.473,0,0,0-1.6.7l-1.274,2.206a1.473,1.473,0,0,0,.192,1.734l2.164,2.35v.113l-2.164,2.35a1.473,1.473,0,0,0-.192,1.734L189.465,67a1.473,1.473,0,0,0,1.6.7l3.116-.7.1.057.953,3.048a1.473,1.473,0,0,0,1.406,1.034h2.548A1.473,1.473,0,0,0,200.59,70.1l.953-3.048.1-.057,3.116.7a1.473,1.473,0,0,0,1.6-.7l1.274-2.206a1.473,1.473,0,0,0-.192-1.734l-2.164-2.35v-.113Zm-7.363,2.413a2.357,2.357,0,1,1,2.357-2.357A2.357,2.357,0,0,1,197.911,63.005Z" transform="translate(-187.994 -50.161)" fill="#62a4fb"/>
          </g>
          <g id="Grupo_1072060" data-name="Grupo 1072060" transform="translate(6.458 3.404)">
            <path id="Trazado_818056" data-name="Trazado 818056" d="M243.1,80.648v-.113l2.164-2.35a1.473,1.473,0,0,0,.192-1.734l-1.274-2.206a1.473,1.473,0,0,0-1.6-.7l-1.769.4a10.376,10.376,0,0,1-8.538,13.61l.78,2.495a1.473,1.473,0,0,0,1.406,1.034h2.548a1.473,1.473,0,0,0,1.406-1.034L239.374,87l.1-.057,3.116.7a1.473,1.473,0,0,0,1.6-.7l1.274-2.206A1.473,1.473,0,0,0,245.269,83Z" transform="translate(-232.282 -73.507)" fill="#5392f9"/>
          </g>
        </g>
      </g>
      <g id="Grupo_1072078" data-name="Grupo 1072078" transform="translate(16.411 28.66)">
        <g id="Grupo_1072067" data-name="Grupo 1072067" transform="translate(23.569)">
          <g id="Grupo_1072063" data-name="Grupo 1072063" transform="translate(0 11.784)">
            <path id="Trazado_818057" data-name="Trazado 818057" d="M274.2,280.135v13.981h18.264V280.135a5.3,5.3,0,0,0-5.3-5.3H279.5A5.3,5.3,0,0,0,274.2,280.135Z" transform="translate(-274.198 -274.832)" fill="#e175a5"/>
          </g>
          <g id="Grupo_1072064" data-name="Grupo 1072064" transform="translate(0 11.783)">
            <path id="Trazado_818058" data-name="Trazado 818058" d="M284.213,280.134a8.792,8.792,0,0,0-1.772-5.3H279.5a5.3,5.3,0,0,0-5.3,5.3v13.981h10.015Z" transform="translate(-274.198 -274.831)" fill="#de5791"/>
          </g>
          <g id="Grupo_1072065" data-name="Grupo 1072065" transform="translate(3.24)">
            <circle id="Elipse_9686" data-name="Elipse 9686" cx="5.892" cy="5.892" r="5.892" fill="#fed2a4"/>
          </g>
          <g id="Grupo_1072066" data-name="Grupo 1072066" transform="translate(3.932 0.692)">
            <path id="Trazado_818059" data-name="Trazado 818059" d="M309.134,198.759a5.892,5.892,0,0,1-7.97,7.97,5.892,5.892,0,1,0,7.97-7.97Z" transform="translate(-301.164 -198.759)" fill="#ffbd86"/>
          </g>
        </g>
        <g id="Grupo_1072072" data-name="Grupo 1072072">
          <g id="Grupo_1072068" data-name="Grupo 1072068" transform="translate(0 11.784)">
            <path id="Trazado_818060" data-name="Trazado 818060" d="M112.552,280.135v13.981h18.264V280.135a5.3,5.3,0,0,0-5.3-5.3h-7.659A5.3,5.3,0,0,0,112.552,280.135Z" transform="translate(-112.552 -274.832)" fill="#e175a5"/>
          </g>
          <g id="Grupo_1072069" data-name="Grupo 1072069" transform="translate(8.249 11.784)">
            <path id="Trazado_818061" data-name="Trazado 818061" d="M179.145,294.116V280.135a5.3,5.3,0,0,0-5.3-5.3H170.9a8.791,8.791,0,0,0-1.772,5.3v13.981Z" transform="translate(-169.13 -274.832)" fill="#de5791"/>
          </g>
          <g id="Grupo_1072070" data-name="Grupo 1072070" transform="translate(3.24)">
            <circle id="Elipse_9687" data-name="Elipse 9687" cx="5.892" cy="5.892" r="5.892" fill="#fed2a4"/>
          </g>
          <g id="Grupo_1072071" data-name="Grupo 1072071" transform="translate(3.932 0.692)">
            <path id="Trazado_818062" data-name="Trazado 818062" d="M147.488,198.759a5.892,5.892,0,0,1-7.97,7.97,5.892,5.892,0,1,0,7.97-7.97Z" transform="translate(-139.518 -198.759)" fill="#ffbd86"/>
          </g>
        </g>
        <g id="Grupo_1072077" data-name="Grupo 1072077" transform="translate(11.785)">
          <g id="Grupo_1072073" data-name="Grupo 1072073" transform="translate(0 11.784)">
            <path id="Trazado_818063" data-name="Trazado 818063" d="M193.375,280.135v13.981h18.264V280.135a5.3,5.3,0,0,0-5.3-5.3h-7.659A5.3,5.3,0,0,0,193.375,280.135Z" transform="translate(-193.375 -274.832)" fill="#62a4fb"/>
          </g>
          <g id="Grupo_1072074" data-name="Grupo 1072074" transform="translate(9.132 11.784)">
            <path id="Trazado_818064" data-name="Trazado 818064" d="M259.837,274.832h-3.83a5.3,5.3,0,0,1,5.3,5.3v13.981h3.83V280.135A5.3,5.3,0,0,0,259.837,274.832Z" transform="translate(-256.007 -274.832)" fill="#5392f9"/>
          </g>
          <g id="Grupo_1072075" data-name="Grupo 1072075" transform="translate(3.24)">
            <circle id="Elipse_9688" data-name="Elipse 9688" cx="5.892" cy="5.892" r="5.892" fill="#fed2a4"/>
          </g>
          <g id="Grupo_1072076" data-name="Grupo 1072076" transform="translate(3.932 0.692)">
            <path id="Trazado_818065" data-name="Trazado 818065" d="M228.311,198.759a5.892,5.892,0,0,1-7.97,7.97,5.892,5.892,0,1,0,7.97-7.97Z" transform="translate(-220.341 -198.759)" fill="#ffbd86"/>
          </g>
        </g>
      </g>
      <g id="Grupo_1072084" data-name="Grupo 1072084" transform="translate(1.094 47.58)">
        <g id="Grupo_1072079" data-name="Grupo 1072079" transform="translate(9.427 5.077)">
          <path id="Trazado_818066" data-name="Trazado 818066" d="M72.152,358.6h5.3V377.45h-5.3Z" transform="translate(-72.152 -358.597)" fill="#d3effd"/>
        </g>
        <g id="Grupo_1072080" data-name="Grupo 1072080" transform="translate(14.729)">
          <path id="Trazado_818067" data-name="Trazado 818067" d="M165.222,324.81a3.535,3.535,0,0,0-5,0l-11.112,11.112h-10.25a3.535,3.535,0,1,0,0-7.07H127.667l-2.271-1.841a11.546,11.546,0,0,0-14.426-.094l-2.451,1.935v18.853l21.336,1.338a11.783,11.783,0,0,0,4.214-.5l16.575-5.119a5.892,5.892,0,0,0,2.428-1.463l12.15-12.15A3.535,3.535,0,0,0,165.222,324.81Z" transform="translate(-108.519 -323.775)" fill="#fed2a4"/>
        </g>
        <g id="Grupo_1072081" data-name="Grupo 1072081" transform="translate(35.907)">
          <path id="Trazado_818068" data-name="Trazado 818068" d="M289.289,324.81a3.535,3.535,0,0,0-5,0l-11.112,11.112h-2.109a43.277,43.277,0,0,1-3.543,4.009,39.569,39.569,0,0,1-13.763,9.1l.158.01a11.782,11.782,0,0,0,4.214-.5l16.575-5.119a5.892,5.892,0,0,0,2.428-1.463l12.15-12.15A3.535,3.535,0,0,0,289.289,324.81Z" transform="translate(-253.763 -323.775)" fill="#ffbd86"/>
        </g>
        <g id="Grupo_1072082" data-name="Grupo 1072082" transform="translate(0 2.721)">
          <path id="Trazado_818069" data-name="Trazado 818069" d="M7.5,342.434h9.427V366H7.5Z" transform="translate(-7.5 -342.434)" fill="#62a4fb"/>
        </g>
        <g id="Grupo_1072083" data-name="Grupo 1072083" transform="translate(6.186 2.721)">
          <path id="Trazado_818070" data-name="Trazado 818070" d="M49.928,342.434h3.24V366h-3.24Z" transform="translate(-49.928 -342.434)" fill="#5392f9"/>
        </g>
      </g>
      <g id="Grupo_1072085" data-name="Grupo 1072085" transform="translate(0 0.435)">
        <circle id="Elipse_9689" data-name="Elipse 9689" cx="1.178" cy="1.178" r="1.178" transform="translate(4.628 53.401)"/>
        <circle id="Elipse_9690" data-name="Elipse 9690" cx="1.178" cy="1.178" r="1.178" transform="translate(4.628 58.114)"/>
        <path id="Trazado_818071" data-name="Trazado 818071" d="M239.243,101.876a3.45,3.45,0,1,0-3.45,3.45A3.454,3.454,0,0,0,239.243,101.876Zm-3.45,1.263a1.263,1.263,0,1,1,1.263-1.263A1.265,1.265,0,0,1,235.793,103.139Z" transform="translate(-198.466 -84.138)"/>
        <path id="Trazado_818072" data-name="Trazado 818072" d="M73.3,47.842a4.629,4.629,0,0,0-6.546,0l-7.415,7.416v-3.6a1.094,1.094,0,0,0-2.187,0v5.786l-1.188,1.188H50.1a4.631,4.631,0,0,0-2.543-6.859V45.747a6.368,6.368,0,0,0-1.586-4.209h6.975a4.214,4.214,0,0,1,4.208,4.21v.809a1.094,1.094,0,0,0,2.187,0v-.809a6.406,6.406,0,0,0-5.255-6.293,6.977,6.977,0,0,0-2.11-11.272,17.787,17.787,0,0,0,3.093-10.009A17.585,17.585,0,0,0,49.721,5.486a1.094,1.094,0,1,0-1.527,1.566,15.414,15.414,0,0,1,4.685,11.121A15.587,15.587,0,0,1,49.7,27.594c-.194-.016-.39-.027-.588-.027a6.984,6.984,0,0,0-5.892,3.241A7.037,7.037,0,0,0,40.807,28.5a2.6,2.6,0,0,0,.243-.546l.676-2.161,2.209.5a2.555,2.555,0,0,0,2.784-1.221l1.274-2.206a2.555,2.555,0,0,0-.335-3.022l-1.534-1.665,1.534-1.665a2.555,2.555,0,0,0,.335-3.022L46.72,11.28a2.555,2.555,0,0,0-2.784-1.221l-2.209.5-.675-2.161a2.556,2.556,0,0,0-2.45-1.8H36.054a2.555,2.555,0,0,0-2.45,1.8l-.675,2.161-2.209-.5a2.555,2.555,0,0,0-2.785,1.221l-1.274,2.206A2.556,2.556,0,0,0,27,16.508l1.534,1.665L27,19.839a2.556,2.556,0,0,0-.335,3.022l1.274,2.206a2.555,2.555,0,0,0,2.785,1.221l2.209-.5.675,2.161a2.588,2.588,0,0,0,.243.546,7.035,7.035,0,0,0-2.412,2.308,6.984,6.984,0,0,0-5.892-3.241c-.2,0-.394.01-.588.027A15.551,15.551,0,0,1,37.328,2.622a15.392,15.392,0,0,1,7,1.661,1.094,1.094,0,1,0,.986-1.952,17.558,17.558,0,0,0-7.986-1.9A17.739,17.739,0,0,0,22.683,28.182a6.977,6.977,0,0,0-2.11,11.272,6.405,6.405,0,0,0-5.256,6.292v5.817h-3.7V50.3a1.094,1.094,0,0,0-1.094-1.094H1.094A1.094,1.094,0,0,0,0,50.3V73.868a1.094,1.094,0,0,0,1.094,1.094H10.52a1.094,1.094,0,0,0,1.094-1.094V72.6H15.8l14.342.9a1.094,1.094,0,1,0,.137-2.183l-13.358-.838v-17.3l2.035-1.607a10.451,10.451,0,0,1,13.059.086l2.272,1.84a1.093,1.093,0,0,0,.688.244H46.165a2.442,2.442,0,0,1,0,4.883H33.5a1.093,1.093,0,0,0-.773.32L31.178,60.5a1.094,1.094,0,1,0,1.546,1.547l1.226-1.226H56.416a1.094,1.094,0,0,0,.773-.32L68.3,49.389a2.442,2.442,0,0,1,3.453,3.453L59.6,64.993a4.814,4.814,0,0,1-1.977,1.191L41.049,71.3a10.637,10.637,0,0,1-3.822.455l-1.859-.117a1.094,1.094,0,1,0-.137,2.183l1.859.117q.407.025.813.025a12.8,12.8,0,0,0,3.792-.574l16.575-5.119a7.009,7.009,0,0,0,2.879-1.734L73.3,54.389a4.635,4.635,0,0,0,0-6.547ZM49.112,29.754a4.8,4.8,0,1,1-4.8,4.8,4.8,4.8,0,0,1,4.8-4.8ZM36.054,27.567a.378.378,0,0,1-.362-.266l-.952-3.048a1.094,1.094,0,0,0-.5-.621l-.1-.057a1.094,1.094,0,0,0-.787-.12l-3.116.7a.378.378,0,0,1-.412-.181l-1.274-2.206a.378.378,0,0,1,.049-.447l2.164-2.35a1.094,1.094,0,0,0,.289-.741v-.114a1.094,1.094,0,0,0-.289-.741L28.6,15.026a.378.378,0,0,1-.049-.447l1.274-2.206a.379.379,0,0,1,.412-.181l3.116.7a1.093,1.093,0,0,0,.787-.12l.1-.057a1.093,1.093,0,0,0,.5-.621l.952-3.048a.378.378,0,0,1,.362-.266H38.6a.378.378,0,0,1,.362.266l.952,3.048a1.093,1.093,0,0,0,.5.62l.1.057a1.093,1.093,0,0,0,.787.12l3.116-.7a.378.378,0,0,1,.412.181L46.1,14.579a.378.378,0,0,1-.05.447l-2.164,2.35a1.094,1.094,0,0,0-.289.741v.113a1.094,1.094,0,0,0,.289.741l2.164,2.35a.378.378,0,0,1,.049.447l-1.274,2.206a.378.378,0,0,1-.412.18l-3.116-.7a1.092,1.092,0,0,0-.786.12l-.1.058a1.093,1.093,0,0,0-.5.62L38.964,27.3a.378.378,0,0,1-.362.266H36.054Zm1.274,2.187a4.8,4.8,0,1,1-4.8,4.8,4.8,4.8,0,0,1,4.8-4.8Zm-11.785,0a4.8,4.8,0,1,1-4.8,4.8,4.8,4.8,0,0,1,4.8-4.8ZM9.427,72.774H2.187V51.394h7.24Zm2.187-19.023H14.73V70.418H11.614Zm9.668-5.906A12.607,12.607,0,0,0,17.6,49.864l-.093.073V45.746a4.214,4.214,0,0,1,4.209-4.209h6.975A6.368,6.368,0,0,0,27.1,45.746v1.512a12.578,12.578,0,0,0-5.819.586Zm12.106,2.123a12.645,12.645,0,0,0-4.1-2.214V45.746A4.214,4.214,0,0,1,33.5,41.538h7.659a4.214,4.214,0,0,1,4.209,4.209v5.817H35.358Z" transform="translate(0 -0.435)"/>
      </g>
    </g>
  </g>
</svg>
