<svg xmlns="http://www.w3.org/2000/svg" width="112.12" height="114.27" viewBox="0 0 112.12 114.27">
  <g id="Grupo_61679" data-name="Grupo 61679" transform="translate(-361.439 -4328.769)">
    <ellipse id="Elipse_4256" data-name="Elipse 4256" cx="49.518" cy="49.621" rx="49.518" ry="49.621" transform="translate(367.981 4336.282)" fill="#fff"/>
    <rect id="Rectángulo_6694" data-name="Rectángulo 6694" width="112.12" height="114.27" transform="translate(361.439 4328.769)" fill="none"/>
    <g id="Grupo_61682" data-name="Grupo 61682" transform="translate(390.389 4359.834)">
      <circle id="Elipse_4485" data-name="Elipse 4485" cx="26.907" cy="26.907" r="26.907" transform="translate(0.854)" fill="#68d0e8"/>
      <g id="Grupo_61679-2" data-name="Grupo 61679" transform="translate(15.547 22.294)">
        <rect id="Rectángulo_6695" data-name="Rectángulo 6695" width="1.708" height="1.708" fill="#453d7a"/>
        <rect id="Rectángulo_6696" data-name="Rectángulo 6696" width="1.708" height="1.708" transform="translate(7.346)" fill="#453d7a"/>
        <rect id="Rectángulo_6697" data-name="Rectángulo 6697" width="1.708" height="1.708" transform="translate(14.607)" fill="#453d7a"/>
        <rect id="Rectángulo_6698" data-name="Rectángulo 6698" width="1.708" height="1.708" transform="translate(8.115 4.186)" fill="#453d7a"/>
        <rect id="Rectángulo_6699" data-name="Rectángulo 6699" width="1.708" height="1.708" transform="translate(15.461 4.186)" fill="#453d7a"/>
        <rect id="Rectángulo_6700" data-name="Rectángulo 6700" width="1.708" height="1.708" transform="translate(22.807 4.186)" fill="#453d7a"/>
      </g>
      <path id="Trazado_111016" data-name="Trazado 111016" d="M474.271,4373.283H458.81a2.078,2.078,0,0,0-2.05,2.05v10.336l-4.1,3.673h21.612a2.078,2.078,0,0,0,2.05-2.05v-11.959A2.078,2.078,0,0,0,474.271,4373.283Z" transform="translate(-422.506 -4372.429)" fill="#b8aff8"/>
      <path id="Trazado_111017" data-name="Trazado 111017" d="M473.711,4389.6H452.1a.864.864,0,0,1-.768-.512.963.963,0,0,1,.256-.939l3.759-3.417v-9.994a2.88,2.88,0,0,1,2.9-2.9h15.461a2.881,2.881,0,0,1,2.9,2.9v11.958A2.88,2.88,0,0,1,473.711,4389.6Zm-19.39-1.708h19.39a1.168,1.168,0,0,0,1.2-1.2v-11.958a1.168,1.168,0,0,0-1.2-1.2H458.249a1.168,1.168,0,0,0-1.2,1.2v10.336a.774.774,0,0,1-.256.6Z" transform="translate(-421.945 -4371.831)" fill="#453d7a"/>
      <rect id="Rectángulo_6701" data-name="Rectángulo 6701" width="12.813" height="9.311" transform="translate(37.585 4.271)" fill="#fff"/>
      <path id="Trazado_111018" data-name="Trazado 111018" d="M404.907,4373.283h15.461a2.078,2.078,0,0,1,2.05,2.05v10.336l4.1,3.673H404.907a2.078,2.078,0,0,1-2.05-2.05v-11.959A2.078,2.078,0,0,1,404.907,4373.283Z" transform="translate(-402.002 -4372.429)" fill="#fdbf5e"/>
      <path id="Trazado_111019" data-name="Trazado 111019" d="M425.92,4389.6H404.308a2.88,2.88,0,0,1-2.9-2.9v-11.958a2.88,2.88,0,0,1,2.9-2.9H419.77a2.88,2.88,0,0,1,2.9,2.9v9.994l3.673,3.332a.871.871,0,0,1,.427.683A.919.919,0,0,1,425.92,4389.6Zm-21.611-16.059a1.168,1.168,0,0,0-1.2,1.2v11.958a1.168,1.168,0,0,0,1.2,1.2H423.7l-2.391-2.221a.921.921,0,0,1-.257-.6v-10.336a1.168,1.168,0,0,0-1.2-1.2Z" transform="translate(-401.404 -4371.831)" fill="#453d7a"/>
      <rect id="Rectángulo_6702" data-name="Rectángulo 6702" width="12.813" height="9.311" transform="translate(4.186 4.271)" fill="#fff"/>
      <path id="Trazado_111020" data-name="Trazado 111020" d="M424.638,4424.393H406.871a2.517,2.517,0,0,0-2.563,2.563v17.767a2.517,2.517,0,0,0,2.563,2.563h17.768a2.517,2.517,0,0,0,2.563-2.563v-17.767A2.517,2.517,0,0,0,424.638,4424.393Z" transform="translate(-402.6 -4393.471)" fill="#f4cc7e"/>
      <path id="Trazado_111021" data-name="Trazado 111021" d="M424.126,4447.6H406.188a3.393,3.393,0,0,1-3.332-3.331v-17.853a3.336,3.336,0,0,1,3.332-3.332h17.853a3.335,3.335,0,0,1,3.331,3.332v17.853A3.263,3.263,0,0,1,424.126,4447.6Zm-17.938-22.893a1.714,1.714,0,0,0-1.708,1.708v17.853a1.714,1.714,0,0,0,1.708,1.708h17.853a1.714,1.714,0,0,0,1.708-1.708v-17.853a1.714,1.714,0,0,0-1.708-1.708Z" transform="translate(-402.002 -4392.933)" fill="#453d7a"/>
      <rect id="Rectángulo_6703" data-name="Rectángulo 6703" width="16.144" height="16.144" transform="translate(5.134 34.262)" fill="#fff"/>
      <path id="Trazado_111022" data-name="Trazado 111022" d="M474.3,4424.393H456.529a2.517,2.517,0,0,0-2.563,2.563v17.767a2.517,2.517,0,0,0,2.563,2.563H474.3a2.517,2.517,0,0,0,2.563-2.563v-17.767A2.57,2.57,0,0,0,474.3,4424.393Z" transform="translate(-423.044 -4393.471)" fill="#0385a3"/>
      <path id="Trazado_111023" data-name="Trazado 111023" d="M473.7,4447.6H455.846a3.336,3.336,0,0,1-3.332-3.331v-17.853a3.336,3.336,0,0,1,3.332-3.332H473.7a3.335,3.335,0,0,1,3.331,3.332v17.853A3.281,3.281,0,0,1,473.7,4447.6Zm-17.853-22.893a1.714,1.714,0,0,0-1.708,1.708v17.853a1.714,1.714,0,0,0,1.708,1.708H473.7a1.713,1.713,0,0,0,1.708-1.708v-17.853a1.713,1.713,0,0,0-1.708-1.708Z" transform="translate(-422.446 -4392.933)" fill="#453d7a"/>
      <rect id="Rectángulo_6704" data-name="Rectángulo 6704" width="16.144" height="16.144" transform="translate(34.331 34.277)" fill="#fff"/>
      <g id="Grupo_61680" data-name="Grupo 61680" transform="translate(8.03 8.029)">
        <path id="Trazado_111024" data-name="Trazado 111024" d="M417.786,4443.09l-.94,2.221h-1.794l4.271-9.738h1.794l4.271,9.738H423.6l-.939-2.221Zm4.186-1.538-1.794-4.014-1.794,4.014Z" transform="translate(-415.053 -4406.103)" fill="#193651"/>
        <path id="Trazado_111025" data-name="Trazado 111025" d="M471.015,4445.311h-4.271v-9.738H470.5a5.122,5.122,0,0,1,1.708.256,1.906,1.906,0,0,1,1.025.6,2.54,2.54,0,0,1,.683,1.708,2.12,2.12,0,0,1-.683,1.708c-.171.17-.257.17-.342.256-.085,0-.171.086-.342.171a2.755,2.755,0,0,1,1.452.854,2.386,2.386,0,0,1,.512,1.538,2.757,2.757,0,0,1-.684,1.794A3.951,3.951,0,0,1,471.015,4445.311Zm-2.563-5.724h2.05c1.2,0,1.794-.427,1.794-1.2a1.417,1.417,0,0,0-.427-1.025,2.652,2.652,0,0,0-1.367-.342h-2.05v2.563Zm0,4.186h2.563a3,3,0,0,0,1.367-.256c.342-.171.512-.513.512-1.11q0-1.282-2.05-1.281h-2.391v2.648Z" transform="translate(-436.334 -4406.103)" fill="#193651"/>
        <rect id="Rectángulo_6705" data-name="Rectángulo 6705" width="1.708" height="1.708" transform="translate(31.52)" fill="#193651"/>
        <rect id="Rectángulo_6706" data-name="Rectángulo 6706" width="1.708" height="1.708" transform="translate(35.108)" fill="#193651"/>
        <rect id="Rectángulo_6707" data-name="Rectángulo 6707" width="1.708" height="1.708" transform="translate(38.781)" fill="#193651"/>
      </g>
      <g id="Grupo_61681" data-name="Grupo 61681" transform="translate(6.236 8.029)">
        <rect id="Rectángulo_6708" data-name="Rectángulo 6708" width="1.708" height="1.708" fill="#193651"/>
        <rect id="Rectángulo_6709" data-name="Rectángulo 6709" width="1.708" height="1.708" transform="translate(3.588)" fill="#193651"/>
        <rect id="Rectángulo_6710" data-name="Rectángulo 6710" width="1.708" height="1.708" transform="translate(7.175)" fill="#193651"/>
      </g>
    </g>
  </g>
</svg>
