<svg xmlns="http://www.w3.org/2000/svg" width="85" height="85" viewBox="0 0 85 85">
  <g id="Grupo_1072219" data-name="Grupo 1072219" transform="translate(-285 -3754)">
    <circle id="Elipse_9697" data-name="Elipse 9697" cx="42.5" cy="42.5" r="42.5" transform="translate(285 3754)" fill="#dc40ed"/>
    <g id="fabula" transform="translate(289.518 3763.173)">
      <g id="Grupo_1072193" data-name="Grupo 1072193" transform="translate(13.91 8.255)">
        <g id="Grupo_1072183" data-name="Grupo 1072183" transform="translate(0 12.781)">
          <g id="Grupo_1072162" data-name="Grupo 1072162" transform="translate(0 3.871)">
            <g id="Grupo_1072160" data-name="Grupo 1072160">
              <path id="Trazado_818128" data-name="Trazado 818128" d="M37.416,121.574H17.622a2.139,2.139,0,0,1-2.139-2.139V89.8a2.139,2.139,0,0,1,2.139-2.139H37.416A2.139,2.139,0,0,1,39.555,89.8v29.634A2.139,2.139,0,0,1,37.416,121.574Z" transform="translate(-15.483 -87.661)" fill="#8c77aa"/>
            </g>
            <g id="Grupo_1072161" data-name="Grupo 1072161" transform="translate(24.072)">
              <path id="Trazado_818129" data-name="Trazado 818129" d="M149.933,121.574H130.139A2.139,2.139,0,0,1,128,119.434V89.8a2.139,2.139,0,0,1,2.139-2.139h19.794a2.139,2.139,0,0,1,2.139,2.139v29.634A2.14,2.14,0,0,1,149.933,121.574Z" transform="translate(-128 -87.661)" fill="#8c77aa"/>
            </g>
          </g>
          <g id="Grupo_1072165" data-name="Grupo 1072165" transform="translate(0 1.883)">
            <g id="Grupo_1072163" data-name="Grupo 1072163">
              <path id="Trazado_818130" data-name="Trazado 818130" d="M37.416,112.28H17.622a2.139,2.139,0,0,1-2.139-2.139V80.506a2.139,2.139,0,0,1,2.139-2.139H37.416a2.139,2.139,0,0,1,2.139,2.139V110.14A2.139,2.139,0,0,1,37.416,112.28Z" transform="translate(-15.483 -78.367)" fill="#a48bc1"/>
            </g>
            <g id="Grupo_1072164" data-name="Grupo 1072164" transform="translate(24.072)">
              <path id="Trazado_818131" data-name="Trazado 818131" d="M149.933,112.28H130.139A2.139,2.139,0,0,1,128,110.14V80.506a2.139,2.139,0,0,1,2.139-2.139h19.794a2.139,2.139,0,0,1,2.139,2.139V110.14A2.14,2.14,0,0,1,149.933,112.28Z" transform="translate(-128 -78.367)" fill="#ba9dd6"/>
            </g>
          </g>
          <g id="Grupo_1072166" data-name="Grupo 1072166" transform="translate(1.842 0)">
            <path id="Trazado_818132" data-name="Trazado 818132" d="M44.185,102.919H26.234A2.139,2.139,0,0,1,24.1,100.78V71.706a2.139,2.139,0,0,1,2.139-2.139H44.185a2.139,2.139,0,0,1,2.139,2.139V100.78A2.139,2.139,0,0,1,44.185,102.919Z" transform="translate(-24.095 -69.567)" fill="#e8c197"/>
          </g>
          <g id="Grupo_1072167" data-name="Grupo 1072167" transform="translate(24.072 0)">
            <path id="Trazado_818133" data-name="Trazado 818133" d="M148.09,102.919H130.139A2.139,2.139,0,0,1,128,100.78V71.706a2.139,2.139,0,0,1,2.139-2.139H148.09a2.139,2.139,0,0,1,2.139,2.139V100.78A2.14,2.14,0,0,1,148.09,102.919Z" transform="translate(-128 -69.567)" fill="#e6e7e8"/>
          </g>
          <g id="Grupo_1072168" data-name="Grupo 1072168" transform="translate(24.072 0)">
            <path id="Trazado_818134" data-name="Trazado 818134" d="M148.09,102.919H130.139A2.139,2.139,0,0,1,128,100.78V71.706a2.139,2.139,0,0,1,2.139-2.139H148.09a2.139,2.139,0,0,1,2.139,2.139V100.78A2.14,2.14,0,0,1,148.09,102.919Z" transform="translate(-128 -69.567)" fill="#fedbb0"/>
          </g>
          <g id="Grupo_1072169" data-name="Grupo 1072169" transform="translate(39.884 0)">
            <path id="Trazado_818135" data-name="Trazado 818135" d="M206.184,69.567H201.9a2.139,2.139,0,0,1,2.139,2.139V100.78a2.139,2.139,0,0,1-2.139,2.139h4.279a2.139,2.139,0,0,0,2.139-2.139V71.706A2.14,2.14,0,0,0,206.184,69.567Z" transform="translate(-201.905 -69.567)" fill="#e8c197"/>
          </g>
          <g id="Grupo_1072182" data-name="Grupo 1072182" transform="translate(5.439 4.832)">
            <g id="Grupo_1072175" data-name="Grupo 1072175" transform="translate(22.564)">
              <g id="Grupo_1072170" data-name="Grupo 1072170" transform="translate(6.418)">
                <path id="Trazado_818136" data-name="Trazado 818136" d="M184.231,93.008H176.8a.428.428,0,0,1,0-.856h7.427a.428.428,0,1,1,0,.856Z" transform="translate(-176.376 -92.152)" fill="#a86654"/>
              </g>
              <g id="Grupo_1072171" data-name="Grupo 1072171" transform="translate(6.418 5.704)">
                <path id="Trazado_818137" data-name="Trazado 818137" d="M184.231,119.668H176.8a.428.428,0,0,1,0-.856h7.427a.428.428,0,1,1,0,.856Z" transform="translate(-176.376 -118.812)" fill="#a86654"/>
              </g>
              <g id="Grupo_1072172" data-name="Grupo 1072172" transform="translate(0 11.407)">
                <path id="Trazado_818138" data-name="Trazado 818138" d="M160.649,146.327H146.8a.428.428,0,0,1,0-.856h13.846a.428.428,0,0,1,0,.856Z" transform="translate(-146.376 -145.471)" fill="#a86654"/>
              </g>
              <g id="Grupo_1072173" data-name="Grupo 1072173" transform="translate(0 17.111)">
                <path id="Trazado_818139" data-name="Trazado 818139" d="M160.649,172.987H146.8a.428.428,0,1,1,0-.856h13.846a.428.428,0,1,1,0,.856Z" transform="translate(-146.376 -172.131)" fill="#a86654"/>
              </g>
              <g id="Grupo_1072174" data-name="Grupo 1072174" transform="translate(0 22.815)">
                <path id="Trazado_818140" data-name="Trazado 818140" d="M160.649,199.648H146.8a.428.428,0,1,1,0-.856h13.846a.428.428,0,1,1,0,.856Z" transform="translate(-146.376 -198.792)" fill="#a86654"/>
              </g>
            </g>
            <g id="Grupo_1072181" data-name="Grupo 1072181">
              <g id="Grupo_1072176" data-name="Grupo 1072176" transform="translate(0)">
                <path id="Trazado_818141" data-name="Trazado 818141" d="M48.763,93.008H41.336a.428.428,0,1,1,0-.856h7.427a.428.428,0,1,1,0,.856Z" transform="translate(-40.908 -92.152)" fill="#a86654"/>
              </g>
              <g id="Grupo_1072177" data-name="Grupo 1072177" transform="translate(0 5.704)">
                <path id="Trazado_818142" data-name="Trazado 818142" d="M48.763,119.668H41.336a.428.428,0,0,1,0-.856h7.427a.428.428,0,0,1,0,.856Z" transform="translate(-40.908 -118.812)" fill="#a86654"/>
              </g>
              <g id="Grupo_1072178" data-name="Grupo 1072178" transform="translate(0 11.407)">
                <path id="Trazado_818143" data-name="Trazado 818143" d="M55.181,146.327H41.336a.428.428,0,1,1,0-.856H55.181a.428.428,0,0,1,0,.856Z" transform="translate(-40.908 -145.471)" fill="#a86654"/>
              </g>
              <g id="Grupo_1072179" data-name="Grupo 1072179" transform="translate(0 17.111)">
                <path id="Trazado_818144" data-name="Trazado 818144" d="M55.181,172.987H41.336a.428.428,0,1,1,0-.856H55.181a.428.428,0,1,1,0,.856Z" transform="translate(-40.908 -172.131)" fill="#a86654"/>
              </g>
              <g id="Grupo_1072180" data-name="Grupo 1072180" transform="translate(0 22.815)">
                <path id="Trazado_818145" data-name="Trazado 818145" d="M55.181,199.648H41.336a.428.428,0,1,1,0-.856H55.181a.428.428,0,0,1,0,.856Z" transform="translate(-40.908 -198.792)" fill="#a86654"/>
              </g>
            </g>
          </g>
        </g>
        <g id="Grupo_1072188" data-name="Grupo 1072188" transform="translate(16.506 6.035)">
          <g id="Grupo_1072184" data-name="Grupo 1072184" transform="translate(0.474)">
            <path id="Trazado_818146" data-name="Trazado 818146" d="M114.828,40.395h-8.195l-1-1.741a4.906,4.906,0,0,0-.423-.618H97.574a4.868,4.868,0,0,0-1.044,2.547L94.865,56.724a2.139,2.139,0,0,0,2.128,2.359h9.432a2.139,2.139,0,0,0,2.129-2.356l-.587-5.779a1.772,1.772,0,0,1,1.124-1.832l5.143-1.988a3.607,3.607,0,0,0,2.307-3.364V42.106A1.712,1.712,0,0,0,114.828,40.395Z" transform="translate(-94.853 -38.036)" fill="#c68254"/>
          </g>
          <g id="Grupo_1072185" data-name="Grupo 1072185" transform="translate(19.286 2.359)">
            <path id="Trazado_818147" data-name="Trazado 818147" d="M185.656,51.749h-2.019a.856.856,0,0,1-.856-.856V49.062h1.163a1.712,1.712,0,0,1,1.712,1.712Z" transform="translate(-182.782 -49.062)" fill="#422618"/>
          </g>
          <g id="Grupo_1072186" data-name="Grupo 1072186" transform="translate(8.665 1.504)">
            <circle id="Elipse_9702" data-name="Elipse 9702" cx="0.876" cy="0.876" r="0.876" fill="#422618"/>
          </g>
          <g id="Grupo_1072187" data-name="Grupo 1072187" transform="translate(0)">
            <path id="Trazado_818148" data-name="Trazado 818148" d="M99.374,38.577a2.652,2.652,0,0,0-.122-.541H94.222a2.663,2.663,0,0,0-.111.467l-1.434,10.05a3.957,3.957,0,1,0,7.85.11Z" transform="translate(-92.636 -38.036)" fill="#725246"/>
          </g>
        </g>
        <g id="Grupo_1072189" data-name="Grupo 1072189" transform="translate(8.691 4.173)">
          <path id="Trazado_818149" data-name="Trazado 818149" d="M62.143,32.261l.153.041a.21.21,0,0,1,0,.406l-.153.041a3.713,3.713,0,0,0-2.62,2.62l-.041.153a.21.21,0,0,1-.406,0l-.041-.153a3.713,3.713,0,0,0-2.62-2.62l-.153-.041a.21.21,0,0,1,0-.406l.153-.041a3.713,3.713,0,0,0,2.62-2.62l.041-.153a.21.21,0,0,1,.406,0l.041.153A3.712,3.712,0,0,0,62.143,32.261Z" transform="translate(-56.107 -29.333)" fill="#fcc171"/>
        </g>
        <g id="Grupo_1072190" data-name="Grupo 1072190" transform="translate(37.48 2.732)">
          <path id="Trazado_818150" data-name="Trazado 818150" d="M195.243,24.814l.116.031a.159.159,0,0,1,0,.308l-.116.031a2.813,2.813,0,0,0-1.985,1.985l-.031.116a.159.159,0,0,1-.308,0l-.031-.116a2.813,2.813,0,0,0-1.985-1.985l-.116-.031a.159.159,0,0,1,0-.308l.116-.031a2.813,2.813,0,0,0,1.985-1.985l.031-.116a.159.159,0,0,1,.308,0l.031.116A2.813,2.813,0,0,0,195.243,24.814Z" transform="translate(-190.67 -22.596)" fill="#fcc171"/>
        </g>
        <g id="Grupo_1072191" data-name="Grupo 1072191" transform="translate(31.823 1.197)">
          <path id="Trazado_818151" data-name="Trazado 818151" d="M167.312,16.916l.078.021a.107.107,0,0,1,0,.207l-.078.021a1.9,1.9,0,0,0-1.338,1.338l-.021.078a.107.107,0,0,1-.207,0l-.021-.078a1.9,1.9,0,0,0-1.338-1.338l-.078-.021a.107.107,0,0,1,0-.207l.078-.021a1.9,1.9,0,0,0,1.338-1.338l.021-.078a.107.107,0,0,1,.207,0l.021.078a1.9,1.9,0,0,0,1.338,1.338Z" transform="translate(-164.229 -15.421)" fill="#fcc171"/>
        </g>
        <g id="Grupo_1072192" data-name="Grupo 1072192" transform="translate(17.648)">
          <path id="Trazado_818152" data-name="Trazado 818152" d="M98.767,10.757l1.744,2.938,2.172-3.659a.428.428,0,0,1,.736,0l2.173,3.659,1.746-2.939a.428.428,0,0,1,.8.218v4.459a.428.428,0,0,1-.428.428H98.4a.428.428,0,0,1-.428-.428V10.975a.428.428,0,0,1,.8-.218Z" transform="translate(-97.971 -9.827)" fill="#fcc171"/>
        </g>
      </g>
      <g id="Grupo_1072198" data-name="Grupo 1072198" transform="translate(13.482 7.827)">
        <g id="Grupo_1072194" data-name="Grupo 1072194" transform="translate(0 0)">
          <path id="Trazado_818153" data-name="Trazado 818153" d="M59.915,59.247H40.122a2.567,2.567,0,0,1-2.139-1.15,2.567,2.567,0,0,1-2.139,1.15H16.049a2.57,2.57,0,0,1-2.567-2.567V25.058A2.575,2.575,0,0,1,15.4,22.577a2.562,2.562,0,0,1,2.5-1.969H30.624l.844-5.911q.01-.07.023-.139a.849.849,0,0,1-.361-.7V9.4a.856.856,0,0,1,1.592-.437L34.1,11.285l1.8-3.039a.848.848,0,0,1,.736-.419h0a.849.849,0,0,1,.736.419l1.805,3.04,1.378-2.32a.856.856,0,0,1,1.592.437v4.459a.854.854,0,0,1-.246.6c.05.077.1.156.142.233l.874,1.526h7.947A2.142,2.142,0,0,1,53,18.36v1.658a3.981,3.981,0,0,1-.044.589h5.112a2.562,2.562,0,0,1,2.5,1.969,2.574,2.574,0,0,1,1.913,2.481V56.68A2.57,2.57,0,0,1,59.915,59.247Zm-21.933-3a.428.428,0,0,1,.428.428,1.714,1.714,0,0,0,1.712,1.712H59.915a1.714,1.714,0,0,0,1.712-1.712V25.058a1.714,1.714,0,0,0-1.485-1.694.428.428,0,0,1-.369-.378,1.708,1.708,0,0,0-1.7-1.522H52.429a.428.428,0,0,1-.411-.549,3.173,3.173,0,0,0,.131-.9V18.36a1.285,1.285,0,0,0-1.284-1.284H42.671a.428.428,0,0,1-.371-.215l-1-1.741a4.491,4.491,0,0,0-.386-.564.428.428,0,0,1,.334-.695h.042V9.4l-1.746,2.939a.428.428,0,0,1-.736,0L36.637,8.683l-2.172,3.659a.428.428,0,0,1-.736,0L31.986,9.4v4.459a.444.444,0,0,1,.355.178.431.431,0,0,1,.067.386,2.232,2.232,0,0,0-.093.392l-.9,6.279a.428.428,0,0,1-.424.368h-13.1a1.708,1.708,0,0,0-1.7,1.522.428.428,0,0,1-.369.378,1.714,1.714,0,0,0-1.485,1.694V56.68a1.714,1.714,0,0,0,1.712,1.712H35.843a1.714,1.714,0,0,0,1.712-1.712.428.428,0,0,1,.428-.428Z" transform="translate(-13.482 -7.827)" fill="#422618"/>
        </g>
        <g id="Grupo_1072195" data-name="Grupo 1072195" transform="translate(8.691 4.173)">
          <path id="Trazado_818154" data-name="Trazado 818154" d="M57.706,34.532h0a.631.631,0,0,1-.616-.472l-.041-.153a3.3,3.3,0,0,0-2.318-2.318l-.153-.041a.638.638,0,0,1,0-1.232l.153-.041a3.3,3.3,0,0,0,2.318-2.318l.041-.153a.631.631,0,0,1,.616-.472h0a.631.631,0,0,1,.616.472l.041.153a3.3,3.3,0,0,0,2.318,2.318l.152.041a.638.638,0,0,1,0,1.233l-.153.041a3.3,3.3,0,0,0-2.318,2.318l-.041.153A.632.632,0,0,1,57.706,34.532Zm.21-.695h0Zm-2.464-2.905a4.161,4.161,0,0,1,2.254,2.255,4.16,4.16,0,0,1,2.254-2.255,4.161,4.161,0,0,1-2.254-2.254A4.162,4.162,0,0,1,55.452,30.932Zm-.651-.211h0Z" transform="translate(-54.106 -27.332)" fill="#422618"/>
        </g>
        <g id="Grupo_1072196" data-name="Grupo 1072196" transform="translate(37.48 2.732)">
          <path id="Trazado_818155" data-name="Trazado 818155" d="M191.5,26.259a.581.581,0,0,1-.567-.435l-.031-.116a2.392,2.392,0,0,0-1.683-1.683l-.116-.031a.587.587,0,0,1,0-1.133l.116-.031a2.392,2.392,0,0,0,1.683-1.683l.031-.116a.587.587,0,0,1,1.134,0l.031.116a2.392,2.392,0,0,0,1.683,1.683l.116.031a.587.587,0,0,1,0,1.134l-.116.031a2.392,2.392,0,0,0-1.683,1.683l-.031.116A.58.58,0,0,1,191.5,26.259Zm.26-.657h0Zm-1.717-2.175a3.26,3.26,0,0,1,1.458,1.458,3.259,3.259,0,0,1,1.458-1.458A3.26,3.26,0,0,1,191.5,21.97,3.26,3.26,0,0,1,190.043,23.428Zm-.717-.26h0Z" transform="translate(-188.669 -20.597)" fill="#422618"/>
        </g>
        <g id="Grupo_1072197" data-name="Grupo 1072197" transform="translate(31.823 1.197)">
          <path id="Trazado_818156" data-name="Trazado 818156" d="M164.276,17.517a.536.536,0,0,1-.517-.4l-.021-.078a1.473,1.473,0,0,0-1.036-1.036l-.079-.021a.535.535,0,0,1,0-1.033l.078-.021a1.474,1.474,0,0,0,1.037-1.036l.021-.078a.536.536,0,0,1,.517-.4h0a.536.536,0,0,1,.517.4l.021.077a1.474,1.474,0,0,0,1.036,1.037l.077.021a.535.535,0,0,1,0,1.034l-.077.021a1.474,1.474,0,0,0-1.037,1.036l-.021.079a.536.536,0,0,1-.516.4Zm-.309-.62h0Zm.619,0h0Zm-1.011-1.429a2.343,2.343,0,0,1,.7.7,2.338,2.338,0,0,1,.7-.7,2.344,2.344,0,0,1-.7-.7A2.341,2.341,0,0,1,163.575,15.469Zm2.131-.31h0Zm-1.739-1.12h0Z" transform="translate(-162.228 -13.42)" fill="#422618"/>
        </g>
      </g>
    </g>
  </g>
</svg>
