<svg xmlns="http://www.w3.org/2000/svg" width="85" height="85" viewBox="0 0 85 85">
  <g id="Grupo_1072208" data-name="Grupo 1072208" transform="translate(-285 -4339)">
    <circle id="Elipse_9701" data-name="Elipse 9701" cx="42.5" cy="42.5" r="42.5" transform="translate(285 4339)" fill="#dc40ed"/>
    <g id="la-contaminacion-acustica" transform="translate(303 4357)">
      <path id="Trazado_818187" data-name="Trazado 818187" d="M151.144,243.467h2.437v-6.475a7.575,7.575,0,1,1,15.15,0v6.475h2.437v-6.475a10.012,10.012,0,0,0-20.023,0Z" transform="translate(-136.713 -205.308)" fill="#9bb9c1"/>
      <path id="Trazado_818188" data-name="Trazado 818188" d="M151.144,379.654h2.437v1.91h-2.437Z" transform="translate(-136.713 -343.405)" fill="#86a0af"/>
      <path id="Trazado_818189" data-name="Trazado 818189" d="M335.335,379.654h2.437v1.91h-2.437Z" transform="translate(-303.317 -343.405)" fill="#86a0af"/>
      <path id="Trazado_818190" data-name="Trazado 818190" d="M126.03,408.818h-2.448a2.9,2.9,0,0,1-2.9-2.9v-3.371a2.9,2.9,0,0,1,2.9-2.9h2.448Z" transform="translate(-109.162 -361.495)" fill="#4073c8"/>
      <path id="Trazado_818191" data-name="Trazado 818191" d="M178.258,401.648h-.8a.8.8,0,0,1-.8-.8v-9.262a.8.8,0,0,1,.8-.8h.8a1.385,1.385,0,0,1,1.385,1.385v8.086A1.385,1.385,0,0,1,178.258,401.648Z" transform="translate(-159.797 -353.478)" fill="#617881"/>
      <path id="Trazado_818192" data-name="Trazado 818192" d="M335.335,408.818h2.448a2.9,2.9,0,0,0,2.9-2.9v-3.371a2.9,2.9,0,0,0-2.9-2.9h-2.448Z" transform="translate(-303.317 -361.495)" fill="#4073c8"/>
      <path id="Trazado_818193" data-name="Trazado 818193" d="M127.342,399.654a2.917,2.917,0,0,0-.416.03v6.3a1.4,1.4,0,0,1-1.4,1.4h-.681a2.9,2.9,0,0,0,2.5,1.432h2.448v-9.164Z" transform="translate(-112.922 -361.495)" fill="#3b66c1"/>
      <path id="Trazado_818194" data-name="Trazado 818194" d="M337.783,399.654h-.365a2.883,2.883,0,0,1,.4,1.464v3.371a2.9,2.9,0,0,1-2.481,2.867v1.462h2.448a2.9,2.9,0,0,0,2.9-2.9v-3.371A2.9,2.9,0,0,0,337.783,399.654Z" transform="translate(-303.317 -361.495)" fill="#3b66c1"/>
      <path id="Trazado_818195" data-name="Trazado 818195" d="M305.53,401.648h.8a.8.8,0,0,0,.8-.8v-9.262a.8.8,0,0,0-.8-.8h-.8a1.385,1.385,0,0,0-1.385,1.385v8.086A1.385,1.385,0,0,0,305.53,401.648Z" transform="translate(-275.105 -353.478)" fill="#617881"/>
      <path id="Trazado_818196" data-name="Trazado 818196" d="M196.285,253.461l1.469-.954q-.144-.005-.29-.005a7.571,7.571,0,0,0-6.179,3.2l1.419,1.663a.337.337,0,0,0,.513,0l3.035-3.558A.22.22,0,0,1,196.285,253.461Z" transform="translate(-173.022 -228.392)" fill="#dd636e"/>
      <path id="Trazado_818197" data-name="Trazado 818197" d="M196.285,253.461l1.469-.954q-.144-.005-.29-.005a7.571,7.571,0,0,0-6.179,3.2l1.419,1.663a.337.337,0,0,0,.513,0l3.035-3.558A.22.22,0,0,1,196.285,253.461Z" transform="translate(-173.022 -228.392)" fill="#da4a54"/>
      <path id="Trazado_818198" data-name="Trazado 818198" d="M45.794,21.969a.337.337,0,0,0,0-.566l-4-2.6a.337.337,0,0,1-.148-.342l.838-4.754a.337.337,0,0,0-.372-.394l-4.815.57a.337.337,0,0,1-.357-.219L35.267,9.085a.337.337,0,0,0-.489-.174l-4.195,2.5a.337.337,0,0,1-.429-.071L26.981,7.619a.337.337,0,0,0-.513,0l-3.173,3.719a.337.337,0,0,1-.429.071l-4.195-2.5a.337.337,0,0,0-.489.174L16.5,13.669a.337.337,0,0,1-.357.219l-4.814-.57a.337.337,0,0,0-.372.394l.838,4.754a.338.338,0,0,1-.148.342l-4,2.6a.337.337,0,0,0,0,.566l4,2.6a.337.337,0,0,1,.148.342l-.838,4.754a.337.337,0,0,0,.372.394l4.616-.546a.337.337,0,0,1,.37.4l-2.006,9.8a.337.337,0,0,0,.569.307l7.97-7.938a.337.337,0,0,1,.495.02l.081.1a9.993,9.993,0,0,1,7.8-3.734,10.111,10.111,0,0,1,1.268.08l-.3-1.685a.219.219,0,0,1,.242-.256l3.131.371a.219.219,0,0,0,.232-.143l1.091-2.982a.219.219,0,0,1,.318-.113l2.728,1.624a.219.219,0,0,0,.279-.046l2.064-2.419a.22.22,0,0,1,.334,0l.629.737Z" transform="translate(-6.784 -6.784)" fill="#dd636e"/>
      <path id="Trazado_818199" data-name="Trazado 818199" d="M333.072,76.5l-4-2.6a.337.337,0,0,1-.148-.342l.838-4.754a.337.337,0,0,0-.372-.394l-3.794.449-.492,2.789a.337.337,0,0,0,.148.341l1.914,1.243a1.95,1.95,0,0,1,0,3.271l-1.914,1.243a.337.337,0,0,0-.148.342l.216,1.227,1.895,1.128a.219.219,0,0,0,.279-.046l2.064-2.419a.22.22,0,0,1,.334,0l.629.737,2.548-1.655A.337.337,0,0,0,333.072,76.5Z" transform="translate(-294.062 -61.881)" fill="#da4a54"/>
      <path id="Trazado_818200" data-name="Trazado 818200" d="M251.454,260.128a7.584,7.584,0,0,0-7.285-7.57l-1.469.954a.219.219,0,0,0,0,.368l2.6,1.688a.219.219,0,0,1,.1.222l-.545,3.092a.219.219,0,0,0,.242.256l3.131-.371a.219.219,0,0,1,.232.143l1.091,2.982a.219.219,0,0,0,.318.113l1.589-.946Z" transform="translate(-219.436 -228.444)" fill="#ffd064"/>
      <path id="Trazado_818201" data-name="Trazado 818201" d="M288.8,177.258a.219.219,0,0,0,0-.368l-2.6-1.688a.219.219,0,0,1-.1-.222l.545-3.092a.219.219,0,0,0-.242-.256l-3.131.371a.219.219,0,0,1-.232-.143l-1.091-2.982a.219.219,0,0,0-.318-.113L278.9,170.39a.219.219,0,0,1-.279-.046l-2.064-2.419a.22.22,0,0,0-.334,0l-2.064,2.419a.219.219,0,0,1-.279.046l-2.728-1.624a.219.219,0,0,0-.318.113l-1.091,2.982a.22.22,0,0,1-.232.143l-3.131-.371a.219.219,0,0,0-.242.256l.3,1.685a10.014,10.014,0,0,1,8.743,9.932V185l1.045,1.225a.219.219,0,0,0,.334,0l2.03-2.379a.219.219,0,0,1,.322-.013l5.184,5.163a.219.219,0,0,0,.37-.2l-1.3-6.372a.219.219,0,0,1,.241-.262l3,.355a.219.219,0,0,0,.242-.256l-.545-3.092a.219.219,0,0,1,.1-.222Z" transform="translate(-240.728 -151.822)" fill="#ffd064"/>
      <path id="Trazado_818202" data-name="Trazado 818202" d="M416.286,205.361l-2.6-1.688a.219.219,0,0,1-.1-.222l.545-3.092a.219.219,0,0,0-.242-.256l-3.131.371a.219.219,0,0,1-.232-.143l-.368-1.007-.276,1.563a1.223,1.223,0,0,0,.538,1.238l.747.485a1.223,1.223,0,0,1,0,2.051l-.747.485a1.223,1.223,0,0,0-.538,1.238l.2,1.109a1.223,1.223,0,0,1-1.348,1.426l-.282-.033a1.223,1.223,0,0,0-1.341,1.46l.685,3.345,3.791,3.775a.219.219,0,0,0,.37-.2l-1.3-6.372a.219.219,0,0,1,.241-.262l3,.355a.219.219,0,0,0,.242-.256l-.545-3.092a.219.219,0,0,1,.1-.222l2.6-1.688A.22.22,0,0,0,416.286,205.361Z" transform="translate(-368.216 -180.293)" fill="#ffc250"/>
      <path id="Trazado_818203" data-name="Trazado 818203" d="M196.676,80.493a1.629,1.629,0,0,1,1.627,1.7l-.31,6.743a1.319,1.319,0,0,1-2.634,0l-.31-6.743A1.629,1.629,0,0,1,196.676,80.493Z" transform="translate(-176.424 -72.808)" fill="#617881"/>
      <path id="Trazado_818204" data-name="Trazado 818204" d="M200.18,210.751a1.259,1.259,0,1,0-1.259-1.259A1.259,1.259,0,0,0,200.18,210.751Z" transform="translate(-179.928 -188.35)" fill="#617881"/>
      <path id="Trazado_818205" data-name="Trazado 818205" d="M48.46,24.468l-2.324-1.509.488-2.768A.935.935,0,0,0,45.592,19.1l-2.741.324L41.9,16.811a.936.936,0,0,0-1.357-.482l-2.368,1.41L37.536,17l1.863-1.21a1.054,1.054,0,0,0,0-1.767L35.614,11.56l.794-4.507a1.054,1.054,0,0,0-1.161-1.229l-4.517.535-1.574-4.3a1.053,1.053,0,0,0-1.528-.543l-3.92,2.334L20.741.37a1.053,1.053,0,0,0-1.6,0L16.172,3.846l-3.92-2.334a1.054,1.054,0,0,0-1.528.543L9.15,6.358,4.633,5.823A1.054,1.054,0,0,0,3.472,7.052l.794,4.507L.479,14.019a1.054,1.054,0,0,0,0,1.767l3.786,2.459-.794,4.507a1.054,1.054,0,0,0,1.161,1.229L8.728,23.5l-1.9,9.283a1.053,1.053,0,0,0,1.775.958l5.767-5.744a10.676,10.676,0,0,0-.654,3.673v1.416a.716.716,0,0,0,1.432,0v-1.4a9.3,9.3,0,1,1,18.591,0v5.759h-1V31.684a8.291,8.291,0,1,0-16.582,0v5.759h-1V36.424a.716.716,0,1,0-1.432,0v1.088a3.619,3.619,0,0,0-2.908,3.544v3.371a3.617,3.617,0,0,0,3.613,3.613h1.888a1.515,1.515,0,0,0,1.358.846h.8a2.1,2.1,0,0,0,2.1-2.1V38.7a2.1,2.1,0,0,0-2.1-2.1c-.842,0-.818,0-.877,0V31.684a6.817,6.817,0,0,1,.774-3.164l.78.914a1.053,1.053,0,0,0,1.6,0l2.625-3.077,1.83,1.189-.488,2.768a.935.935,0,0,0,1.031,1.092l2.741-.324.956,2.612a.936.936,0,0,0,1.357.483l.507-.3V36.6l-.081,0h-.8a2.1,2.1,0,0,0-2.1,2.1v8.086a2.1,2.1,0,0,0,2.1,2.1h.8a1.515,1.515,0,0,0,1.358-.846h1.888a3.617,3.617,0,0,0,3.613-3.613V41.056a3.619,3.619,0,0,0-2.908-3.544V35.053a.936.936,0,0,0,1.208-.186L38.06,32.9l4.8,4.785a.935.935,0,0,0,1.577-.851l-.39-1.906a.716.716,0,1,0-1.4.287l.06.292-4.016-4a.936.936,0,0,0-1.372.056l-1.652,1.937-.5-.581v-1.23a10.745,10.745,0,0,0-8.843-10.562l-.092-.522,2.468.292a.934.934,0,0,0,.989-.608l.885-2.419,2.214,1.318a.933.933,0,0,0,1.19-.2l1.686-1.976,1.686,1.976a.934.934,0,0,0,1.19.2l2.213-1.318.885,2.419a.932.932,0,0,0,.989.608L45.1,20.6l-.429,2.434a.934.934,0,0,0,.412.947l1.958,1.272L45.08,26.524a.934.934,0,0,0-.412.947l.429,2.434-2.338-.277a.936.936,0,0,0-1.027,1.117l.229,1.118a.716.716,0,1,0,1.4-.287l-.091-.445,2.319.274a.935.935,0,0,0,1.031-1.091l-.488-2.768,2.324-1.509a.936.936,0,0,0,0-1.569ZM12.239,44.427V41.055a2.183,2.183,0,0,1,2.18-2.18h1.732v7.732H14.419A2.183,2.183,0,0,1,12.239,44.427Zm5.426-6.4h.8a.67.67,0,0,1,.669.669v8.086a.67.67,0,0,1-.669.669h-.8a.081.081,0,0,1-.081-.081V38.11a.081.081,0,0,1,.081-.081Zm2.275-9.862-.754-.884a6.878,6.878,0,0,1,3.271-2.165.937.937,0,0,0-.009.11ZM30.577,32.64l-.885-2.419a.932.932,0,0,0-.989-.607l-2.468.292.429-2.434a.934.934,0,0,0-.412-.947l-1.958-1.272.633-.411A6.868,6.868,0,0,1,31.3,31.684v.524ZM31.3,47.372a.081.081,0,0,1-.081.081h-.8a.67.67,0,0,1-.669-.669V38.7a.67.67,0,0,1,.669-.669h.8a.081.081,0,0,1,.081.081Zm5.345-6.317v3.371a2.183,2.183,0,0,1-2.18,2.18H32.734V38.875h1.732A2.183,2.183,0,0,1,36.646,41.055ZM19.709,21.141a.543.543,0,1,1,.543.543A.544.544,0,0,1,19.709,21.141Zm15.246-5.5-1.792,2.1L30.8,16.328a.936.936,0,0,0-1.358.482l-.956,2.613L25.74,19.1a.935.935,0,0,0-1.031,1.091l.136.773a10.751,10.751,0,0,0-2.618.223,1.975,1.975,0,1,0-3.376,1.346,10.807,10.807,0,0,0-2.362,1.961,1.051,1.051,0,0,0-.927.291l-7.08,7.052,1.754-8.566A1.054,1.054,0,0,0,9.08,22.012L4.97,22.5l.749-4.252a1.052,1.052,0,0,0-.464-1.066L1.749,14.9l3.508-2.278a1.052,1.052,0,0,0,.463-1.066L4.971,7.305l4.309.51a1.051,1.051,0,0,0,1.113-.684l1.52-4.155,3.8,2.264a1.051,1.051,0,0,0,1.34-.221L19.94,1.637l2.885,3.382a1.051,1.051,0,0,0,1.34.221l3.8-2.264,1.52,4.155a1.051,1.051,0,0,0,1.113.684l4.309-.51-.749,4.252a1.052,1.052,0,0,0,.464,1.066L38.131,14.9,36.6,15.9l-.221-.259a.935.935,0,0,0-1.423,0Z" transform="translate(0 0)"/>
      <path id="Trazado_818206" data-name="Trazado 818206" d="M189.891,72.993a2.344,2.344,0,0,0-2.343,2.453l.123,2.672a.716.716,0,0,0,1.431-.066l-.123-2.672a.913.913,0,1,1,1.824,0l-.31,6.742a.6.6,0,0,1-1.2,0l-.031-.668a.716.716,0,0,0-1.431.066l.031.668a2.035,2.035,0,0,0,4.065,0l.31-6.743A2.344,2.344,0,0,0,189.891,72.993Z" transform="translate(-169.639 -66.024)"/>
    </g>
  </g>
</svg>
