<svg xmlns="http://www.w3.org/2000/svg" xmlns:xlink="http://www.w3.org/1999/xlink" width="85" height="85" viewBox="0 0 85 85">
  <defs>
    <clipPath id="clip-path">
      <path id="path2544" d="M0-682.665H56.335v56.335H0Z" transform="translate(0 682.665)"/>
    </clipPath>
  </defs>
  <g id="Grupo_1072199" data-name="Grupo 1072199" transform="translate(-285 -3882)">
    <circle id="Elipse_9698" data-name="Elipse 9698" cx="42.5" cy="42.5" r="42.5" transform="translate(285 3882)" fill="#dc40ed"/>
    <g id="g2538" transform="translate(299 4578.665)">
      <g id="g2540" transform="translate(0 -682.665)">
        <g id="g2542" clip-path="url(#clip-path)">
          <g id="g2548" transform="translate(17.526 43.256)">
            <path id="path2550" d="M-161.673-7.506a11.57,11.57,0,0,0-3.9-.675,11.544,11.544,0,0,0-3.9.675l-6.74,6.307,3.865,5.272H-158.8l3.866-5.272a11.662,11.662,0,0,0-6.741-6.307" transform="translate(176.214 8.181)" fill="#7ce3ff"/>
          </g>
          <g id="g2552" transform="translate(17.526 43.256)">
            <path id="path2554" d="M-118.309,0a11.544,11.544,0,0,0-3.9.675,11.663,11.663,0,0,0-6.74,6.307l3.865,5.272h1.978V11.6A12.428,12.428,0,0,1-115.774.28,11.6,11.6,0,0,0-118.309,0" transform="translate(128.95)" fill="#55dafe"/>
          </g>
          <g id="g2556" transform="translate(24.267 43.931)">
            <path id="path2558" d="M0,0A8.085,8.085,0,0,0,3.9,4.206,8.084,8.084,0,0,0,7.8,0Z" fill="#ffbf9d"/>
          </g>
          <g id="g2560" transform="translate(16.564 50.238)">
            <path id="path2562" d="M-53.659-31.144q-.258-.154-.515-.315a26.264,26.264,0,0,1-3.35-2.487,11.533,11.533,0,0,0-.962,4.621v.651h4.826v-2.47Z" transform="translate(58.485 33.945)" fill="#ffbf9d"/>
          </g>
          <g id="g2564" transform="translate(1.038 17.151)">
            <path id="path2566" d="M-60.059,0a5.4,5.4,0,0,0-5.4,5.4,5.4,5.4,0,0,0,5.4,5.4,5.4,5.4,0,0,0,5.4-5.4,5.4,5.4,0,0,0-5.4-5.4" transform="translate(65.461)" fill="#ffbf9d"/>
          </g>
          <g id="g2568" transform="translate(44.493 17.151)">
            <path id="path2570" d="M-60.059,0a5.4,5.4,0,0,0-5.4,5.4,5.4,5.4,0,0,0,5.4,5.4,5.4,5.4,0,0,0,5.4-5.4,5.4,5.4,0,0,0-5.4-5.4" transform="translate(65.461)" fill="#ffbf9d"/>
          </g>
          <g id="g2572" transform="translate(6.44 0.825)">
            <path id="path2574" d="M-241.569,0-263.3,21.728l9.738,13.313a19.687,19.687,0,0,0,15.89,8.064,21.624,21.624,0,0,0,2.191-.517,21.736,21.736,0,0,0,15.637-20.861Z" transform="translate(263.297)" fill="#ffd4bd"/>
          </g>
          <g id="g2576" transform="translate(6.44 22.553)">
            <path id="path2578" d="M-80.078,0h-7.2A21.737,21.737,0,0,0-71.644,20.861a21.731,21.731,0,0,0,6.091.867,21.8,21.8,0,0,0,3.9-.35A21.943,21.943,0,0,1-80.078,0" transform="translate(87.281)" fill="#ffbf9d"/>
          </g>
          <g id="g2580" transform="translate(12.944 25.401)">
            <path id="path2582" d="M-85.631-33.641c0,1.671-1.724,3.026-3.851,3.026s-3.851-1.355-3.851-3.026,1.724-3.026,3.851-3.026,3.851,1.355,3.851,3.026" transform="translate(93.333 36.667)" fill="#ff8e9e"/>
          </g>
          <g id="g2584" transform="translate(35.653 25.401)">
            <path id="path2586" d="M0-33.641c0,1.671,1.724,3.026,3.851,3.026S7.7-31.97,7.7-33.641s-1.724-3.026-3.851-3.026S0-35.312,0-33.641" transform="translate(0 36.667)" fill="#ff8e9e"/>
          </g>
          <g id="g2588" transform="translate(39.064 10.63)">
            <path id="path2590" d="M-80.833,0l-5.555,2.807L-88.1,7.8a16.53,16.53,0,0,0,10.831,4.12A21.625,21.625,0,0,0-80.833,0" transform="translate(88.104)" fill="#e8b5b1"/>
          </g>
          <g id="g2592" transform="translate(12.422 2.575)">
            <path id="path2594" d="M-370.812-3.631a28.782,28.782,0,0,1-4.432,2.372,21.762,21.762,0,0,0-2.974-1.91l-25.947,4.216,4.518,13.982a1.43,1.43,0,0,0,1.362.991l7.856,0A24.012,24.012,0,0,0-367.872-1.477a1.943,1.943,0,0,0-2.939-2.154" transform="translate(404.164 3.958)" fill="#d6948c"/>
          </g>
          <g id="g2596" transform="translate(6.44 0.825)">
            <path id="path2598" d="M-281.609-3.3a21.875,21.875,0,0,0-3.6-.3,21.667,21.667,0,0,0-15.745,6.755,21.654,21.654,0,0,0-5.983,14.973h11.862a5.932,5.932,0,0,1-.721-4.836,18.343,18.343,0,0,1,7.014-10.139,18.388,18.388,0,0,1,7.717-3.2l6.058-1.014a21.56,21.56,0,0,0-6.6-2.242" transform="translate(306.938 3.6)" fill="#ce857a"/>
          </g>
          <g id="g2600" transform="translate(34.943 50.238)">
            <path id="path2602" d="M-42.982,0a26.39,26.39,0,0,1-3.866,2.8v2.47h4.828V4.621A11.532,11.532,0,0,0-42.982,0" transform="translate(46.848)" fill="#ffd4bd"/>
          </g>
          <g id="g2604" transform="translate(19.64 24.534)">
            <path id="path2606" d="M-9.175,0A.825.825,0,0,0-10,.825v1.48a.825.825,0,0,0,.825.825.825.825,0,0,0,.825-.825V.825A.825.825,0,0,0-9.175,0" transform="translate(10)"/>
          </g>
          <g id="g2608" transform="translate(35.044 24.534)">
            <path id="path2610" d="M-9.175,0A.825.825,0,0,0-10,.825v1.48a.825.825,0,0,0,.825.825.825.825,0,0,0,.825-.825V.825A.825.825,0,0,0-9.175,0" transform="translate(10)"/>
          </g>
          <g id="g2612" transform="translate(25.312 25.97)">
            <path id="path2614" d="M-60.355-2.258a.825.825,0,0,0-1.164.08,1.867,1.867,0,0,1-2.817,0,.825.825,0,0,0-1.164-.08.825.825,0,0,0-.08,1.164,3.518,3.518,0,0,0,5.305,0,.825.825,0,0,0-.08-1.164" transform="translate(65.784 2.461)"/>
          </g>
          <g id="g2616" transform="translate(0.212)">
            <path id="path2618" d="M-556.4-301.441a22.566,22.566,0,0,0,.463-4.56,22.649,22.649,0,0,0-.463-4.563A4.578,4.578,0,0,1-552.183-306a4.573,4.573,0,0,1-4.215,4.56m-22.09,16.343a20.927,20.927,0,0,1-20.885-20.078l18.875,0h.015a24.329,24.329,0,0,0,12.835-3.912A17.3,17.3,0,0,0-557.6-305.2a20.927,20.927,0,0,1-20.886,20.1m0,3.734a7.692,7.692,0,0,1-2.422-2.214,22.724,22.724,0,0,0,2.422.13,22.687,22.687,0,0,0,2.422-.13,7.688,7.688,0,0,1-2.421,2.214m18.157-35a20.8,20.8,0,0,1,2.728,9.509,15.632,15.632,0,0,1-8.631-3.225,25.062,25.062,0,0,0,5.9-6.284m-25.759,41.311v1.181h-3.174a10.625,10.625,0,0,1,.5-3.066,27.742,27.742,0,0,0,2.674,1.885m15.2,0a27.689,27.689,0,0,0,2.676-1.886,10.627,10.627,0,0,1,.5,3.066h-3.176Zm-29.69-26.388A4.578,4.578,0,0,1-604.792-306a4.578,4.578,0,0,1,4.219-4.563A22.542,22.542,0,0,0-601.04-306h0a22.575,22.575,0,0,0,.464,4.562m43.771-10.787a22.426,22.426,0,0,0-2.555-5.73,24.956,24.956,0,0,0,2.209-5.3,2.773,2.773,0,0,0-4.18-3.088,27.918,27.918,0,0,1-3.872,2.115,22.34,22.34,0,0,0-13.284-4.326,22.541,22.541,0,0,0-14.792,5.528.825.825,0,0,0-.081,1.164.825.825,0,0,0,1.164.081,20.89,20.89,0,0,1,13.709-5.123,20.693,20.693,0,0,1,11.456,3.417,27.876,27.876,0,0,1-9.035,1.683.825.825,0,0,0-.81.841.821.821,0,0,0,.841.809,29.508,29.508,0,0,0,15.606-4.808,1.121,1.121,0,0,1,1.69,1.253,23.053,23.053,0,0,1-21.766,16.877l-18.868,0a20.909,20.909,0,0,1,4.946-12.7.825.825,0,0,0-.095-1.163.825.825,0,0,0-1.163.095,22.533,22.533,0,0,0-4.478,8.367,6.225,6.225,0,0,0-6.28,6.224,6.227,6.227,0,0,0,6.23,6.226l.046,0a22.646,22.646,0,0,0,15.318,15.414,12.485,12.485,0,0,0-6.067,10.669v.649a.825.825,0,0,0,.825.825h23.206a.825.825,0,0,0,.825-.825v-.649a12.32,12.32,0,0,0-2.084-6.865.825.825,0,0,0-1.145-.227.825.825,0,0,0-.228,1.145,10.791,10.791,0,0,1,.648,1.112,25.856,25.856,0,0,1-3.267,2.307.825.825,0,0,0-.4.709v1.645h-11.9v-1.645a.825.825,0,0,0-.4-.709,25.862,25.862,0,0,1-3.267-2.307,11.01,11.01,0,0,1,5.291-5.032,9.149,9.149,0,0,0,3.941,3.873.825.825,0,0,0,.778,0,9.153,9.153,0,0,0,3.929-3.852,10.745,10.745,0,0,1,2.614,1.622.825.825,0,0,0,1.163-.1.825.825,0,0,0-.1-1.163,12.446,12.446,0,0,0-1.656-1.174,22.646,22.646,0,0,0,15.341-15.421l.046,0a6.227,6.227,0,0,0,6.23-6.226,6.225,6.225,0,0,0-6.274-6.224" transform="translate(606.442 328.554)"/>
          </g>
        </g>
      </g>
    </g>
  </g>
</svg>
