<svg xmlns="http://www.w3.org/2000/svg" width="112.12" height="114.272" viewBox="0 0 112.12 114.272">
  <g id="Grupo_61683" data-name="Grupo 61683" transform="translate(-361.439 -4510.94)">
    <circle id="Elipse_4256" data-name="Elipse 4256" cx="48.822" cy="48.822" r="48.822" transform="translate(368.677 4519.254)" fill="#fff"/>
    <rect id="Rectángulo_6711" data-name="Rectángulo 6711" width="112.12" height="114.272" transform="translate(361.439 4510.94)" fill="none"/>
    <g id="Grupo_61691" data-name="Grupo 61691" transform="translate(386.786 4536.688)">
      <g id="Grupo_61689" data-name="Grupo 61689" transform="translate(0.932 0.905)">
        <g id="Grupo_61684" data-name="Grupo 61684">
          <g id="Grupo_61683-2" data-name="Grupo 61683">
            <path id="Trazado_111026" data-name="Trazado 111026" d="M462.745,4555.279v34.535a3.394,3.394,0,0,1-3.394,3.395H405.2a3.393,3.393,0,0,1-3.393-3.395v-34.535a3.394,3.394,0,0,1,3.393-3.395h54.148A3.4,3.4,0,0,1,462.745,4555.279Z" transform="translate(-401.809 -4551.885)" fill="#0385a3"/>
            <path id="Trazado_111027" data-name="Trazado 111027" d="M491.627,4555.279v34.535a3.394,3.394,0,0,1-3.394,3.395h-3.675a3.394,3.394,0,0,0,3.393-3.395v-34.535a3.394,3.394,0,0,0-3.393-3.395h3.675A3.4,3.4,0,0,1,491.627,4555.279Z" transform="translate(-430.692 -4551.885)" fill="#02596d"/>
            <path id="Trazado_111028" data-name="Trazado 111028" d="M407.454,4557.536H461.04V4591.5H407.454Z" transform="translate(-403.779 -4553.857)" fill="#52deff"/>
            <path id="Trazado_111029" data-name="Trazado 111029" d="M483.872,4557.536h3.841V4591.5h-3.841Z" transform="translate(-430.452 -4553.857)" fill="#55baff"/>
          </g>
        </g>
        <g id="Grupo_61688" data-name="Grupo 61688" transform="translate(7.467 10.767)">
          <path id="Trazado_111030" data-name="Trazado 111030" d="M456.875,4629.682a5.929,5.929,0,0,1-2.612,1.741,6.007,6.007,0,0,1-3.438.047c-2.647-.708-5.271-3.018-7.127-6.318a4.741,4.741,0,0,1-5.685-.837,2.53,2.53,0,0,0-.792-.551,2.336,2.336,0,0,0-.94-.2,2.426,2.426,0,0,0-1.733.75,4.739,4.739,0,0,1-5.684.837c-2.672,4.751-6.936,7.447-10.566,6.271a5.936,5.936,0,0,1-2.612-1.741,11.372,11.372,0,0,1-2.4-7.55,19.172,19.172,0,0,1,.953-5.85c1.949-6.041,6.348-10.185,10.411-10.169h23.3a6.058,6.058,0,0,1,.772.05c3.83.481,7.792,4.471,9.615,10.119,1.726,5.35,1.028,10.618-1.452,13.4Z" transform="translate(-413.28 -4581.58)" fill="#eef6ff"/>
          <path id="Trazado_111031" data-name="Trazado 111031" d="M475.064,4616.309c1.726,5.35,1.028,10.618-1.452,13.4a5.93,5.93,0,0,1-2.612,1.741,6.011,6.011,0,0,1-3.438.047,5.94,5.94,0,0,0,2.606-1.739c2.479-2.782,3.178-8.05,1.452-13.4-1.946-6.031-6.329-10.17-10.387-10.17h4.218c3.83.482,7.792,4.472,9.615,10.12Z" transform="translate(-430.017 -4581.606)" fill="#dae6ef"/>
          <g id="Grupo_61685" data-name="Grupo 61685" transform="translate(15.28 36.112)">
            <path id="Trazado_111032" data-name="Trazado 111032" d="M440.628,4627.667a2.236,2.236,0,0,1-2.737.424,2.2,2.2,0,0,1-.426-.312,2.239,2.239,0,1,1,3.162-.112Z" transform="translate(-436.753 -4623.9)" fill="#555760"/>
            <path id="Trazado_111033" data-name="Trazado 111033" d="M441.239,4627.667a2.236,2.236,0,0,1-2.737.424,2.177,2.177,0,0,0,.538-.424,2.244,2.244,0,0,0-.113-3.167,2.314,2.314,0,0,0-.426-.312,2.24,2.24,0,0,1,2.737,3.479Z" transform="translate(-437.363 -4623.9)" fill="#36383f"/>
          </g>
          <g id="Grupo_61686" data-name="Grupo 61686" transform="translate(26.221 36.112)">
            <path id="Trazado_111034" data-name="Trazado 111034" d="M457.436,4627.667a2.236,2.236,0,0,1-2.737.424,2.2,2.2,0,0,1-.425-.312,2.238,2.238,0,1,1,3.162-.112Z" transform="translate(-453.561 -4623.9)" fill="#555760"/>
            <path id="Trazado_111035" data-name="Trazado 111035" d="M458.047,4627.667a2.236,2.236,0,0,1-2.737.424,2.165,2.165,0,0,0,.538-.424,2.244,2.244,0,0,0-.113-3.167,2.314,2.314,0,0,0-.426-.312,2.24,2.24,0,0,1,2.737,3.479Z" transform="translate(-454.172 -4623.9)" fill="#36383f"/>
          </g>
          <path id="Trazado_111036" data-name="Trazado 111036" d="M452.2,4606.113l-2.452,6.947h-10.63l-2.452-6.947Z" transform="translate(-421.441 -4581.579)" fill="#a8b3ba"/>
          <path id="Trazado_111037" data-name="Trazado 111037" d="M454.329,4606.113l-2.452,6.947h3.178l2.452-6.947Z" transform="translate(-426.752 -4581.579)" fill="#879299"/>
          <g id="Grupo_61687" data-name="Grupo 61687" transform="translate(1.543)">
            <path id="Trazado_111038" data-name="Trazado 111038" d="M431.221,4582.214a8.612,8.612,0,0,1-6.878,3.5h-.061a8.645,8.645,0,0,1,0-17.29h.053a8.6,8.6,0,0,1,6.66,3.208l-5.17,5.177Z" transform="translate(-415.65 -4568.425)" fill="#fff148"/>
            <path id="Trazado_111039" data-name="Trazado 111039" d="M435.362,4582.215a8.611,8.611,0,0,1-6.878,3.5c1.271-.071,3.4-2.36,3.4-3.509l-3.656-3.661a2.449,2.449,0,0,1,0-3.464l3.337-3.344c0-.852-1.957-3.234-3.092-3.309a8.6,8.6,0,0,1,6.66,3.208l-5.17,5.178Z" transform="translate(-419.791 -4568.426)" fill="#ffcf4a"/>
            <path id="Trazado_111040" data-name="Trazado 111040" d="M473.043,4587.309A3.045,3.045,0,0,1,470,4590.35a2.974,2.974,0,0,1-.763-.1,3.049,3.049,0,0,1-2.251-3.38l.733-5.167h4.561l.732,5.167A3.1,3.1,0,0,1,473.043,4587.309Z" transform="translate(-433.558 -4573.06)" fill="#eef6ff"/>
            <path id="Trazado_111041" data-name="Trazado 111041" d="M474.267,4587.309a3.045,3.045,0,0,1-3.043,3.042,2.974,2.974,0,0,1-.763-.1,3.178,3.178,0,0,0,1.374-2.943c0-.144-.006-.29-.018-.437l-.443-5.167h2.13l.732,5.167A3.1,3.1,0,0,1,474.267,4587.309Z" transform="translate(-434.781 -4573.06)" fill="#dae6ef"/>
            <path id="Trazado_111042" data-name="Trazado 111042" d="M474.4,4577.07H462.479l.56-3.955a5.454,5.454,0,0,1,4.641-4.638,5.623,5.623,0,0,1,.758-.052,5.454,5.454,0,0,1,5.4,4.69Z" transform="translate(-431.995 -4568.425)" fill="#ff455c"/>
            <path id="Trazado_111043" data-name="Trazado 111043" d="M477.185,4577.07h-3.506l-.348-3.955c-.213-2.437-1.4-4.307-2.862-4.638a5.621,5.621,0,0,1,.758-.052,5.454,5.454,0,0,1,5.4,4.69Z" transform="translate(-434.784 -4568.425)" fill="#e51c5f"/>
          </g>
        </g>
      </g>
      <g id="Grupo_61690" data-name="Grupo 61690" transform="translate(0 0)">
        <path id="Trazado_111044" data-name="Trazado 111044" d="M462.232,4565.733a.92.92,0,0,0-.92.92v22.74a2.48,2.48,0,0,1-2.474,2.48h-6.4a17.744,17.744,0,0,0-1.361-1.845h7.48a.919.919,0,0,0,.919-.92V4555.1a.92.92,0,0,0-.919-.92H416.866a.919.919,0,0,0,0,1.839h40.772v32.173h-8.413a9.321,9.321,0,0,0-5.824-2.345h-9.607a.92.92,0,0,0,0,1.839h4.427l-1.8,5.107h-9.33l-1.8-5.107h4.206a.92.92,0,0,0,0-1.839h-9.385a9.3,9.3,0,0,0-5.8,2.345h-8.412v-32.173h6.648a.919.919,0,0,0,0-1.839h-7.567a.919.919,0,0,0-.919.92v34.011a.919.919,0,0,0,.919.92h7.48a17.735,17.735,0,0,0-1.361,1.845h-6.4a2.48,2.48,0,0,1-2.475-2.48v-34.58a2.479,2.479,0,0,1,2.475-2.479h54.123a2.479,2.479,0,0,1,2.474,2.479v7.59a.92.92,0,1,0,1.84,0v-7.59a4.322,4.322,0,0,0-4.315-4.319H404.691a4.322,4.322,0,0,0-4.314,4.319v34.58a4.322,4.322,0,0,0,4.314,4.32h5.352a20.8,20.8,0,0,0-1.2,2.938c-1.791,5.553-1.148,11.164,1.64,14.293a6.837,6.837,0,0,0,3.017,2c3.8,1.231,8.236-1.157,11.223-5.971a5.687,5.687,0,0,0,1.919.334,5.614,5.614,0,0,0,4.05-1.706,1.461,1.461,0,0,1,2.149,0,5.614,5.614,0,0,0,4.05,1.706,5.688,5.688,0,0,0,1.919-.334c2.463,3.971,5.911,6.291,9.177,6.291a6.625,6.625,0,0,0,2.045-.32,6.831,6.831,0,0,0,3.016-2c2.788-3.129,3.432-8.74,1.64-14.293a20.887,20.887,0,0,0-1.2-2.938h5.352a4.322,4.322,0,0,0,4.314-4.32v-22.74a.92.92,0,0,0-.919-.92Zm-10.559,43.988a5.018,5.018,0,0,1-2.209,1.479c-3.084,1-6.983-1.407-9.481-5.848a.92.92,0,0,0-1.247-.354,3.82,3.82,0,0,1-4.581-.676,3.3,3.3,0,0,0-4.781,0,3.82,3.82,0,0,1-4.581.676.92.92,0,0,0-1.247.354c-2.5,4.441-6.4,6.846-9.481,5.848a5.022,5.022,0,0,1-2.209-1.479c-2.326-2.611-2.834-7.637-1.263-12.5,1.784-5.528,5.781-9.532,9.516-9.532h3.226l2.235,6.333a.919.919,0,0,0,.867.613h10.63a.919.919,0,0,0,.867-.613l2.236-6.333h3.254c3.731,0,7.729,4,9.512,9.532,1.571,4.868,1.063,9.894-1.264,12.5Z" transform="translate(-400.377 -4550.494)" fill="#453d7a"/>
        <path id="Trazado_111045" data-name="Trazado 111045" d="M440.63,4623.433a3.157,3.157,0,0,0-4.463.16,3.16,3.16,0,0,0,2.309,5.313l.116,0a3.133,3.133,0,0,0,2.2-1.005,3.166,3.166,0,0,0-.16-4.465Zm-1.187,3.213a1.315,1.315,0,0,1-1.862.067,1.324,1.324,0,0,1-.066-1.868,1.309,1.309,0,0,1,.917-.419h.048a1.306,1.306,0,0,1,.9.354h0a1.324,1.324,0,0,1,.066,1.868Z" transform="translate(-412.575 -4575.657)" fill="#453d7a"/>
        <path id="Trazado_111046" data-name="Trazado 111046" d="M457.439,4623.433a3.156,3.156,0,0,0-4.463.161,3.159,3.159,0,0,0,2.309,5.312l.116,0a3.132,3.132,0,0,0,2.2-1.005A3.166,3.166,0,0,0,457.439,4623.433Zm-1.187,3.213a1.319,1.319,0,1,1-1.012-2.22h.048a1.306,1.306,0,0,1,.9.354h0a1.325,1.325,0,0,1,.067,1.868Z" transform="translate(-418.442 -4575.657)" fill="#453d7a"/>
        <path id="Trazado_111047" data-name="Trazado 111047" d="M429.82,4615.877h-1.836v-1.84a.919.919,0,0,0-1.839,0v1.84h-1.836a.919.919,0,1,0,0,1.839h1.836v1.84a.919.919,0,1,0,1.839,0v-1.84h1.836a.919.919,0,0,0,0-1.839Z" transform="translate(-408.409 -4572.353)" fill="#453d7a"/>
        <path id="Trazado_111048" data-name="Trazado 111048" d="M423.771,4567.111a9.565,9.565,0,1,0,7.677,15.256.92.92,0,0,0-.089-1.2l-4.747-4.753,4.522-4.528a.919.919,0,0,0,.064-1.228,9.514,9.514,0,0,0-7.428-3.55Zm.891,8.656a.92.92,0,0,0,0,1.3l4.809,4.815a7.635,7.635,0,0,1-5.7,2.52,7.725,7.725,0,1,1,5.448-13.2Z" transform="translate(-405.208 -4556.294)" fill="#453d7a"/>
        <path id="Trazado_111049" data-name="Trazado 111049" d="M474.578,4577.278a.915.915,0,0,0,.216-.731l-.56-3.953a6.371,6.371,0,0,0-12.617,0l-.561,3.953a.92.92,0,0,0,.911,1.048h2.619l-.584,4.12a3.963,3.963,0,1,0,7.847,0l-.584-4.12h2.619A.917.917,0,0,0,474.578,4577.278Zm-5.05,6.392a2.125,2.125,0,0,1-3.706-1.7l.621-4.378h2.964l.621,4.378a2.131,2.131,0,0,1-.5,1.7Zm-6.5-7.913.412-2.9a4.532,4.532,0,0,1,8.975,0l.412,2.9Z" transform="translate(-421.553 -4556.294)" fill="#453d7a"/>
        <circle id="Elipse_4486" data-name="Elipse 4486" cx="0.918" cy="0.918" r="0.918" transform="translate(25.411 19.384)" fill="#453d7a"/>
        <circle id="Elipse_4487" data-name="Elipse 4487" cx="0.918" cy="0.918" r="0.918" transform="translate(28.699 19.382)" fill="#453d7a"/>
        <circle id="Elipse_4488" data-name="Elipse 4488" cx="0.918" cy="0.918" r="0.918" transform="translate(32.062 19.384)" fill="#453d7a"/>
        <circle id="Elipse_4489" data-name="Elipse 4489" cx="0.918" cy="0.918" r="0.918" transform="translate(35.529 19.382)" fill="#453d7a"/>
        <circle id="Elipse_4490" data-name="Elipse 4490" cx="0.918" cy="0.918" r="0.918" transform="translate(17.165 14.958)" fill="#453d7a"/>
        <circle id="Elipse_4491" data-name="Elipse 4491" cx="0.918" cy="0.918" r="0.918" transform="translate(40.421 43.527)" fill="#453d7a"/>
        <circle id="Elipse_4492" data-name="Elipse 4492" cx="0.918" cy="0.918" r="0.918" transform="translate(45.932 43.527)" fill="#453d7a"/>
        <circle id="Elipse_4493" data-name="Elipse 4493" cx="0.918" cy="0.918" r="0.918" transform="translate(43.177 40.767)" fill="#453d7a"/>
        <circle id="Elipse_4494" data-name="Elipse 4494" cx="0.918" cy="0.918" r="0.918" transform="translate(43.177 46.285)" fill="#453d7a"/>
      </g>
    </g>
  </g>
</svg>
